<svg width="94" height="94" viewBox="0 0 94 94" fill="none" xmlns="http://www.w3.org/2000/svg">
<path d="M30.8438 36.7188H33.7812V39.6562H30.8438V36.7188Z" fill="#CE7A58"/>
<path d="M41.125 67.5625H44.0625V70.5H41.125V67.5625Z" fill="#CE7A58"/>
<path d="M49.9375 67.5625H52.875V70.5H49.9375V67.5625Z" fill="#CE7A58"/>
<path d="M45.5312 61.6875H48.4688V64.625H45.5312V61.6875Z" fill="#CE7A58"/>
<path d="M11.75 57.2812H14.6875V60.2188H11.75V57.2812Z" fill="#CE7A58"/>
<path d="M11.75 66.0938H14.6875V69.0312H11.75V66.0938Z" fill="#CE7A58"/>
<path d="M16.1562 61.6875H19.0938V64.625H16.1562V61.6875Z" fill="#CE7A58"/>
<path d="M11.75 74.9062H14.6875V77.8438H11.75V74.9062Z" fill="#CE7A58"/>
<path d="M11.75 82.25H14.6875V85.1875H11.75V82.25Z" fill="#CE7A58"/>
<path d="M16.1562 70.5H19.0938V73.4375H16.1562V70.5Z" fill="#CE7A58"/>
<path d="M84.8655 88.125L83.6749 83.3626C83.5954 83.0448 83.4121 82.7627 83.1539 82.5611C82.8957 82.3595 82.5776 82.25 82.25 82.25H79.3125V57.2812H76.375V58.9677L70.5 65.2922V58.6446L76.375 52.3202V54.3438H79.3125V24.9688H86.6562C86.929 24.9687 87.1964 24.8928 87.4284 24.7494C87.6604 24.606 87.8479 24.4008 87.9699 24.1569L90.9074 18.2819C91.0452 18.0061 91.0928 17.694 91.0434 17.3897C90.9939 17.0854 90.85 16.8044 90.632 16.5864L80.7812 6.73532V4.40625C80.7812 4.01671 80.6265 3.64313 80.3511 3.36769C80.0756 3.09224 79.702 2.9375 79.3125 2.9375H74.9062C74.6221 2.93748 74.3441 3.01988 74.1059 3.1747C73.8676 3.32952 73.6794 3.55011 73.564 3.80975L72.6093 5.95964L8.64727 13.2281C8.28864 13.2687 7.95752 13.4399 7.71709 13.7091C7.47666 13.9783 7.34376 14.3266 7.34375 14.6875V16.1562H4.40625C4.15589 16.1563 3.90969 16.2203 3.69103 16.3422C3.47236 16.4641 3.28849 16.6399 3.15688 16.8529C3.02526 17.0659 2.95028 17.3089 2.93903 17.559C2.92779 17.8091 2.98066 18.058 3.09264 18.2819L6.03014 24.1569C6.15212 24.4008 6.33962 24.606 6.57164 24.7494C6.80365 24.8928 7.071 24.9687 7.34375 24.9688H14.6875V22.0312H8.25144L6.78269 19.0938H24.9688V22.0312H17.625V24.9688H30.8438V30.8438H29.375C29.0909 30.8437 28.8128 30.9261 28.5746 31.0809C28.3364 31.2358 28.1481 31.4564 28.0327 31.716L25.0952 38.3254C25.0016 38.536 24.9589 38.7658 24.9706 38.996C24.9822 39.2262 25.0479 39.4504 25.1623 39.6506L28.0998 44.7912C28.2282 45.016 28.4138 45.2029 28.6378 45.3328C28.8617 45.4628 29.1161 45.5312 29.375 45.5312H30.8438V47.8605L26.8677 51.8364C26.6748 52.0293 26.5395 52.2721 26.4768 52.5376C26.4142 52.803 26.4267 53.0807 26.513 53.3395L27.9817 57.7457C28.0792 58.0382 28.2662 58.2925 28.5163 58.4727C28.7663 58.653 29.0668 58.75 29.375 58.75H35.25C35.6395 58.75 36.0131 58.5953 36.2886 58.3198C36.564 58.0444 36.7188 57.6708 36.7188 57.2812V52.875H33.7812V55.8125H30.4336L29.5867 53.2717L33.3504 49.5081C33.487 49.3717 33.5953 49.2096 33.6693 49.0313C33.7432 48.853 33.7813 48.6618 33.7812 48.4688V45.5312H35.25C35.5089 45.5312 35.7633 45.4628 35.9872 45.3328C36.2112 45.2029 36.3968 45.016 36.5252 44.7912L39.4627 39.6506C39.5771 39.4504 39.6428 39.2262 39.6544 38.996C39.6661 38.7658 39.6234 38.536 39.5298 38.3254L36.5923 31.716C36.4769 31.4564 36.2886 31.2358 36.0504 31.0809C35.8122 30.9261 35.5341 30.8437 35.25 30.8438H33.7812V24.9688H51.9673L57.4364 35.9069C57.5584 36.1508 57.7459 36.356 57.9779 36.4994C58.2099 36.6428 58.4773 36.7187 58.75 36.7188H67.5625V82.25H64.625C64.2974 82.25 63.9793 82.3595 63.7211 82.5611C63.4629 82.7627 63.2796 83.0448 63.2001 83.3626L62.0095 88.125H58.75V66.0938C58.75 65.7672 58.6411 65.4499 58.4406 65.1921L55.7148 61.6875H55.8125V57.2812H52.875V58.0364L48.1594 51.9734C48.0265 51.8024 47.8574 51.663 47.6643 51.5651C47.4712 51.4672 47.2589 51.4131 47.0424 51.4068C46.826 51.4006 46.6109 51.4423 46.4124 51.5289C46.214 51.6155 46.0372 51.7449 45.8946 51.9078L35.6133 63.6578C35.3791 63.9256 35.25 64.2692 35.25 64.625V74.2978L30.4136 69.4614C30.2772 69.325 30.1153 69.2168 29.9371 69.143C29.7589 69.0692 29.5679 69.0312 29.375 69.0312C29.1821 69.0312 28.9911 69.0692 28.8129 69.143C28.6347 69.2168 28.4728 69.325 28.3364 69.4614L24.9688 72.8291V58.75C24.9687 58.5264 24.9177 58.3057 24.8194 58.1048C24.7212 57.9039 24.5783 57.7281 24.4018 57.5908L11.1831 47.3095C10.9252 47.1089 10.6079 47 10.2812 47V41.125H7.34375V47C6.95421 47 6.58063 47.1547 6.30519 47.4302C6.02974 47.7056 5.875 48.0792 5.875 48.4688V66.0938H8.8125V49.9375H9.77729L22.0312 59.4684V75.7666L19.5239 78.2739C19.3875 78.4103 19.2793 78.5722 19.2055 78.7504C19.1317 78.9286 19.0937 79.1196 19.0938 79.3125V88.125H8.8125V69.0312H5.875V88.125H2.9375V91.0625H91.0625V88.125H84.8655ZM36.5436 38.8389L34.3976 42.5938H30.2274L28.0818 38.8389L30.3297 33.7812H34.2953L36.5436 38.8389ZM76.375 63.2837V70.7177L70.5 77.0422V69.6081L76.375 63.2837ZM76.375 24.9688V25.1865L70.5 31.5109V24.9688H76.375ZM70.5 35.8269L76.375 29.5024V36.2543L70.5 42.5787V35.8269ZM70.5 54.3287V46.8946L76.375 40.5702V48.0043L70.5 54.3287ZM85.7486 22.0312H39.6562V19.0938H87.2173L85.7486 22.0312ZM86.0478 16.1562H80.7812V10.8897L86.0478 16.1562ZM75.8609 5.875H77.8438V16.1562H71.2913L75.8609 5.875ZM10.2812 15.9989L71.2246 9.07339L68.0766 16.1562H10.2812V15.9989ZM27.9062 22.0312V19.0938H36.7188V22.0312H27.9062ZM59.6577 33.7812L58.1889 30.8438H61.6875V27.9062H56.7202L55.2514 24.9688H67.5625V33.7812H59.6577ZM70.5 81.3581L76.375 75.0337V82.25H70.5V81.3581ZM42.5938 82.25V88.125H39.6562V79.3125C39.6563 79.1196 39.6183 78.9286 39.5445 78.7504C39.4707 78.5722 39.3625 78.4103 39.2261 78.2739L38.1875 77.2353V76.375H55.8125V80.7812H44.0625C43.673 80.7812 43.2994 80.936 43.0239 81.2114C42.7485 81.4869 42.5938 81.8605 42.5938 82.25ZM46.9334 55.1815L55.8125 66.5977V73.4375H38.1875V65.1769L46.9334 55.1815ZM30.8438 88.125V82.25H27.9062V88.125H22.0312V79.9207L29.375 72.577L36.7188 79.9207V88.125H30.8438ZM45.5312 88.125V83.7188H55.8125V88.125H45.5312ZM65.0374 88.125L65.7717 85.1875H81.1033L81.8376 88.125H65.0374Z" fill="#CE7A58"/>
</svg>
