<svg width="94" height="94" viewBox="0 0 94 94" fill="none" xmlns="http://www.w3.org/2000/svg">
<g clip-path="url(#clip0)">
<path d="M84.3613 54.558C85.122 54.558 85.7383 53.9417 85.7383 53.181V48.5921C85.7383 46.8206 84.2969 45.3792 82.5254 45.3792H46.0964V45.3058L53.1546 34.8637C53.4122 34.4829 53.5486 34.0383 53.5486 33.578V31.0125C53.5486 29.747 52.5192 28.7176 51.2537 28.7176H46.0964V22.9489L53.1546 12.5066C53.4122 12.1258 53.5486 11.6812 53.5486 11.2211V8.65553C53.5486 7.39002 52.5192 6.36061 51.2537 6.36061H46.0964V2.29492C46.0964 1.02941 45.0669 0 43.8014 0H18.0091C16.7436 0 15.7142 1.02941 15.7142 2.29492V6.36061H10.5566C9.29113 6.36061 8.26172 7.39002 8.26172 8.65553V11.2211C8.26172 11.6806 8.39758 12.1247 8.65534 12.5062L15.7142 22.949V28.7177H10.5566C9.29113 28.7177 8.26172 29.7471 8.26172 31.0127V33.5782C8.26172 34.0377 8.39758 34.482 8.65534 34.8635L15.7142 45.3062V51.0751H10.5566C9.29113 51.0751 8.26172 52.1045 8.26172 53.37V55.9355C8.26172 56.395 8.39758 56.8392 8.65534 57.2207L15.7142 67.6635V73.5289C15.7142 74.7944 16.7436 75.8239 18.0091 75.8239H24.257V91.7051C24.257 92.9706 25.2864 94 26.5519 94H35.2584C36.524 94 37.5534 92.9706 37.5534 91.7051V86.3575H49.9375V91.2461H42.9986C42.2379 91.2461 41.6216 91.8624 41.6216 92.623C41.6216 93.3837 42.2379 94 42.9986 94H71.4437C72.2043 94 72.8206 93.3837 72.8206 92.623C72.8206 91.8624 72.2043 91.2461 71.4437 91.2461H64.5047V86.3575H82.5254C84.2969 86.3575 85.7383 84.9161 85.7383 83.1447V59.6221C85.7383 58.8614 85.122 58.2451 84.3613 58.2451C83.6007 58.2451 82.9844 58.8614 82.9844 59.6221V77.293H54.4355C53.6749 77.293 53.0586 77.9093 53.0586 78.6699C53.0586 79.4305 53.6749 80.0469 54.4355 80.0469H82.9844V83.1447C82.9844 83.3978 82.7786 83.6036 82.5254 83.6036H37.5534V80.0469H47.8262C48.5868 80.0469 49.2031 79.4305 49.2031 78.6699C49.2031 77.9093 48.5868 77.293 47.8262 77.293H37.5534V75.8235H43.8014C45.0669 75.8235 46.0964 74.7941 46.0964 73.5286V67.6629L53.1546 57.2207C53.4122 56.8399 53.5486 56.3952 53.5486 55.9351V53.3696C53.5486 52.1041 52.5192 51.0747 51.2537 51.0747H46.0964V48.1331H82.5254C82.7786 48.1331 82.9844 48.3389 82.9844 48.5921V53.181C82.9844 53.9417 83.6007 54.558 84.3613 54.558ZM46.0964 9.11451H50.7947V11.0804L46.0964 18.0311V9.11451ZM46.0964 31.4715H50.7947V33.4376L46.0964 40.3881V31.4715ZM15.7142 62.7454L11.0156 55.7945V53.8286H15.7142V62.7454ZM15.7142 40.3882L11.0156 33.4376V31.4715H15.7142V40.3882ZM15.7142 18.0311L11.0156 11.0804V9.11451H15.7142V18.0311ZM52.6914 86.3575H61.7508V91.2461H52.6914V86.3575ZM34.7995 91.2461H27.0109V75.8235H34.7995V91.2461ZM43.3424 73.0696H18.4681V2.75391H43.3424V73.0696ZM50.7947 53.8286V55.7945L46.0964 62.7452V53.8286H50.7947Z" fill="#CE7A58"/>
<path d="M66.2563 41.3651C66.6943 42.1493 67.4861 42.6176 68.3746 42.6176C69.2632 42.6176 70.0548 42.1494 70.493 41.3646L77.5374 28.7267C78.6876 26.6532 79.1343 24.2893 78.8297 21.8902C78.21 17.012 74.3107 13.0842 69.5575 12.551C69.1636 12.5069 68.7656 12.4845 68.3744 12.4845H68.3738C65.5476 12.4845 62.8932 13.6204 60.8995 15.6827C58.9178 17.7328 57.8265 20.4549 57.8265 23.348C57.8265 25.2331 58.305 27.0924 59.2119 28.7273L66.2563 41.3651ZM62.8796 17.5967C64.3496 16.0758 66.3009 15.2383 68.3738 15.2383H68.3744C68.6637 15.2383 68.9588 15.255 69.2507 15.2877C72.7566 15.6811 75.6361 18.6039 76.0976 22.2374C76.328 24.0513 75.9932 25.8333 75.1304 27.3887L68.3744 39.5094L61.6185 27.389C60.9394 26.1643 60.5803 24.767 60.5803 23.348C60.5804 21.1727 61.3969 19.1303 62.8796 17.5967Z" fill="#CE7A58"/>
<path d="M68.3746 27.8444C70.955 27.8444 73.0542 25.6941 73.0542 23.0511C73.0542 20.4081 70.9548 18.2579 68.3746 18.2579C65.7943 18.2579 63.6949 20.4081 63.6949 23.0511C63.6949 25.6941 65.7942 27.8444 68.3746 27.8444ZM68.3746 21.0116C69.4365 21.0116 70.3003 21.9264 70.3003 23.0509C70.3003 24.1754 69.4365 25.0903 68.3746 25.0903C67.3127 25.0903 66.4489 24.1754 66.4489 23.0509C66.4489 21.9264 67.3127 21.0116 68.3746 21.0116Z" fill="#CE7A58"/>
<path d="M61.8569 64.4414C60.5914 64.4414 59.562 65.4708 59.562 66.7363V70.7754C59.562 72.0409 60.5914 73.0703 61.8569 73.0703H74.8921C76.1576 73.0703 77.187 72.0409 77.187 70.7754V66.7363C77.187 65.4708 76.1576 64.4414 74.8921 64.4414H69.7515V61.8805C72.1244 61.2674 73.8823 59.1086 73.8823 56.5469C73.8823 53.5099 71.4115 51.0391 68.3745 51.0391C65.3375 51.0391 62.8667 53.5099 62.8667 56.5469C62.8667 59.1086 64.6246 61.2674 66.9976 61.8805V64.4414H61.8569ZM65.6206 56.5469C65.6206 55.0284 66.856 53.793 68.3745 53.793C69.893 53.793 71.1284 55.0284 71.1284 56.5469C71.1284 58.0654 69.893 59.3008 68.3745 59.3008C66.856 59.3008 65.6206 58.0654 65.6206 56.5469ZM74.4331 67.1953V70.3164H62.3159V67.1953H74.4331Z" fill="#CE7A58"/>
<path d="M30.9053 24.0935C32.2218 24.0935 33.4875 23.807 34.6671 23.2422C35.353 22.9138 35.6427 22.0915 35.3143 21.4056C34.9857 20.7195 34.1631 20.4299 33.4776 20.7584C32.6722 21.1441 31.8067 21.3396 30.9051 21.3396C27.6149 21.3396 24.9383 18.663 24.9383 15.3728C24.9383 12.0827 27.6149 9.40605 30.9051 9.40605C34.1953 9.40605 36.8719 12.0827 36.8719 15.3728C36.8719 15.7621 36.8344 16.1506 36.7605 16.5275C36.6139 17.2738 37.1001 17.9975 37.8462 18.144C38.5938 18.2907 39.3163 17.8042 39.4628 17.0582C39.5711 16.5067 39.626 15.9398 39.626 15.3728C39.626 10.5643 35.7138 6.65215 30.9053 6.65215C26.0968 6.65215 22.1846 10.5643 22.1846 15.3728C22.1846 20.1814 26.0968 24.0935 30.9053 24.0935Z" fill="#CE7A58"/>
<path d="M30.9053 46.4507C35.7138 46.4507 39.626 42.5385 39.626 37.73C39.626 32.9215 35.7138 29.0093 30.9053 29.0093C26.0968 29.0093 22.1846 32.9215 22.1846 37.73C22.1846 42.5385 26.0968 46.4507 30.9053 46.4507ZM30.9053 31.7632C34.1955 31.7632 36.8721 34.4398 36.8721 37.73C36.8721 41.0202 34.1955 43.6968 30.9053 43.6968C27.6151 43.6968 24.9385 41.0202 24.9385 37.73C24.9385 34.4398 27.6151 31.7632 30.9053 31.7632Z" fill="#CE7A58"/>
<path d="M30.9053 68.8078C35.7138 68.8078 39.626 64.8956 39.626 60.0871C39.626 55.2786 35.7138 51.3664 30.9053 51.3664C26.0968 51.3664 22.1846 55.2786 22.1846 60.0871C22.1846 64.8956 26.0968 68.8078 30.9053 68.8078ZM30.9053 54.1203C34.1955 54.1203 36.8721 56.7969 36.8721 60.0871C36.8721 63.3773 34.1955 66.0539 30.9053 66.0539C27.6151 66.0539 24.9385 63.3773 24.9385 60.0871C24.9385 56.7969 27.6151 54.1203 30.9053 54.1203Z" fill="#CE7A58"/>
</g>
<defs>
<clipPath id="clip0">
<rect width="94" height="94" fill="white"/>
</clipPath>
</defs>
</svg>
