<svg width="20" height="20" viewBox="0 0 20 20" fill="none" xmlns="http://www.w3.org/2000/svg">
<path d="M12.4272 7.37109H13.1526C13.2728 7.37109 13.3881 7.41883 13.473 7.50381C13.558 7.58879 13.6058 7.70404 13.6058 7.82422V8.17211C13.6058 8.29229 13.558 8.40754 13.473 8.49252C13.3881 8.5775 13.2728 8.62524 13.1526 8.62524H11.9739V7.82445C11.9738 7.76491 11.9856 7.70594 12.0083 7.65092C12.0311 7.59591 12.0645 7.54592 12.1066 7.50381C12.1487 7.46171 12.1987 7.42831 12.2537 7.40554C12.3087 7.38277 12.3677 7.37106 12.4272 7.37109Z" fill="#6BDDDD"/>
<path d="M13.1525 8.78172H11.9739C11.9324 8.78172 11.8927 8.76526 11.8634 8.73595C11.8341 8.70665 11.8176 8.66691 11.8176 8.62547V7.82422C11.8179 7.66267 11.8821 7.50781 11.9964 7.39358C12.1106 7.27935 12.2655 7.21507 12.427 7.21484H13.1524C13.3139 7.21509 13.4688 7.27937 13.583 7.3936C13.6972 7.50783 13.7615 7.66268 13.7618 7.82422V8.17211C13.7616 8.33366 13.6973 8.48855 13.5832 8.60283C13.469 8.7171 13.3141 8.78143 13.1525 8.78172ZM12.1301 8.46922H13.1525C13.2312 8.46907 13.3067 8.43775 13.3623 8.38211C13.418 8.32646 13.4493 8.25104 13.4494 8.17234V7.82445C13.4493 7.74576 13.418 7.67033 13.3623 7.61469C13.3067 7.55905 13.2312 7.52772 13.1525 7.52758H12.4272C12.3485 7.52772 12.273 7.55905 12.2174 7.61469C12.1618 7.67033 12.1304 7.74576 12.1303 7.82445L12.1301 8.46922Z" fill="#3762CC"/>
<path d="M12.031 6.22962L12.5153 6.10517L12.5153 6.10514L12.031 6.22962ZM11.4777 5.3421L11.1588 5.72719V5.72719L11.4777 5.3421ZM13 10L12.5157 10.1245L12.6123 10.5H13V10ZM13 14V13.5H12.5V14H13ZM12.7643 15.8186L12.4593 15.4224L12.7643 15.8186ZM10.8043 16L10.8041 16.5H10.8043V16ZM10.2355 15.8185L9.93043 16.2146L9.93043 16.2146L10.2355 15.8185ZM10 14H10.5V13.5H10V14ZM5 14V13.5H4.5V14H5ZM4.76437 15.8186L4.45931 15.4224L4.45931 15.4224L4.76437 15.8186ZM2.49662 15.9528L2.34468 16.4292H2.34468L2.49662 15.9528ZM2.23563 15.8186L2.54069 15.4224L2.54069 15.4224L2.23563 15.8186ZM2 14H2.5V13.5H2V14ZM2 10V10.5H2.38777L2.48427 10.1244L2 10ZM2.96881 6.22962L2.48454 6.10516L2.48454 6.10519L2.96881 6.22962ZM3.52211 5.34208L3.20319 4.957L3.52211 5.34208ZM4.45357 5L4.45352 5.5H4.45357V5ZM10.5463 5V5.5H10.5463L10.5463 5ZM12.5153 6.10514C12.3995 5.65456 12.1501 5.24974 11.7966 4.95702L11.1588 5.72719C11.3414 5.87844 11.4807 6.09695 11.5468 6.3541L12.5153 6.10514ZM13.4843 9.87555L12.5153 6.10517L11.5468 6.35408L12.5157 10.1245L13.4843 9.87555ZM13.6486 9.5H13V10.5H13.6486V9.5ZM14.5 10.7143C14.5 10.4574 14.4498 10.2001 14.3457 9.98852C14.2575 9.80921 14.0414 9.5 13.6486 9.5V10.5C13.5512 10.5 13.4859 10.458 13.4594 10.4352C13.4362 10.4152 13.4369 10.4065 13.4484 10.4299C13.4715 10.4768 13.5 10.5767 13.5 10.7143H14.5ZM14.5 13.2857V10.7143H13.5V13.2857H14.5ZM13.6486 14.5C14.0414 14.5 14.2575 14.1908 14.3457 14.0115C14.4498 13.7999 14.5 13.5426 14.5 13.2857H13.5C13.5 13.4233 13.4715 13.5232 13.4484 13.5701C13.4369 13.5935 13.4362 13.5848 13.4594 13.5648C13.4859 13.542 13.5512 13.5 13.6486 13.5V14.5ZM13 14.5H13.6486V13.5H13V14.5ZM13.5 15.3805V14H12.5V15.3805H13.5ZM13.0694 16.2147C13.3211 16.0209 13.5 15.7259 13.5 15.3805H12.5C12.5 15.3751 12.5017 15.3746 12.4984 15.3807C12.4948 15.3875 12.4843 15.4032 12.4593 15.4224L13.0694 16.2147ZM12.1954 16.5C12.5052 16.5 12.8206 16.4063 13.0694 16.2147L12.4593 15.4224C12.4063 15.4632 12.3125 15.5 12.1954 15.5V16.5ZM10.8043 16.5H12.1954V15.5H10.8043V16.5ZM9.93043 16.2146C10.1792 16.4062 10.4945 16.4999 10.8041 16.5L10.8044 15.5C10.6874 15.5 10.5936 15.4631 10.5407 15.4224L9.93043 16.2146ZM9.5 15.3805C9.5 15.7258 9.67881 16.0208 9.93043 16.2146L10.5407 15.4224C10.5157 15.4032 10.5052 15.3875 10.5016 15.3807C10.4983 15.3746 10.5 15.3751 10.5 15.3805H9.5ZM9.5 14V15.3805H10.5V14H9.5ZM5 14.5H10V13.5H5V14.5ZM5.5 15.3805V14H4.5V15.3805H5.5ZM5.3791 15.8544C5.45671 15.7102 5.5 15.5486 5.5 15.3805H4.5C4.5 15.3783 4.5003 15.3768 4.50043 15.3763C4.50055 15.3758 4.50024 15.3773 4.49842 15.3807L5.3791 15.8544ZM5.06943 16.2147C5.19406 16.1187 5.30195 15.9978 5.3791 15.8544L4.49842 15.3807C4.49471 15.3876 4.48409 15.4033 4.45931 15.4224L5.06943 16.2147ZM4.65532 16.4292C4.80344 16.382 4.94491 16.3106 5.06943 16.2147L4.45931 15.4224C4.43443 15.4416 4.39852 15.4615 4.35143 15.4765L4.65532 16.4292ZM4.19551 16.5C4.3511 16.5 4.50706 16.4765 4.65532 16.4292L4.35143 15.4765C4.30448 15.4915 4.25122 15.5 4.19551 15.5V16.5ZM2.80449 16.5H4.19551V15.5H2.80449V16.5ZM2.34468 16.4292C2.49294 16.4765 2.6489 16.5 2.80449 16.5V15.5C2.74878 15.5 2.69552 15.4915 2.64857 15.4765L2.34468 16.4292ZM1.93057 16.2147C2.05509 16.3106 2.19656 16.382 2.34468 16.4292L2.64857 15.4765C2.60148 15.4615 2.56557 15.4416 2.54069 15.4224L1.93057 16.2147ZM1.5 15.3805C1.5 15.7259 1.67887 16.0209 1.93057 16.2147L2.54069 15.4224C2.51575 15.4032 2.50522 15.3875 2.50158 15.3807C2.49831 15.3746 2.5 15.3751 2.5 15.3805H1.5ZM1.5 14V15.3805H2.5V14H1.5ZM1.35136 14.5H2V13.5H1.35136V14.5ZM0.5 13.2857C0.5 13.5426 0.550166 13.7999 0.65425 14.0115C0.742454 14.1908 0.95861 14.5 1.35136 14.5V13.5C1.44882 13.5 1.51412 13.542 1.54059 13.5648C1.56385 13.5848 1.56309 13.5935 1.55157 13.5701C1.52849 13.5232 1.5 13.4233 1.5 13.2857H0.5ZM0.5 10.7143V13.2857H1.5V10.7143H0.5ZM1.35136 9.5C0.95861 9.5 0.742454 9.80921 0.65425 9.98852C0.550166 10.2001 0.5 10.4574 0.5 10.7143H1.5C1.5 10.5767 1.52849 10.4768 1.55157 10.4299C1.56309 10.4065 1.56385 10.4152 1.54059 10.4352C1.51412 10.458 1.44882 10.5 1.35136 10.5V9.5ZM2 9.5H1.35136V10.5H2V9.5ZM2.48454 6.10519L1.51573 9.87557L2.48427 10.1244L3.45307 6.35406L2.48454 6.10519ZM3.20319 4.957C2.84972 5.24973 2.60035 5.65457 2.48454 6.10516L3.45307 6.35408C3.51916 6.09693 3.6584 5.87841 3.84102 5.72717L3.20319 4.957ZM4.45362 4.5C3.99651 4.49995 3.55754 4.66354 3.20319 4.957L3.84102 5.72717C4.02278 5.57665 4.23801 5.49998 4.45352 5.5L4.45362 4.5ZM10.5463 4.5H4.45357V5.5H10.5463V4.5ZM11.7966 4.95702C11.4423 4.66357 11.0033 4.49998 10.5462 4.5L10.5463 5.5C10.7618 5.49999 10.977 5.57667 11.1588 5.72719L11.7966 4.95702Z" fill="#CE7A58"/>
<path d="M11.8477 10.7197H10.7323C10.5884 10.7197 10.4505 10.6626 10.3487 10.5609C10.247 10.4591 10.1899 10.3212 10.1899 10.1773V9.90613C10.1899 9.76227 10.247 9.62431 10.3487 9.52258C10.4505 9.42086 10.5884 9.36371 10.7323 9.36371H12.2547C12.3266 9.36371 12.3956 9.39228 12.4465 9.44314C12.4973 9.49399 12.5259 9.56296 12.5259 9.63488V10.0417C12.5259 10.2215 12.4544 10.394 12.3273 10.5211C12.2001 10.6483 12.0277 10.7197 11.8478 10.7197H11.8477Z" fill="#FFEA92"/>
<path d="M11.8477 10.8755H10.7324C10.5471 10.8753 10.3695 10.8016 10.2386 10.6706C10.1076 10.5396 10.0339 10.362 10.0337 10.1768V9.90578C10.0339 9.72053 10.1075 9.54292 10.2385 9.41192C10.3695 9.28092 10.5471 9.20724 10.7324 9.20703H12.2545C12.3678 9.20716 12.4765 9.25223 12.5566 9.33238C12.6368 9.41252 12.6818 9.52119 12.682 9.63453V10.0413C12.6817 10.2625 12.5937 10.4745 12.4373 10.6309C12.2809 10.7873 12.0688 10.8752 11.8477 10.8755ZM10.7324 9.51937C10.63 9.5195 10.5318 9.56024 10.4594 9.63265C10.387 9.70506 10.3463 9.80323 10.3462 9.90562V10.1768C10.3463 10.2792 10.387 10.3773 10.4594 10.4497C10.5318 10.5221 10.63 10.5628 10.7324 10.563H11.8477C11.986 10.5628 12.1187 10.5078 12.2165 10.41C12.3143 10.3122 12.3693 10.1795 12.3695 10.0412V9.63437C12.3694 9.60389 12.3573 9.57466 12.3357 9.5531C12.3142 9.53155 12.285 9.51942 12.2545 9.51937H10.7324Z" fill="#3762CC"/>
<path d="M17.8495 12.2943C17.5223 12.2943 17.5223 12.5838 17.195 12.5838C16.8677 12.5838 16.8677 12.2943 16.5404 12.2943C16.213 12.2943 16.2134 12.5838 15.8863 12.5838C15.5593 12.5838 15.5591 12.2943 15.232 12.2943C14.9048 12.2943 14.9049 12.5838 14.5779 12.5838C14.2509 12.5838 14.2509 12.2943 13.9239 12.2943C13.5969 12.2943 13.597 12.5838 13.27 12.5838C12.943 12.5838 12.943 12.2943 12.6161 12.2943C12.2891 12.2943 12.2891 12.5838 11.9621 12.5838C11.6352 12.5838 11.635 12.2943 11.308 12.2943C10.9809 12.2943 10.9809 12.5838 10.654 12.5838C10.327 12.5838 10.327 12.2943 10 12.2943V1.82078C10 1.74399 10.0305 1.67035 10.0848 1.61605C10.1391 1.56175 10.2127 1.53125 10.2895 1.53125H17.56C17.6368 1.53125 17.7104 1.56175 17.7647 1.61605C17.819 1.67035 17.8495 1.74399 17.8495 1.82078V12.2943Z" fill="white" stroke="#CE7A58"/>
<path d="M14.2555 4.23977V4.5541C14.4956 4.56972 14.7311 4.61306 14.9542 4.68266C15.151 4.74816 15.3251 4.84778 15.4627 4.97364C15.5703 5.06498 15.6595 5.16803 15.7274 5.2794C15.785 5.3693 15.8168 5.46755 15.8208 5.56759C15.8213 5.61466 15.8091 5.66131 15.785 5.70462C15.7608 5.74794 15.7253 5.787 15.6806 5.81936C15.637 5.8538 15.5847 5.88107 15.5268 5.89949C15.469 5.91791 15.4068 5.9271 15.3441 5.92649C15.228 5.92935 15.1146 5.89949 15.0255 5.8426C14.9363 5.78571 14.8776 5.70575 14.8605 5.61794C14.8251 5.50348 14.7502 5.39833 14.6438 5.31338C14.5373 5.22843 14.4031 5.16677 14.2549 5.13477V6.34581C14.5697 6.41181 14.8204 6.47195 15.0072 6.52623C15.1921 6.57984 15.362 6.65982 15.5079 6.76193C15.6646 6.86751 15.7891 6.99816 15.8723 7.14461C15.9588 7.29862 16.0022 7.46472 15.9999 7.63229C16.0013 7.84918 15.9313 8.06286 15.7964 8.25367C15.6563 8.45006 15.4489 8.6136 15.1964 8.72677C14.9093 8.85443 14.5873 8.92912 14.2558 8.9449V9.66977C14.2615 9.75455 14.2466 9.83942 14.2118 9.92004C14.1947 9.94698 14.1669 9.9691 14.1323 9.98322C14.0978 9.99735 14.0583 10.0028 14.0194 9.99867C13.9829 10.0015 13.9459 9.99712 13.9122 9.98586C13.8785 9.9746 13.8492 9.95687 13.8271 9.93439C13.7845 9.87373 13.765 9.80512 13.771 9.73641V8.94983C13.5015 8.93029 13.2382 8.8761 12.9922 8.78955C12.7837 8.71558 12.5951 8.61246 12.4362 8.48551C12.2975 8.37554 12.186 8.24735 12.1068 8.10711C12.0382 7.9852 12.0019 7.85412 12 7.72142C12.0006 7.67429 12.0136 7.62772 12.0382 7.58448C12.0627 7.54124 12.0984 7.5022 12.143 7.46966C12.1889 7.43308 12.2442 7.40422 12.3055 7.38492C12.3669 7.36562 12.4328 7.35632 12.499 7.35759C12.6014 7.35505 12.7023 7.37635 12.7884 7.41866C12.8673 7.45961 12.9253 7.52017 12.9524 7.59008C13.0036 7.71382 13.0633 7.83541 13.1313 7.95433C13.1863 8.04284 13.2647 8.12164 13.3617 8.18574C13.4806 8.26202 13.6205 8.31674 13.771 8.3458V6.99227C13.4772 6.93366 13.1915 6.85321 12.9182 6.75207C12.6926 6.66599 12.5008 6.53599 12.3619 6.37517C12.1929 6.14771 12.1216 5.8854 12.1582 5.6253C12.1947 5.3652 12.3373 5.12045 12.5658 4.92564C12.8963 4.69513 13.3241 4.56291 13.7713 4.55303V4.24448C13.7713 4.08149 13.8513 4 14.0113 4C14.1713 4 14.2527 4.07992 14.2555 4.23977ZM13.7716 6.23654V5.12234C13.5894 5.15894 13.4194 5.22467 13.2728 5.31518C13.1595 5.41243 13.0959 5.5377 13.0938 5.66794C13.0917 5.79818 13.1512 5.92462 13.2613 6.02398C13.4123 6.11883 13.5855 6.19095 13.7716 6.23654ZM14.2555 7.10111V8.3758C14.482 8.34916 14.6907 8.26634 14.8496 8.1401C14.9861 8.02793 15.0611 7.87997 15.059 7.72678C15.0648 7.65409 15.0495 7.58133 15.0142 7.51367C14.979 7.44601 14.9247 7.38511 14.8552 7.33531C14.6784 7.22664 14.4743 7.14693 14.2555 7.10111Z" fill="#CE7A58"/>
</svg>
