<svg width="151" height="169" viewBox="0 0 151 169" fill="none" xmlns="http://www.w3.org/2000/svg">
<g style="mix-blend-mode:multiply" opacity="0.3">
<path d="M151 37.681V69.2698C151 112.817 124.586 151.965 84.0023 168.436C82.4152 169.113 80.7147 169.113 79.1276 168.436C38.6569 151.965 12.1299 112.817 12.1299 69.2698V37.681C12.1299 35.0862 13.717 32.7171 16.0976 31.8145L79.1276 5.75377C80.7147 5.07687 82.5285 5.07687 84.0023 5.75377L147.032 31.8145C149.413 32.8299 151 35.0862 151 37.681Z" fill="#131314"/>
</g>
<path d="M138.757 32.3783V63.967C138.757 107.514 112.343 146.662 71.759 163.133C70.1719 163.81 68.4715 163.81 66.8844 163.133C26.4137 146.775 0 107.627 0 64.0799V32.4911C0 29.8963 1.58709 27.5271 3.96772 26.6246L66.8844 0.451036C68.4715 -0.225866 70.2853 -0.225866 71.759 0.451036L134.789 26.5118C137.283 27.5271 138.757 29.7835 138.757 32.3783Z" fill="#FFC251"/>
</svg>
