<svg width="20" height="19" viewBox="0 0 20 19" fill="none" xmlns="http://www.w3.org/2000/svg">
<path d="M11.1416 11.3619L10.329 11.5191L11.1244 15.6301L11.937 15.4729L11.1416 11.3619Z" fill="#666666"/>
<path d="M12.7278 9.22817L12.6832 10.0546L15.8687 10.2263L15.9132 9.39982L12.7278 9.22817Z" fill="#666666"/>
<circle cx="17.2398" cy="9.96891" r="2.06579" transform="rotate(-154.122 17.2398 9.96891)" fill="#666666"/>
<path d="M11.1875 6.40821L11.8812 6.85956L13.6209 4.18556L12.9271 3.73421L11.1875 6.40821Z" fill="#666666"/>
<circle cx="14.0827" cy="2.86934" r="2.06579" transform="rotate(145.841 14.0827 2.86934)" fill="#666666"/>
<path d="M6.44857 11.092L6.12793 10.329L3.18696 11.5649L3.5076 12.3279L6.44857 11.092Z" fill="#666666"/>
<circle cx="2.06579" cy="12.3948" r="2.06579" fill="#666666"/>
<path d="M6.54983 7.3056L7.13989 6.72522L4.90289 4.4509L4.31283 5.03128L6.54983 7.3056Z" fill="#666666"/>
<circle cx="3.71679" cy="3.71677" r="2.06579" transform="rotate(68.2676 3.71679 3.71677)" fill="#666666"/>
<circle cx="9.29602" cy="9.29608" r="4.13159" fill="white"/>
<circle cx="9.29608" cy="9.29608" r="3.09869" fill="#666666"/>
<circle cx="12.3948" cy="16.5264" r="2.06579" fill="#666666"/>
</svg>
