<svg width="24" height="24" viewBox="0 0 24 24" fill="none" xmlns="http://www.w3.org/2000/svg">
<path d="M20.3299 4H3.67014C2.74653 4 2 4.7381 2 5.64785V17.7321C2 18.6418 2.74653 19.3799 3.67014 19.3799H20.3299C21.2535 19.3799 22 18.6418 22 17.7321V5.64785C22 4.7381 21.2535 4 20.3299 4ZM3.87847 5.64785H20.1215C20.2361 5.64785 20.3299 5.74054 20.3299 5.85383V7.29569H3.67014V5.85383C3.67014 5.74054 3.76389 5.64785 3.87847 5.64785ZM20.1215 17.7321H3.87847C3.76389 17.7321 3.67014 17.6394 3.67014 17.5261V11.6899H20.3299V17.5261C20.3299 17.6394 20.2361 17.7321 20.1215 17.7321ZM8.66667 14.299V15.6722C8.66667 15.8988 8.47917 16.0842 8.25 16.0842H5.75C5.52083 16.0842 5.33333 15.8988 5.33333 15.6722V14.299C5.33333 14.0725 5.52083 13.8871 5.75 13.8871H8.25C8.47917 13.8871 8.66667 14.0725 8.66667 14.299ZM15.3333 14.299V15.6722C15.3333 15.8988 15.1458 16.0842 14.9167 16.0842H10.1944C9.96528 16.0842 9.77778 15.8988 9.77778 15.6722V14.299C9.77778 14.0725 9.96528 13.8871 10.1944 13.8871H14.9167C15.1458 13.8871 15.3333 14.0725 15.3333 14.299Z" fill="#666666"/>
</svg>
