<svg width="123" height="44" viewBox="0 0 123 44" fill="none" xmlns="http://www.w3.org/2000/svg">
<path d="M37.0988 21.9612C37.1022 17.7945 35.9191 13.7129 33.688 10.1938C31.457 6.67474 28.27 3.86361 24.5 2.08919C20.73 0.314776 16.5326 -0.349578 12.3989 0.173824C8.26517 0.697225 4.36589 2.38675 1.15708 5.04481C0.792566 5.34589 0.499624 5.72432 0.299502 6.15266C0.0993803 6.581 -0.00290538 7.04851 6.27984e-05 7.52129C0.0021515 8.14758 0.188449 8.75942 0.535753 9.28059C0.883056 9.80177 1.37602 10.2093 1.95323 10.4523C2.53045 10.6953 3.16641 10.7632 3.78191 10.6474C4.39741 10.5316 4.96525 10.2373 5.41469 9.80113C7.69595 7.97236 10.4463 6.82334 13.3505 6.48576C16.2548 6.14818 19.1954 6.6357 21.8353 7.89245C24.4752 9.1492 26.7076 11.1243 28.2767 13.5914C29.8457 16.0585 30.6879 18.9178 30.7067 21.8415C30.7067 21.8843 30.7067 21.927 30.7067 21.9698C30.7067 22.0125 30.7067 22.0467 30.7067 22.0838C30.6821 26.0534 29.1403 29.8634 26.3973 32.7331C23.6543 35.6027 19.9178 37.3147 15.9533 37.5183C15.9286 37.5169 15.9038 37.5169 15.8792 37.5183C15.8136 37.5183 15.7481 37.5183 15.6825 37.5383L15.5714 37.5554C15.5001 37.5554 15.426 37.581 15.3548 37.5981L15.2722 37.6209C15.1949 37.6403 15.1188 37.6641 15.0442 37.6922L14.9815 37.7149C14.9009 37.744 14.822 37.7773 14.7449 37.8147L14.705 37.8346C14.6224 37.8745 14.5398 37.9201 14.4628 37.9657H14.4429C14.3574 38.0199 14.2747 38.074 14.1978 38.1339C13.7253 38.4888 13.3604 38.9678 13.1439 39.5177C12.9274 40.0676 12.8676 40.6667 12.9713 41.2486C13.075 41.8304 13.338 42.372 13.7311 42.8133C14.1242 43.2545 14.632 43.5781 15.1981 43.748C15.295 43.7765 15.389 43.8021 15.483 43.8221H15.5372C15.6201 43.8388 15.7038 43.8512 15.788 43.8591C15.8564 43.8591 15.9305 43.8591 16.0017 43.8591H16.1014H16.2667C21.8863 43.5705 27.1802 41.1341 31.0545 37.0534C34.9289 32.9728 37.0876 27.5597 37.0845 21.9327L37.0988 21.9612Z" fill="url(#paint0_linear)"/>
<path d="M14.3404 10.3711C11.2329 10.3749 8.25372 11.611 6.05638 13.8084C3.85904 16.0057 2.62291 18.9849 2.61914 22.0924C2.61908 22.2037 2.62478 22.315 2.63624 22.4258C2.66304 22.6684 2.71656 22.9074 2.79583 23.1383C3.20547 21.1083 4.29097 19.277 5.87522 17.9432C7.45947 16.6095 9.44895 15.852 11.5191 15.7943C11.6074 15.7943 11.6929 15.7943 11.7784 15.7943C11.8639 15.7943 11.9494 15.7943 12.0377 15.7943C14.0208 15.8495 15.9318 16.5499 17.4809 17.7892C17.7484 17.9855 17.9973 18.2058 18.2247 18.4475C19.3752 19.5853 20.2031 21.0081 20.6236 22.5706C21.0442 24.1331 21.0424 25.7793 20.6184 27.3409C20.1944 28.9024 19.3633 30.3234 18.2103 31.4587C17.0572 32.5939 15.6234 33.4026 14.0554 33.8022C14.1494 33.8022 14.2463 33.8022 14.3404 33.8022C15.8952 33.8265 17.4393 33.5412 18.8828 32.9629C20.3263 32.3847 21.6404 31.5251 22.7485 30.4341C23.8566 29.3432 24.7366 28.0427 25.3372 26.6084C25.9379 25.174 26.2473 23.6346 26.2473 22.0796C26.2473 20.5245 25.9379 18.9851 25.3372 17.5508C24.7366 16.1164 23.8566 14.816 22.7485 13.725C21.6404 12.634 20.3263 11.7744 18.8828 11.1962C17.4393 10.618 15.8952 10.3327 14.3404 10.3569V10.3711Z" fill="url(#paint1_linear)"/>
<path d="M20.9375 24.9372C20.9378 23.7293 20.698 22.5335 20.2323 21.4191C19.7666 20.3046 19.0841 19.2938 18.2245 18.4453C18.9346 19.1965 19.4106 20.1382 19.5944 21.1554C19.7783 22.1726 19.662 23.2214 19.2597 24.1736C18.8575 25.1258 18.1868 25.9403 17.3294 26.5177C16.472 27.0951 15.465 27.4104 14.4314 27.425H14.3402H14.2519C13.4331 27.4417 12.652 27.7722 12.0698 28.3483C11.4877 28.9244 11.1491 29.702 11.1238 30.5206C11.0986 31.3391 11.3887 32.1362 11.9342 32.747C12.4797 33.3578 13.239 33.7358 14.0553 33.8029C16.0238 33.2987 17.7685 32.1538 19.0146 30.5486C20.2607 28.9434 20.9372 26.9692 20.9375 24.9372Z" fill="#903A38"/>
<path d="M12.0375 15.793C11.9492 15.793 11.8665 15.793 11.7782 15.793C11.6898 15.793 11.6072 15.793 11.5189 15.793C9.4534 15.8527 7.46892 16.6095 5.88821 17.9403C4.3075 19.2711 3.22357 21.0976 2.81271 23.1227C2.73025 22.8973 2.67477 22.6629 2.64742 22.4245C2.64742 22.4587 2.64742 22.4957 2.64742 22.5328C2.64742 22.5698 2.64742 22.6781 2.64742 22.755V40.7088C2.63465 41.1362 2.7078 41.5617 2.86253 41.9603C3.01726 42.3589 3.25042 42.7223 3.5482 43.0292C3.84598 43.336 4.20231 43.5799 4.59609 43.7464C4.98987 43.913 5.41307 43.9988 5.84063 43.9988C6.26818 43.9988 6.69139 43.913 7.08516 43.7464C7.47894 43.5799 7.83527 43.336 8.13305 43.0292C8.43083 42.7223 8.66399 42.3589 8.81872 41.9603C8.97345 41.5617 9.0466 41.1362 9.03383 40.7088V22.755C9.03383 22.6553 9.03383 22.5613 9.03383 22.4701C9.03383 22.3789 9.05093 22.282 9.05378 22.1851C9.05378 22.1566 9.05378 22.1252 9.05378 22.0939C9.05378 22.0625 9.05378 22.034 9.05378 22.0055C9.07225 21.0352 9.35579 20.0884 9.87369 19.2676C10.3916 18.4468 11.1241 17.7833 11.992 17.3489C12.8599 16.9145 13.8301 16.7258 14.7975 16.8032C15.765 16.8805 16.6928 17.221 17.4806 17.7878C15.9316 16.5485 14.0206 15.8482 12.0375 15.793ZM2.91815 23.4361C2.93525 23.476 2.9552 23.5159 2.97515 23.5558C2.9552 23.5074 2.93525 23.4675 2.91815 23.4361ZM3.17748 23.895L3.26013 24.009L3.17748 23.895Z" fill="#903A38"/>
<path d="M41.821 8.13906C41.821 7.91108 41.9293 7.79708 42.1487 7.79708H46.2923C46.7599 7.79175 47.223 7.88903 47.6488 8.08206C48.0516 8.26689 48.4145 8.52822 48.7175 8.85151C49.324 9.50678 49.6608 10.3668 49.6608 11.2596C49.6621 11.6976 49.5799 12.1319 49.4186 12.5392C49.2592 12.9432 49.0263 13.3143 48.7318 13.6335C48.4319 13.9546 48.0729 14.2148 47.6745 14.4001C47.2536 14.593 46.7952 14.6904 46.3322 14.6851H43.9299V18.3072C43.9299 18.5152 43.8216 18.6206 43.6021 18.6206H42.1402C42.0975 18.6261 42.0541 18.6217 42.0133 18.608C41.9725 18.5942 41.9353 18.5714 41.9046 18.5412C41.8739 18.5111 41.8504 18.4743 41.8359 18.4338C41.8215 18.3933 41.8164 18.35 41.821 18.3072V8.13906ZM47.5206 11.251C47.521 11.0486 47.4813 10.8481 47.4038 10.6611C47.3283 10.4729 47.2192 10.3001 47.0817 10.151C46.943 10.0001 46.7766 9.87726 46.5916 9.7891C46.3983 9.69443 46.1855 9.64659 45.9703 9.64946H43.9185V12.8526H45.9703C46.1825 12.8533 46.3924 12.8086 46.5859 12.7215C46.7717 12.6358 46.9391 12.5148 47.0789 12.3653C47.2189 12.2166 47.3292 12.0425 47.4038 11.8524C47.4863 11.6625 47.5299 11.458 47.532 11.251H47.5206Z" fill="#903A38"/>
<path d="M50.7122 18.3587C50.7346 18.2623 50.7622 18.1671 50.7948 18.0737C50.829 17.991 50.8547 17.9169 50.8803 17.8485L54.8102 8.05947C54.8366 7.99175 54.8786 7.93121 54.9327 7.88278C54.9674 7.84849 55.009 7.82189 55.0546 7.80471C55.1003 7.78752 55.1491 7.78014 55.1978 7.78304H56.3719C56.4176 7.77808 56.4639 7.78345 56.5073 7.79874C56.5507 7.81402 56.5901 7.83885 56.6227 7.87139C56.6663 7.91725 56.7045 7.96792 56.7367 8.02243L56.9789 8.59239L60.829 18.2276C60.8263 18.2531 60.8263 18.2789 60.829 18.3045C60.8323 18.3348 60.8323 18.3654 60.829 18.3957C60.829 18.541 60.7207 18.6151 60.5069 18.6151H59.082C58.9945 18.6205 58.9076 18.5976 58.8341 18.5496C58.7675 18.4961 58.7172 18.425 58.6888 18.3444L58.5691 18.0224L58.2841 17.3242C58.1929 17.0905 58.1017 16.854 58.0162 16.6146H53.5135C53.3881 16.9566 53.2656 17.2757 53.1459 17.575C53.0262 17.8742 52.9265 18.1449 52.8438 18.3587C52.8198 18.4395 52.7695 18.5101 52.7008 18.5591C52.6322 18.6082 52.5491 18.6329 52.4648 18.6294H51.0057C50.9283 18.633 50.8514 18.6153 50.7834 18.5781C50.7567 18.5627 50.7347 18.5402 50.7201 18.513C50.7055 18.4858 50.6988 18.455 50.7008 18.4242C50.701 18.4019 50.7048 18.3797 50.7122 18.3587ZM55.7877 10.5758C55.5255 11.2484 55.2662 11.9438 55.004 12.6619C54.7418 13.3801 54.4825 14.0868 54.2203 14.7423H57.3294L55.7877 10.5758Z" fill="#903A38"/>
<path d="M65.081 12.2112H65.0952L67.3067 8.03056C67.3608 7.92227 67.4064 7.86242 67.4463 7.84532C67.4976 7.82346 67.5511 7.80722 67.6059 7.79688H69.6179C69.7119 7.79688 69.7575 7.83677 69.7575 7.91942C69.7461 7.98859 69.7132 8.05241 69.6635 8.1018C69.0745 9.09923 68.4903 10.1052 67.9108 11.1197C67.3314 12.1343 66.7434 13.1393 66.1468 14.1348V18.287C66.1468 18.515 66.0385 18.629 65.8191 18.629H64.3315C64.1263 18.629 64.0237 18.515 64.0237 18.287V14.1491L60.5156 8.1189C60.4882 8.08895 60.4687 8.05274 60.4586 8.01346C60.445 7.9789 60.4373 7.94229 60.4358 7.90517C60.4358 7.83392 60.4814 7.79688 60.5726 7.79688H62.5674C62.5981 7.80574 62.6296 7.81146 62.6615 7.81397C62.6861 7.81644 62.7097 7.82528 62.7299 7.83962C62.7572 7.85886 62.7797 7.88423 62.7954 7.91372C62.8182 7.94791 62.8467 7.99636 62.8809 8.05906L65.081 12.2112Z" fill="#903A38"/>
<path d="M71.7779 8.11915C71.784 8.03141 71.8227 7.9491 71.8862 7.88831C71.9181 7.85808 71.9557 7.83446 71.9968 7.81881C72.0379 7.80316 72.0817 7.79579 72.1256 7.79712H73.9495C74.0308 7.79495 74.11 7.82281 74.172 7.87538C74.2341 7.92796 74.2746 8.00156 74.2858 8.0821L76.8506 15.2608C77.2837 14.0543 77.7179 12.8584 78.1529 11.6729C78.588 10.4873 79.0193 9.29042 79.4468 8.0821C79.4622 8.00352 79.5039 7.93253 79.565 7.88075C79.6261 7.82898 79.703 7.79949 79.783 7.79712H81.6126C81.6564 7.79538 81.7001 7.80286 81.7408 7.81905C81.7816 7.83525 81.8185 7.85982 81.8491 7.89117C81.9098 7.95194 81.9454 8.03333 81.9489 8.11915C82.1275 9.82903 82.3098 11.5285 82.496 13.2174C82.6822 14.9064 82.8656 16.603 83.0461 18.3072V18.33C83.0461 18.5295 82.9406 18.615 82.7269 18.615H81.302C81.2574 18.621 81.2119 18.6171 81.1691 18.6033C81.1262 18.5896 81.0869 18.5664 81.0541 18.5356C81.0213 18.5047 80.9959 18.4669 80.9796 18.4249C80.9633 18.3829 80.9566 18.3378 80.96 18.2929L80.2162 11.3936L77.7853 18.1049C77.7607 18.1754 77.7208 18.2396 77.6685 18.2929C77.6492 18.319 77.6243 18.3404 77.5957 18.3557C77.5672 18.3709 77.5355 18.3797 77.5032 18.3813H76.1894C76.1556 18.3802 76.1225 18.372 76.092 18.3572C76.0616 18.3425 76.0346 18.3216 76.0127 18.2958C75.961 18.2409 75.9213 18.1759 75.8959 18.1049C75.4988 16.9782 75.098 15.8621 74.6933 14.7563C74.2886 13.6506 73.8868 12.5363 73.4878 11.4135L72.7412 18.3072C72.7412 18.5209 72.6272 18.6292 72.4049 18.6292H70.98C70.9371 18.6335 70.8939 18.628 70.8535 18.6131C70.813 18.5983 70.7765 18.5745 70.7466 18.5435C70.7167 18.5125 70.6942 18.4751 70.6809 18.4342C70.6675 18.3933 70.6635 18.3499 70.6694 18.3072L71.7779 8.11915Z" fill="#903A38"/>
<path d="M84.9127 8.14917C84.9127 7.91548 85.021 7.79864 85.2348 7.79864H92.2652C92.3155 7.79331 92.3663 7.8001 92.4134 7.81844C92.4605 7.83679 92.5026 7.86616 92.536 7.90409C92.5918 7.98191 92.6199 8.07625 92.6158 8.17197V9.47433C92.6172 9.56118 92.5845 9.64512 92.5246 9.70801C92.488 9.74567 92.4433 9.77449 92.3939 9.79227C92.3446 9.81005 92.2918 9.81632 92.2396 9.8106H87.0672V12.022H91.0569C91.0981 12.0147 91.1404 12.0165 91.1807 12.0274C91.2211 12.0382 91.2586 12.0578 91.2906 12.0847C91.3228 12.1187 91.3473 12.1592 91.3626 12.2034C91.3778 12.2477 91.3834 12.2946 91.3789 12.3412V13.6635C91.3794 13.7473 91.3535 13.829 91.3049 13.8972C91.2763 13.9308 91.2403 13.9573 91.1997 13.9746C91.1592 13.9919 91.1152 13.9995 91.0712 13.997H87.0672V16.6473H92.4419C92.4901 16.6408 92.5392 16.6451 92.5855 16.6598C92.6318 16.6746 92.6743 16.6995 92.7098 16.7328C92.7642 16.8173 92.7883 16.9178 92.7782 17.0178V18.3515C92.7782 18.5566 92.6699 18.6592 92.4562 18.6592H85.2348C85.1535 18.661 85.074 18.6348 85.0096 18.5851C84.9766 18.5563 84.9507 18.5202 84.9338 18.4796C84.917 18.4391 84.9098 18.3952 84.9127 18.3515V8.14917Z" fill="#903A38"/>
<path d="M94.5279 8.12502C94.5261 8.03966 94.5555 7.95656 94.6106 7.89133C94.6409 7.85954 94.6777 7.83468 94.7185 7.81845C94.7594 7.80222 94.8032 7.795 94.8471 7.79729H96.5256C96.5932 7.7978 96.6596 7.81441 96.7194 7.84574C96.7849 7.88209 96.8414 7.93274 96.8847 7.99393L99.3555 11.5277C100.174 12.698 100.999 13.8759 101.829 15.0614V8.07372C101.84 7.99543 101.878 7.92357 101.937 7.87138C101.997 7.8223 102.071 7.79602 102.148 7.79729H103.556C103.649 7.79505 103.739 7.82645 103.81 7.88563C103.844 7.91364 103.872 7.94937 103.89 7.98995C103.909 8.03053 103.917 8.07484 103.915 8.11932V18.3302C103.915 18.5296 103.801 18.6151 103.57 18.6151H101.986C101.924 18.6093 101.864 18.5883 101.812 18.5541C101.76 18.5198 101.717 18.4732 101.687 18.4185C100.832 17.1798 99.9767 15.9449 99.1218 14.7138C98.2669 13.4826 97.4176 12.2411 96.5741 10.9891V18.3074C96.5808 18.395 96.5532 18.4819 96.4971 18.5496C96.4243 18.6088 96.3313 18.6374 96.2378 18.6294H94.8613C94.8172 18.6336 94.7726 18.6282 94.7308 18.6134C94.6889 18.5986 94.6508 18.5749 94.6191 18.5439C94.5647 18.4809 94.5371 18.399 94.5422 18.3159L94.5279 8.12502Z" fill="#903A38"/>
<path d="M105.577 8.1192C105.574 8.07542 105.581 8.03156 105.598 7.99102C105.614 7.95049 105.64 7.91438 105.673 7.88552C105.706 7.85567 105.743 7.83249 105.784 7.81732C105.825 7.80215 105.869 7.79531 105.913 7.79718H113.587C113.673 7.79653 113.756 7.82463 113.824 7.87697C113.86 7.90652 113.889 7.94341 113.91 7.98518C113.931 8.02695 113.942 8.07264 113.944 8.1192V9.39307C113.945 9.48677 113.913 9.57789 113.852 9.64955C113.82 9.68751 113.779 9.71733 113.733 9.73664C113.687 9.75594 113.637 9.76418 113.587 9.76069H110.82V18.3073C110.82 18.3938 110.788 18.4773 110.729 18.5409C110.697 18.5754 110.658 18.6024 110.615 18.6202C110.572 18.6379 110.525 18.6459 110.478 18.6435H109.053C108.965 18.6429 108.881 18.6094 108.817 18.5495C108.783 18.5189 108.756 18.4814 108.738 18.4397C108.72 18.3979 108.711 18.3528 108.711 18.3073V9.75784H105.933C105.889 9.75928 105.845 9.75169 105.803 9.73552C105.762 9.71935 105.725 9.69494 105.693 9.6638C105.657 9.62636 105.63 9.5814 105.613 9.53214C105.596 9.48288 105.591 9.43052 105.597 9.37882L105.577 8.1192Z" fill="#903A38"/>
<path d="M41.9149 25.6381C41.9117 25.594 41.9177 25.5498 41.9324 25.5081C41.9471 25.4664 41.9703 25.4282 42.0004 25.3959C42.0598 25.3377 42.1395 25.305 42.2226 25.3047H49.1505C49.3757 25.3047 49.4868 25.4215 49.4868 25.6552V26.9234C49.4875 27.0104 49.456 27.0946 49.3985 27.1599C49.369 27.1966 49.331 27.2254 49.2877 27.2438C49.2445 27.2622 49.1973 27.2696 49.1505 27.2654H44.038V30.1835H46.0015H46.7738H47.9622C48.0435 30.1818 48.1229 30.208 48.1873 30.2576C48.2221 30.2894 48.249 30.3289 48.2658 30.373C48.2827 30.417 48.2889 30.4644 48.2842 30.5113V31.7509C48.2846 31.8374 48.2543 31.9213 48.1987 31.9875C48.1713 32.0213 48.1365 32.0484 48.0969 32.0667C48.0574 32.0849 48.0142 32.0939 47.9707 32.0929H44.038V35.8205C44.038 36.0256 43.924 36.1282 43.696 36.1282H42.2084C42.169 36.1284 42.13 36.1203 42.0938 36.1046C42.0577 36.0889 42.0252 36.0658 41.9984 36.0369C41.9716 36.008 41.9511 35.9738 41.9382 35.9365C41.9253 35.8993 41.9203 35.8598 41.9234 35.8205L41.9149 25.6381Z" fill="#903A38"/>
<path d="M51.2082 25.6247C51.2073 25.5811 51.2155 25.5377 51.2323 25.4974C51.2491 25.4572 51.2742 25.4208 51.3058 25.3908C51.3375 25.3608 51.3751 25.3376 51.4162 25.323C51.4573 25.3083 51.501 25.3023 51.5445 25.3055H52.9922C53.0757 25.3046 53.1567 25.3339 53.2202 25.3882C53.2533 25.4177 53.2795 25.4543 53.2967 25.4952C53.314 25.5361 53.3219 25.5803 53.3199 25.6247V34.1371H57.8796C57.9213 34.1365 57.9627 34.1443 58.0014 34.16C58.04 34.1756 58.0752 34.1988 58.1048 34.2283C58.1374 34.2599 58.163 34.2981 58.1797 34.3403C58.1964 34.3826 58.2039 34.4279 58.2016 34.4733V35.807C58.202 35.8923 58.1705 35.9746 58.1133 36.0379C58.0839 36.0705 58.0478 36.0963 58.0075 36.1135C57.9671 36.1307 57.9235 36.139 57.8796 36.1376H51.5246C51.481 36.1433 51.4368 36.1389 51.3953 36.1247C51.3538 36.1104 51.3161 36.0868 51.2852 36.0557C51.2543 36.0245 51.231 35.9866 51.2172 35.945C51.2033 35.9033 51.1993 35.8591 51.2054 35.8156L51.2082 25.6247Z" fill="#903A38"/>
<path d="M58.2841 35.8636C58.3051 35.7668 58.3327 35.6716 58.3668 35.5786L58.4523 35.3535L62.3736 25.5787C62.3976 25.5089 62.4399 25.4469 62.4961 25.3991C62.5314 25.3658 62.5731 25.34 62.6186 25.3233C62.6642 25.3067 62.7127 25.2995 62.7612 25.3022H63.9353C63.9808 25.2979 64.0266 25.3033 64.0699 25.318C64.1131 25.3327 64.1527 25.3565 64.1861 25.3877C64.2282 25.4358 64.2664 25.4873 64.3001 25.5416L64.5423 26.1116L68.3924 35.7468C68.3897 35.7724 68.3897 35.7981 68.3924 35.8237C68.3947 35.8541 68.3947 35.8846 68.3924 35.9149C68.3924 36.0603 68.2869 36.1343 68.0732 36.1343H66.6483C66.5608 36.1397 66.4738 36.1168 66.4004 36.0688C66.3344 36.0147 66.2842 35.9438 66.255 35.8636L66.1211 35.5273C66.0299 35.2937 65.9358 35.06 65.8361 34.8291C65.7364 34.5983 65.6537 34.3589 65.5511 34.1195H61.0912C60.9658 34.4615 60.8433 34.7807 60.7236 35.0799C60.6039 35.3791 60.5041 35.6499 60.4215 35.8636C60.3974 35.9445 60.3471 36.015 60.2785 36.0641C60.2098 36.1131 60.1268 36.1378 60.0425 36.1343H58.5834C58.5059 36.1384 58.4289 36.1207 58.3611 36.0831C58.334 36.0678 58.3117 36.0454 58.2966 36.0182C58.2815 35.991 58.2742 35.9602 58.2756 35.9292C58.2746 35.907 58.2775 35.8848 58.2841 35.8636ZM63.3596 28.0808C63.0974 28.7505 62.8353 29.4487 62.5759 30.1669C62.3166 30.885 62.0544 31.5918 61.7922 32.2444H64.8985L63.3596 28.0808Z" fill="#903A38"/>
<path d="M68.3269 25.6241C68.3252 25.5807 68.3327 25.5374 68.349 25.4971C68.3652 25.4569 68.3897 25.4205 68.421 25.3904C68.4881 25.3325 68.5746 25.302 68.6632 25.3049H76.3377C76.4233 25.3042 76.5066 25.3323 76.5743 25.3847C76.6095 25.4143 76.6384 25.4508 76.6589 25.4919C76.6795 25.5331 76.6915 25.5781 76.694 25.6241V26.9008C76.6951 26.9944 76.6627 27.0853 76.6028 27.1572C76.5695 27.194 76.5284 27.2228 76.4826 27.2416C76.4367 27.2603 76.3872 27.2685 76.3377 27.2655H73.5649V35.8007C73.5649 35.8873 73.5323 35.9707 73.4737 36.0344C73.442 36.0688 73.4031 36.0959 73.3597 36.1136C73.3164 36.1313 73.2697 36.1393 73.2229 36.137H71.778C71.6896 36.1365 71.6049 36.1017 71.5415 36.0401C71.5077 36.0101 71.4808 35.9732 71.4626 35.9319C71.4444 35.8906 71.4354 35.8458 71.4361 35.8007V27.2655H68.6575C68.6131 27.2673 68.5688 27.2601 68.5272 27.2444C68.4856 27.2287 68.4475 27.2049 68.4153 27.1743C68.3801 27.1363 68.3535 27.0912 68.3373 27.0421C68.3211 26.9929 68.3156 26.9408 68.3212 26.8894L68.3269 25.6241Z" fill="#903A38"/>
<path d="M78.4239 25.6381C78.4204 25.5942 78.4259 25.5501 78.4401 25.5084C78.4543 25.4668 78.4769 25.4285 78.5065 25.3959C78.5666 25.3387 78.6459 25.3061 78.7288 25.3047H85.6567C85.8818 25.3047 85.993 25.4215 85.993 25.6552V26.9234C85.9934 27.0099 85.9631 27.0937 85.9075 27.1599C85.8765 27.1955 85.8378 27.2236 85.7944 27.2418C85.7509 27.2601 85.7038 27.2682 85.6567 27.2654H80.5441V30.1835H82.5076H83.2799H84.4683C84.5504 30.1823 84.6306 30.2084 84.6963 30.2576C84.7301 30.2901 84.7561 30.3298 84.7724 30.3737C84.7887 30.4176 84.7948 30.4646 84.7903 30.5113V31.7509C84.7904 31.8369 84.7613 31.9203 84.7077 31.9875C84.68 32.0217 84.6447 32.049 84.6047 32.0673C84.5646 32.0856 84.5209 32.0944 84.4769 32.0929H80.5441V35.8205C80.5441 36.0256 80.4301 36.1282 80.2022 36.1282H78.7146C78.6751 36.1284 78.6361 36.1203 78.6 36.1046C78.5638 36.0889 78.5313 36.0658 78.5045 36.0369C78.4777 36.008 78.4573 35.9738 78.4444 35.9365C78.4315 35.8993 78.4264 35.8598 78.4296 35.8205L78.4239 25.6381Z" fill="#903A38"/>
<path d="M87.2696 30.7322C87.2662 29.7428 87.5279 28.7706 88.0276 27.9166C88.2708 27.5026 88.5637 27.1198 88.8997 26.7767C89.2407 26.4432 89.624 26.1558 90.0396 25.9218C90.4568 25.6753 90.9042 25.4837 91.3705 25.3518C92.3395 25.0859 93.3623 25.0859 94.3314 25.3518C94.7975 25.4843 95.2448 25.6758 95.6623 25.9218C96.0773 26.1567 96.4604 26.444 96.8022 26.7767C97.1399 27.1183 97.4329 27.5013 97.6742 27.9166C97.9196 28.3354 98.1111 28.7836 98.2442 29.2503C98.3786 29.7357 98.4457 30.2372 98.4437 30.7408C98.4463 31.2407 98.3792 31.7385 98.2442 32.2198C98.1105 32.6846 97.919 33.1308 97.6742 33.5478C97.4347 33.9644 97.1415 34.3476 96.8022 34.6878C96.4604 35.0204 96.0773 35.3078 95.6623 35.5427C95.2448 35.7888 94.7976 35.9803 94.3314 36.1127C93.1461 36.4372 91.8868 36.3618 90.7487 35.8981C89.6106 35.4344 88.6572 34.6083 88.0362 33.5478C87.7896 33.1317 87.598 32.6853 87.4662 32.2198C87.3335 31.7352 87.2674 31.2347 87.2696 30.7322ZM89.3784 30.7322C89.3749 31.205 89.465 31.6738 89.6435 32.1115C89.9829 32.949 90.638 33.6194 91.4673 33.9782C91.8983 34.1679 92.3644 34.265 92.8353 34.2631C93.3034 34.265 93.7666 34.1678 94.1946 33.9782C94.6058 33.7995 94.9791 33.5442 95.2946 33.2258C95.6087 32.9054 95.8575 32.5269 96.027 32.1115C96.3799 31.2288 96.3799 30.2442 96.027 29.3615C95.6869 28.5195 95.0285 27.8457 94.1946 27.4863C93.7666 27.2966 93.3034 27.1995 92.8353 27.2013C92.3644 27.1995 91.8983 27.2966 91.4673 27.4863C91.0567 27.664 90.6849 27.9206 90.373 28.2415C89.7294 28.9103 89.3725 29.8041 89.3784 30.7322Z" fill="#903A38"/>
<path d="M100.327 25.6467C100.327 25.4187 100.433 25.3047 100.647 25.3047H105.121C105.594 25.3034 106.063 25.4004 106.497 25.5897C106.915 25.7673 107.295 26.0226 107.617 26.342C107.944 26.6667 108.203 27.0531 108.379 27.4787C108.555 27.9044 108.645 28.3607 108.643 28.8214C108.645 29.1476 108.598 29.4723 108.503 29.7846C108.415 30.0858 108.285 30.3734 108.119 30.6395C107.952 30.9013 107.753 31.1407 107.526 31.352C107.298 31.5631 107.043 31.7432 106.768 31.8877L108.666 35.6295C108.675 35.6799 108.692 35.7288 108.714 35.7749C108.739 35.8223 108.752 35.8752 108.751 35.9288C108.751 36.0741 108.666 36.1482 108.498 36.1482H106.805C106.724 36.1514 106.645 36.1261 106.58 36.0766C106.516 36.0271 106.472 35.9566 106.454 35.8775L104.69 32.3751H104.437H102.456V35.8262C102.456 36.0342 102.345 36.1397 102.123 36.1397H100.647C100.562 36.1436 100.479 36.1162 100.413 36.0627C100.383 36.0316 100.359 35.9945 100.345 35.9537C100.33 35.9129 100.324 35.8694 100.327 35.8262V25.6467ZM106.474 28.8242C106.476 28.6162 106.436 28.4099 106.358 28.2172C106.205 27.8215 105.909 27.4979 105.528 27.311C105.33 27.213 105.114 27.1558 104.893 27.1428H104.391H102.448V30.5255H104.648C104.743 30.5314 104.838 30.5314 104.933 30.5255C105.151 30.5131 105.365 30.4589 105.562 30.3659C105.75 30.2785 105.918 30.1534 106.055 29.9983C106.192 29.844 106.3 29.6664 106.375 29.474C106.449 29.2656 106.482 29.0451 106.474 28.8242Z" fill="#903A38"/>
<path d="M111.085 25.6242C111.092 25.5375 111.131 25.4563 111.194 25.3962C111.226 25.3654 111.264 25.3414 111.305 25.3257C111.347 25.31 111.391 25.303 111.436 25.305H113.26C113.341 25.3036 113.419 25.3317 113.481 25.3843C113.542 25.4368 113.582 25.51 113.593 25.59L116.158 32.7687C116.591 31.5603 117.013 30.3663 117.46 29.1779C117.908 27.9895 118.315 26.7955 118.754 25.59C118.77 25.5114 118.811 25.4404 118.872 25.3887C118.934 25.3369 119.01 25.3074 119.09 25.305H120.92C120.964 25.3033 121.008 25.3108 121.048 25.327C121.089 25.3432 121.126 25.3677 121.157 25.3991C121.217 25.4591 121.252 25.5394 121.256 25.6242C121.435 27.3341 121.617 29.0335 121.803 30.7225C121.99 32.4115 122.174 34.109 122.356 35.8151V35.8379C122.356 36.0374 122.251 36.1371 122.037 36.1371H120.612C120.568 36.1432 120.522 36.1392 120.479 36.1255C120.436 36.1118 120.397 36.0886 120.364 36.0577C120.332 36.0269 120.306 35.9891 120.29 35.9471C120.274 35.9051 120.267 35.86 120.27 35.8151L119.526 28.9157L117.096 35.627C117.07 35.6962 117.031 35.76 116.982 35.8151C116.961 35.8409 116.936 35.8621 116.907 35.8774C116.878 35.8926 116.846 35.9015 116.813 35.9035H115.5C115.466 35.9023 115.433 35.8941 115.402 35.8794C115.372 35.8647 115.345 35.8437 115.323 35.818C115.271 35.7636 115.232 35.6984 115.209 35.627C114.81 34.5004 114.408 33.3842 114.004 32.2785C113.599 31.1728 113.203 30.0538 112.815 28.9214L112.071 35.8151C112.071 36.0288 111.96 36.1371 111.735 36.1371H110.31C110.266 36.1433 110.222 36.1392 110.18 36.1252C110.138 36.1112 110.1 36.0877 110.069 36.0565C110.038 36.0252 110.014 35.9872 110 35.9453C109.986 35.9034 109.982 35.8588 109.988 35.8151L111.085 25.6242Z" fill="#903A38"/>
<defs>
<linearGradient id="paint0_linear" x1="-13.2487" y1="36.3983" x2="34.7648" y2="12.0126" gradientUnits="userSpaceOnUse">
<stop stop-color="#903A38"/>
<stop offset="1" stop-color="#CE7A57"/>
</linearGradient>
<linearGradient id="paint1_linear" x1="26.7826" y1="15.6604" x2="2.12897" y2="28.4104" gradientUnits="userSpaceOnUse">
<stop stop-color="#CE7A57"/>
<stop offset="1" stop-color="#903A38"/>
</linearGradient>
</defs>
</svg>
