<svg width="36" height="36" viewBox="0 0 36 36" fill="none" xmlns="http://www.w3.org/2000/svg">
<path d="M13.5 2.8125C13.1662 2.8125 12.84 2.91147 12.5625 3.09689C12.285 3.28232 12.0687 3.54587 11.941 3.85422C11.8132 4.16257 11.7798 4.50187 11.8449 4.82921C11.91 5.15656 12.0708 5.45724 12.3068 5.69324C12.5428 5.92924 12.8434 6.08996 13.1708 6.15507C13.4981 6.22018 13.8374 6.18677 14.1458 6.05904C14.4541 5.93132 14.7177 5.71503 14.9031 5.43752C15.0885 5.16001 15.1875 4.83375 15.1875 4.5C15.1875 4.05245 15.0097 3.62322 14.6932 3.30676C14.3768 2.99029 13.9476 2.8125 13.5 2.8125ZM13.5 5.0625C13.3887 5.0625 13.28 5.02951 13.1875 4.9677C13.095 4.90589 13.0229 4.81804 12.9803 4.71526C12.9377 4.61247 12.9266 4.49937 12.9483 4.39026C12.97 4.28115 13.0236 4.18092 13.1023 4.10225C13.1809 4.02358 13.2811 3.97001 13.3903 3.94831C13.4994 3.9266 13.6125 3.93774 13.7153 3.98032C13.818 4.02289 13.9059 4.09499 13.9677 4.18749C14.0295 4.27999 14.0625 4.38875 14.0625 4.5C14.0625 4.64918 14.0032 4.79226 13.8977 4.89775C13.7923 5.00323 13.6492 5.0625 13.5 5.0625Z" fill="#67A99F"/>
<path d="M6.1875 18.5625H8.4375V19.6875H6.1875V18.5625Z" fill="#67A99F"/>
<path d="M9.5625 18.5625H18V19.6875H9.5625V18.5625Z" fill="#67A99F"/>
<path d="M6.1875 21.9375H8.4375V23.0625H6.1875V21.9375Z" fill="#67A99F"/>
<path d="M6.1875 25.3125H8.4375V26.4375H6.1875V25.3125Z" fill="#67A99F"/>
<path d="M6.1875 28.6875H8.4375V29.8125H6.1875V28.6875Z" fill="#67A99F"/>
<path d="M34.3125 19.6875H33.75C31.9251 19.6829 30.1501 19.0913 28.6875 18L27.3375 16.9875C27.2405 16.9136 27.1219 16.8736 27 16.8736C26.8781 16.8736 26.7595 16.9136 26.6625 16.9875L25.875 17.5781V6.1875C25.8737 5.74035 25.6954 5.31191 25.3793 4.99573C25.0631 4.67955 24.6346 4.50133 24.1875 4.5H19.5863C19.4695 4.1722 19.2546 3.88834 18.9707 3.68705C18.6869 3.48575 18.348 3.37679 18 3.375H16.6838C16.4518 2.71576 16.021 2.14477 15.4507 1.74084C14.8804 1.33692 14.1988 1.11998 13.5 1.11998C12.8012 1.11998 12.1196 1.33692 11.5493 1.74084C10.979 2.14477 10.5482 2.71576 10.3162 3.375H9C8.65204 3.37679 8.31308 3.48575 8.02925 3.68705C7.74542 3.88834 7.5305 4.1722 7.41375 4.5H2.8125C2.36536 4.50133 1.93691 4.67955 1.62073 4.99573C1.30455 5.31191 1.12634 5.74035 1.125 6.1875V33.1875C1.12634 33.6346 1.30455 34.0631 1.62073 34.3793C1.93691 34.6954 2.36536 34.8737 2.8125 34.875H24.1875C24.4423 34.8733 24.6934 34.8143 24.9222 34.7024C25.1511 34.5904 25.3518 34.4283 25.5094 34.2281L26.7581 34.8187C26.8334 34.8557 26.9161 34.875 27 34.875C27.0839 34.875 27.1666 34.8557 27.2419 34.8187L32.1806 32.4731C32.9952 32.0447 33.6769 31.4015 34.1519 30.6132C34.6269 29.8249 34.8769 28.9216 34.875 28.0012V20.25C34.875 20.1008 34.8157 19.9577 34.7102 19.8522C34.6048 19.7468 34.4617 19.6875 34.3125 19.6875ZM19.6875 5.625H24.1875C24.3367 5.625 24.4798 5.68426 24.5852 5.78975C24.6907 5.89524 24.75 6.03831 24.75 6.1875V18.3881C24.3901 18.6126 24.0141 18.81 23.625 18.9787V7.3125C23.625 7.16331 23.5657 7.02024 23.4602 6.91475C23.3548 6.80926 23.2117 6.75 23.0625 6.75H19.6875V5.625ZM8.4375 5.0625C8.4375 4.91331 8.49676 4.77024 8.60225 4.66475C8.70774 4.55926 8.85082 4.5 9 4.5H10.7438C10.8738 4.50132 11.0001 4.45701 11.1008 4.37479C11.2016 4.29257 11.2703 4.17764 11.295 4.05C11.3983 3.54137 11.6742 3.08408 12.0761 2.75563C12.4779 2.42717 12.981 2.24774 13.5 2.24774C14.019 2.24774 14.5221 2.42717 14.9239 2.75563C15.3258 3.08408 15.6017 3.54137 15.705 4.05C15.7297 4.17764 15.7984 4.29257 15.8992 4.37479C15.9999 4.45701 16.1262 4.50132 16.2562 4.5H18C18.1492 4.5 18.2923 4.55926 18.3977 4.66475C18.5032 4.77024 18.5625 4.91331 18.5625 5.0625V7.3125H8.4375V5.0625ZM7.875 8.4375H19.125C19.2742 8.4375 19.4173 8.37823 19.5227 8.27274C19.6282 8.16725 19.6875 8.02418 19.6875 7.875H22.5V19.3725C21.7676 19.5782 21.0108 19.6842 20.25 19.6875H19.6875C19.5383 19.6875 19.3952 19.7468 19.2898 19.8522C19.1843 19.9577 19.125 20.1008 19.125 20.25V21.9375H9.5625V23.0625H19.125V25.3125H9.5625V26.4375H19.125V28.0012C19.1258 28.2307 19.1408 28.4599 19.17 28.6875H9.5625V29.8125H19.4681C19.7108 30.4407 20.076 31.0143 20.5425 31.5H4.5V7.875H7.3125C7.3125 8.02418 7.37176 8.16725 7.47725 8.27274C7.58274 8.37823 7.72582 8.4375 7.875 8.4375ZM24.1875 33.75H2.8125C2.66332 33.75 2.52024 33.6907 2.41475 33.5852C2.30926 33.4797 2.25 33.3367 2.25 33.1875V6.1875C2.25 6.03831 2.30926 5.89524 2.41475 5.78975C2.52024 5.68426 2.66332 5.625 2.8125 5.625H7.3125V6.75H3.9375C3.78832 6.75 3.64524 6.80926 3.53975 6.91475C3.43426 7.02024 3.375 7.16331 3.375 7.3125V32.0625C3.375 32.2117 3.43426 32.3547 3.53975 32.4602C3.64524 32.5657 3.78832 32.625 3.9375 32.625H22.14L24.4013 33.6994C24.334 33.73 24.2614 33.7472 24.1875 33.75ZM33.75 28.0012C33.7521 28.713 33.5599 29.4118 33.1941 30.0224C32.8283 30.633 32.3029 31.1322 31.6744 31.4662L27 33.6881L22.3369 31.4719C21.7063 31.1378 21.1788 30.6382 20.811 30.0266C20.4433 29.4151 20.2493 28.7148 20.25 28.0012V20.8125C22.3184 20.8085 24.3304 20.1378 25.9875 18.9L27 18.1406L28.0125 18.9C29.6696 20.1378 31.6816 20.8085 33.75 20.8125V28.0012Z" fill="#67A99F"/>
<path d="M16.875 11.8125H15.1875V10.125C15.1875 9.97582 15.1282 9.83274 15.0227 9.72725C14.9173 9.62176 14.7742 9.5625 14.625 9.5625H12.375C12.2258 9.5625 12.0827 9.62176 11.9773 9.72725C11.8718 9.83274 11.8125 9.97582 11.8125 10.125V11.8125H10.125C9.97582 11.8125 9.83274 11.8718 9.72725 11.9773C9.62176 12.0827 9.5625 12.2258 9.5625 12.375V14.625C9.5625 14.7742 9.62176 14.9173 9.72725 15.0227C9.83274 15.1282 9.97582 15.1875 10.125 15.1875H11.8125V16.875C11.8125 17.0242 11.8718 17.1673 11.9773 17.2727C12.0827 17.3782 12.2258 17.4375 12.375 17.4375H14.625C14.7742 17.4375 14.9173 17.3782 15.0227 17.2727C15.1282 17.1673 15.1875 17.0242 15.1875 16.875V15.1875H16.875C17.0242 15.1875 17.1673 15.1282 17.2727 15.0227C17.3782 14.9173 17.4375 14.7742 17.4375 14.625V12.375C17.4375 12.2258 17.3782 12.0827 17.2727 11.9773C17.1673 11.8718 17.0242 11.8125 16.875 11.8125ZM16.3125 14.0625H14.625C14.4758 14.0625 14.3327 14.1218 14.2273 14.2273C14.1218 14.3327 14.0625 14.4758 14.0625 14.625V16.3125H12.9375V14.625C12.9375 14.4758 12.8782 14.3327 12.7727 14.2273C12.6673 14.1218 12.5242 14.0625 12.375 14.0625H10.6875V12.9375H12.375C12.5242 12.9375 12.6673 12.8782 12.7727 12.7727C12.8782 12.6673 12.9375 12.5242 12.9375 12.375V10.6875H14.0625V12.375C14.0625 12.5242 14.1218 12.6673 14.2273 12.7727C14.3327 12.8782 14.4758 12.9375 14.625 12.9375H16.3125V14.0625Z" fill="#67A99F"/>
<path d="M32.1469 21.8137C30.4024 21.5489 28.7503 20.8571 27.3375 19.8C27.2405 19.7261 27.1219 19.6861 27 19.6861C26.8781 19.6861 26.7595 19.7261 26.6625 19.8C25.2497 20.8571 23.5976 21.5489 21.8531 21.8137C21.7203 21.8348 21.5994 21.9024 21.5118 22.0044C21.4242 22.1064 21.3757 22.2362 21.375 22.3706V28.0012C21.3752 28.5033 21.5099 28.9961 21.7651 29.4284C22.0204 29.8607 22.3868 30.2167 22.8263 30.4594L22.86 30.4762L26.7581 32.3269C26.8334 32.3639 26.9161 32.3831 27 32.3831C27.0839 32.3831 27.1666 32.3639 27.2419 32.3269L31.1737 30.4594C31.6128 30.2161 31.9788 29.86 32.2339 29.4278C32.4891 28.9956 32.6241 28.5031 32.625 28.0012V22.3706C32.6243 22.2362 32.5758 22.1064 32.4882 22.0044C32.4006 21.9024 32.2797 21.8348 32.1469 21.8137ZM31.5 28.0012C31.5016 28.2972 31.4242 28.5882 31.2759 28.8442C31.1276 29.1003 30.9137 29.3122 30.6562 29.4581L27 31.1962L23.355 29.4694C23.0954 29.3221 22.8795 29.1087 22.7293 28.8508C22.5791 28.5928 22.5 28.2997 22.5 28.0012V22.8431C24.1156 22.5281 25.648 21.8807 27 20.9419C28.352 21.8807 29.8844 22.5281 31.5 22.8431V28.0012Z" fill="#67A99F"/>
<path d="M24.5852 26.6023L23.7898 27.3977L25.4773 29.0852C25.5828 29.1906 25.7258 29.2499 25.875 29.2499C26.0241 29.2499 26.1672 29.1906 26.2727 29.0852L30.7727 24.5852L29.9773 23.7898L25.875 27.8921L24.5852 26.6023Z" fill="#67A99F"/>
</svg>
