<?xml version="1.0" encoding="utf-8"?>
<!-- Generator: Adobe Illustrator 19.0.0, SVG Export Plug-In . SVG Version: 6.00 Build 0)  -->
<svg version="1.1" baseProfile="basic" id="Layer_1"
	 xmlns="http://www.w3.org/2000/svg" xmlns:xlink="http://www.w3.org/1999/xlink" x="0px" y="0px"
	 viewBox="-185.6 349.9 101.1 94.2" xml:space="preserve">
<style type="text/css">
	.st0{fill:#CE7A58;}
</style>
<g>
	<path class="st0" d="M-175.7,444.1c-3.2,0-6-1.5-7.9-4c-1.9-2.6-2.4-5.7-1.4-8.8c3.2-9.8,11-17.9,21.1-21.7l2.5-0.9l-1.9-1.8
		c-3.7-3.4-5.7-8.1-5.7-13.1c0-9.8,8-17.8,17.8-17.8c3.6,0,7.1,1.1,10,3.1c2.9,2,5.1,4.8,6.4,8l0.8,1.9l1.7-1.2
		c2-1.4,4.1-2.7,6.4-3.7c0.5-0.2,1-0.4,1.5-0.6l2.4-0.9l-1.9-1.8c-3.7-3.4-5.8-8.1-5.8-13.1c0-9.8,8-17.8,17.8-17.8
		s17.8,8,17.8,17.8c0,5-2.1,9.8-5.8,13.1l-1.9,1.8l2.4,0.9c2.6,1,5,2.3,7.2,3.9c0.5,0.3,0.8,0.8,0.9,1.4c0.1,0.6,0,1.2-0.4,1.6
		c-0.4,0.6-1.1,0.9-1.8,0.9c-0.4,0-0.9-0.1-1.2-0.4c-5.1-3.5-11-5.4-17.3-5.4c-7.9,0-15.4,3-21.1,8.5l-0.4,0.4v0.6
		c-0.4,4.5-2.4,8.6-5.8,11.7l-1.9,1.8l2.4,0.9c2.5,1,5,2.3,7.2,3.9c0.5,0.3,0.8,0.8,0.9,1.4c0.1,0.6,0,1.2-0.4,1.6
		c-0.4,0.6-1.1,0.9-1.8,0.9c-0.4,0-0.9-0.1-1.2-0.4c-5.1-3.5-11-5.4-17.3-5.4c-13.3,0-25.4,8.6-29.4,20.9c-0.5,1.7-0.3,3.4,0.8,4.9
		c1,1.4,2.6,2.2,4.4,2.2h33c1.2,0,2.2,1,2.2,2.2s-1,2.2-2.2,2.2h-33.1V444.1z M-151.4,380.5c-7.4,0-13.4,6-13.4,13.4
		s6,13.4,13.4,13.4c7.4,0,13.4-6,13.4-13.4S-144,380.5-151.4,380.5z M-112.1,354.5c-7.4,0-13.4,6-13.4,13.4s6,13.4,13.4,13.4
		s13.4-6,13.4-13.4S-104.7,354.5-112.1,354.5z"/>
	<path class="st0" d="M-124.7,444.1l1.3-6.5h-3.1v-2.5h3.6l1.7-8.2h-4.5v-2.5h4.9l1.3-6.2h2.9l-1.3,6.2h5.5l1.3-6.2h2.8l-1.3,6.2
		h3.1v2.5h-3.6l-1.7,8.2h4.5v2.5h-4.9l-1.3,6.5h-2.8l1.3-6.5h-5.5l-1.3,6.5H-124.7z M-120,435h5.5l1.7-8.2h-5.5L-120,435z"/>
	<path class="st0" d="M-100.4,444.1v-3.2h6.2v-18.4l-4.8,2.9l-1.6-2.8l7.6-4.5h2.8v22.8h5.8v3.2H-100.4z"/>
</g>
</svg>
