<?xml version="1.0" encoding="utf-8"?>
<!-- Generator: Adobe Illustrator 19.0.0, SVG Export Plug-In . SVG Version: 6.00 Build 0)  -->
<svg version="1.1" baseProfile="basic" id="Layer_1"
	 xmlns="http://www.w3.org/2000/svg" xmlns:xlink="http://www.w3.org/1999/xlink" x="0px" y="0px" viewBox="-182 350 94 94"
	 xml:space="preserve">
<style type="text/css">
	.st0{fill:#CE7A58;}
</style>
<path class="st0" d="M-104.4,444c-1.2,0-2.2-1-2.2-2.2v-12.1h-12.1c-1.2,0-2.2-1-2.2-2.2c0-1.2,1-2.2,2.2-2.2h12.1v-12.1
	c0-1.2,1-2.2,2.2-2.2c1.2,0,2.2,1,2.2,2.2v12.1h12.1c1.2,0,2.2,1,2.2,2.2s-1,2.2-2.2,2.2h-12.1v12.1C-102.2,443-103.2,444-104.4,444
	z M-172.2,444c-3.2,0-6-1.5-7.9-4c-1.9-2.6-2.4-5.7-1.4-8.8c3.2-9.8,11-17.9,21.1-21.7l2.5-0.9l-1.9-1.8c-3.7-3.4-5.7-8.1-5.7-13.1
	c0-9.8,8-17.8,17.8-17.8c3.6,0,7.1,1.1,10,3.1c2.9,2,5.1,4.8,6.4,8l0.8,1.9l1.7-1.2c2-1.4,4.1-2.7,6.4-3.7c0.5-0.2,1-0.4,1.5-0.6
	l2.4-0.9l-1.9-1.8c-3.7-3.4-5.8-8.1-5.8-13.1c0-9.8,8-17.8,17.8-17.8c9.8,0,17.8,8,17.8,17.8c0,5-2.1,9.8-5.8,13.1l-1.9,1.8l2.4,0.9
	c2.6,1,5,2.3,7.2,3.9c0.5,0.3,0.8,0.8,0.9,1.4c0.1,0.6,0,1.2-0.4,1.6c-0.4,0.6-1.1,0.9-1.8,0.9c-0.4,0-0.9-0.1-1.2-0.4
	c-5.1-3.5-11-5.4-17.3-5.4c-7.9,0-15.4,3-21.1,8.5l-0.4,0.4l0,0.6c-0.4,4.5-2.4,8.6-5.8,11.7l-1.9,1.8l2.4,0.9c2.5,1,5,2.3,7.2,3.9
	c0.5,0.3,0.8,0.8,0.9,1.4c0.1,0.6,0,1.2-0.4,1.6c-0.4,0.6-1.1,0.9-1.8,0.9c-0.4,0-0.9-0.1-1.2-0.4c-5.1-3.5-11-5.4-17.3-5.4
	c-13.3,0-25.4,8.6-29.4,20.9c-0.5,1.7-0.3,3.4,0.8,4.9c1,1.4,2.6,2.2,4.4,2.2h33c1.2,0,2.2,1,2.2,2.2c0,1.2-1,2.2-2.2,2.2H-172.2z
	 M-147.9,380.4c-7.4,0-13.4,6-13.4,13.4c0,7.4,6,13.4,13.4,13.4c7.4,0,13.4-6,13.4-13.4C-134.5,386.4-140.5,380.4-147.9,380.4z
	 M-108.6,354.4c-7.4,0-13.4,6-13.4,13.4c0,7.4,6,13.4,13.4,13.4c7.4,0,13.4-6,13.4-13.4C-95.2,360.4-101.2,354.4-108.6,354.4z"/>
</svg>
