<?xml version="1.0" encoding="utf-8"?>
<!-- Generator: Adobe Illustrator 19.0.0, SVG Export Plug-In . SVG Version: 6.00 Build 0)  -->
<svg version="1.1" baseProfile="basic" id="Layer_1"
	 xmlns="http://www.w3.org/2000/svg" xmlns:xlink="http://www.w3.org/1999/xlink" x="0px" y="0px"
	 viewBox="-188.5 349.5 106.9 94.5" xml:space="preserve">
<style type="text/css">
	.st0{fill:#CE7A58;}
	.st1{fill:none;stroke:#CE7A58;}
</style>
<g>
	<path class="st0" d="M-136.7,395.9c10.7,0,19.4-11.4,19.4-25.4V356c0-0.3-0.1-0.5-0.3-0.7c-0.2-0.2-0.4-0.4-0.6-0.4l-18.1-4.8
		c-0.2-0.1-0.4-0.1-0.6,0l-18.1,4.8c-0.3,0.1-0.5,0.2-0.6,0.4c-0.2,0.2-0.3,0.5-0.3,0.7v14.5C-156.1,384.5-147.4,395.9-136.7,395.9z
		 M-153.7,357l16.9-4.5l16.9,4.5v13.6c0,12.7-7.6,23-16.9,23c-9.3,0-16.9-10.3-16.9-23V357z"/>
	<path class="st1" d="M-136.7,395.9c10.7,0,19.4-11.4,19.4-25.4V356c0-0.3-0.1-0.5-0.3-0.7c-0.2-0.2-0.4-0.4-0.6-0.4l-18.1-4.8
		c-0.2-0.1-0.4-0.1-0.6,0l-18.1,4.8c-0.3,0.1-0.5,0.2-0.6,0.4c-0.2,0.2-0.3,0.5-0.3,0.7v14.5C-156.1,384.5-147.4,395.9-136.7,395.9z
		 M-153.7,357l16.9-4.5l16.9,4.5v13.6c0,12.7-7.6,23-16.9,23c-9.3,0-16.9-10.3-16.9-23V357z"/>
	<path class="st0" d="M-141.6,377.8v3.6c0,0.6,0.3,1.3,0.7,1.7c0.5,0.5,1.1,0.7,1.7,0.7h4.8c0.6,0,1.3-0.3,1.7-0.7
		c0.5-0.5,0.7-1.1,0.7-1.7v-3.6h3.6c0.6,0,1.3-0.3,1.7-0.7c0.5-0.5,0.7-1.1,0.7-1.7v-4.8c0-0.6-0.3-1.3-0.7-1.7
		c-0.5-0.5-1.1-0.7-1.7-0.7h-3.6v-3.6c0-0.6-0.3-1.3-0.7-1.7c-0.5-0.5-1.1-0.7-1.7-0.7h-4.8c-0.6,0-1.3,0.3-1.7,0.7
		c-0.5,0.5-0.7,1.1-0.7,1.7v3.6h-3.6c-0.6,0-1.3,0.3-1.7,0.7c-0.5,0.5-0.7,1.1-0.7,1.7v4.8c0,0.6,0.3,1.3,0.7,1.7
		c0.5,0.5,1.1,0.7,1.7,0.7H-141.6z M-145.2,370.5h3.6c0.6,0,1.3-0.3,1.7-0.7c0.5-0.5,0.7-1.1,0.7-1.7v-3.6h4.8v3.6
		c0,0.6,0.3,1.3,0.7,1.7c0.5,0.5,1.1,0.7,1.7,0.7h3.6v4.8h-3.6c-0.6,0-1.3,0.3-1.7,0.7c-0.5,0.5-0.7,1.1-0.7,1.7v3.6h-4.8v-3.6
		c0-0.6-0.3-1.3-0.7-1.7c-0.5-0.5-1.1-0.7-1.7-0.7h-3.6V370.5z"/>
	<path class="st1" d="M-141.6,377.8v3.6c0,0.6,0.3,1.3,0.7,1.7c0.5,0.5,1.1,0.7,1.7,0.7h4.8c0.6,0,1.3-0.3,1.7-0.7
		c0.5-0.5,0.7-1.1,0.7-1.7v-3.6h3.6c0.6,0,1.3-0.3,1.7-0.7c0.5-0.5,0.7-1.1,0.7-1.7v-4.8c0-0.6-0.3-1.3-0.7-1.7
		c-0.5-0.5-1.1-0.7-1.7-0.7h-3.6v-3.6c0-0.6-0.3-1.3-0.7-1.7c-0.5-0.5-1.1-0.7-1.7-0.7h-4.8c-0.6,0-1.3,0.3-1.7,0.7
		c-0.5,0.5-0.7,1.1-0.7,1.7v3.6h-3.6c-0.6,0-1.3,0.3-1.7,0.7c-0.5,0.5-0.7,1.1-0.7,1.7v4.8c0,0.6,0.3,1.3,0.7,1.7
		c0.5,0.5,1.1,0.7,1.7,0.7H-141.6z M-145.2,370.5h3.6c0.6,0,1.3-0.3,1.7-0.7c0.5-0.5,0.7-1.1,0.7-1.7v-3.6h4.8v3.6
		c0,0.6,0.3,1.3,0.7,1.7c0.5,0.5,1.1,0.7,1.7,0.7h3.6v4.8h-3.6c-0.6,0-1.3,0.3-1.7,0.7c-0.5,0.5-0.7,1.1-0.7,1.7v3.6h-4.8v-3.6
		c0-0.6-0.3-1.3-0.7-1.7c-0.5-0.5-1.1-0.7-1.7-0.7h-3.6V370.5z"/>
	<path class="st0" d="M-112.5,357.2h2.4v-2.4h2.4v-2.4h-2.4V350h-2.4v2.4h-2.4v2.4h2.4V357.2z"/>
	<path class="st1" d="M-112.5,357.2h2.4v-2.4h2.4v-2.4h-2.4V350h-2.4v2.4h-2.4v2.4h2.4V357.2z"/>
	<path class="st0" d="M-100.4,359.7h-2.4v-2.4h-2.4v2.4h-2.4v2.4h2.4v2.4h2.4v-2.4h2.4V359.7z"/>
	<path class="st1" d="M-100.4,359.7h-2.4v-2.4h-2.4v2.4h-2.4v2.4h2.4v2.4h2.4v-2.4h2.4V359.7z"/>
	<path class="st0" d="M-117.4,387.5v2.4h-2.4v2.4h2.4v2.4h2.4v-2.4h2.4v-2.4h-2.4v-2.4H-117.4z"/>
	<path class="st1" d="M-117.4,387.5v2.4h-2.4v2.4h2.4v2.4h2.4v-2.4h2.4v-2.4h-2.4v-2.4H-117.4z"/>
	<path class="st0" d="M-107.7,380.2h-2.4v2.4h-2.4v2.4h2.4v2.4h2.4V385h2.4v-2.4h-2.4V380.2z"/>
	<path class="st1" d="M-107.7,380.2h-2.4v2.4h-2.4v2.4h2.4v2.4h2.4V385h2.4v-2.4h-2.4V380.2z"/>
	<path class="st0" d="M-163.4,357.2h2.4v-2.4h2.4v-2.4h-2.4V350h-2.4v2.4h-2.4v2.4h2.4V357.2z"/>
	<path class="st1" d="M-163.4,357.2h2.4v-2.4h2.4v-2.4h-2.4V350h-2.4v2.4h-2.4v2.4h2.4V357.2z"/>
	<path class="st0" d="M-170.6,364.5h2.4v-2.4h2.4v-2.4h-2.4v-2.4h-2.4v2.4h-2.4v2.4h2.4V364.5z"/>
	<path class="st1" d="M-170.6,364.5h2.4v-2.4h2.4v-2.4h-2.4v-2.4h-2.4v2.4h-2.4v2.4h2.4V364.5z"/>
	<path class="st0" d="M-158.5,387.5v2.4h-2.4v2.4h2.4v2.4h2.4v-2.4h2.4v-2.4h-2.4v-2.4H-158.5z"/>
	<path class="st1" d="M-158.5,387.5v2.4h-2.4v2.4h2.4v2.4h2.4v-2.4h2.4v-2.4h-2.4v-2.4H-158.5z"/>
	<path class="st0" d="M-163.4,387.5V385h2.4v-2.4h-2.4v-2.4h-2.4v2.4h-2.4v2.4h2.4v2.4H-163.4z"/>
	<path class="st1" d="M-163.4,387.5V385h2.4v-2.4h-2.4v-2.4h-2.4v2.4h-2.4v2.4h2.4v2.4H-163.4z"/>
	<path class="st0" d="M-173.7,396.3l-3.9-9c-0.8-1.9-2.6-3.1-4.6-3.4c-2-0.2-4,0.7-5.2,2.3c-1.2,1.6-1.4,3.8-0.6,5.6l7,15.3
		c0.9,2.1,2.3,4,3.9,5.6l11,11c-0.6,0.7-1,1.5-1,2.4v14.2c0,2,1.6,3.6,3.6,3.6h19.6c2,0,3.6-1.6,3.6-3.6v-14.2c0-2-1.6-3.6-3.6-3.6
		v-3.3c0.1-4.2-1.3-8.3-3.9-11.7c-1.5-2-3.6-3.5-5.9-4.3c-3.8-1.6-7.2-3.8-10.2-6.5C-166.8,394.5-170.7,394.3-173.7,396.3z
		 M-143.9,440.4h-19.6v-14.2h19.6V440.4z M-150.6,409.9c2.1,2.7,3.2,6,3.1,9.4v3.3h-14.7l-12.4-12.3c-1.3-1.3-2.4-2.8-3.1-4.5
		l-7-15.3c-0.3-0.7-0.2-1.4,0.1-2c0.4-0.6,1.1-1,1.8-1c0.8,0,1.6,0.5,1.9,1.3l4,9.3c1.1,2.5,2.6,4.7,4.5,6.6l8.1,8.1
		c0.4,0.5,1.1,0.6,1.7,0.5c0.6-0.2,1.1-0.6,1.3-1.3c0.2-0.6,0-1.3-0.5-1.7l-8.1-8.1c-0.8-0.8-1.6-1.7-2.2-2.7
		c1.7-1.3,4.1-1.3,5.8,0.1c3.3,3.1,7.2,5.5,11.4,7.2C-153.2,407.3-151.7,408.4-150.6,409.9z"/>
	<path class="st0" d="M-149.3,431.5h-1.8c-1,0-1.8,0.8-1.8,1.8s0.8,1.8,1.8,1.8h1.8c1,0,1.8-0.8,1.8-1.8S-148.3,431.5-149.3,431.5z"
		/>
	<path class="st0" d="M-89,407.2l7-15.3c0.9-1.9,0.6-4-0.6-5.7c-1.2-1.7-3.2-2.5-5.2-2.3c-2,0.2-3.8,1.5-4.6,3.4l-3.8,9
		c-3-2-7-1.8-9.8,0.5c-3,2.8-6.4,5-10.2,6.5c-2.4,0.8-4.4,2.3-5.9,4.3c-2.6,3.3-4,7.4-3.9,11.7v3.3c-2,0-3.6,1.6-3.6,3.6v14.2
		c0,2,1.6,3.6,3.6,3.6h19.6c2,0,3.6-1.6,3.6-3.6v-14.2c0-0.9-0.3-1.8-1-2.4l11-11C-91.3,411.2-90,409.3-89,407.2z M-106.5,440.4
		h-19.6v-14.2h19.6V440.4z M-107.8,422.6h-14.7v-3.3c-0.1-3.4,1-6.7,3.1-9.4c1.1-1.4,2.6-2.6,4.3-3.2c4.2-1.7,8-4.1,11.4-7.2
		c1.7-1.4,4.1-1.4,5.8-0.1c-0.6,1-1.4,1.9-2.2,2.7l-8.1,8.1c-0.7,0.7-0.7,1.8,0,2.5c0.7,0.7,1.8,0.7,2.5,0l8.1-8.1
		c1.9-1.9,3.4-4.2,4.5-6.6l4-9.3c0.3-0.8,1.1-1.3,1.9-1.3c0.7,0,1.4,0.4,1.8,1c0.4,0.6,0.4,1.4,0.1,2l-7,15.3
		c-0.8,1.7-1.8,3.2-3.1,4.5L-107.8,422.6z"/>
	<path class="st0" d="M-119,431.5h-1.8c-1,0-1.8,0.8-1.8,1.8s0.8,1.8,1.8,1.8h1.8c1,0,1.8-0.8,1.8-1.8S-118,431.5-119,431.5z"/>
</g>
</svg>
