<?xml version="1.0" encoding="utf-8"?>
<!-- Generator: Adobe Illustrator 19.0.0, SVG Export Plug-In . SVG Version: 6.00 Build 0)  -->
<svg version="1.1" baseProfile="basic" id="Layer_1"
	 xmlns="http://www.w3.org/2000/svg" xmlns:xlink="http://www.w3.org/1999/xlink" x="0px" y="0px" viewBox="-177.8 350 85.5 94.1"
	 xml:space="preserve">
<style type="text/css">
	.st0{fill:#CE7A58;}
</style>
<g>
	<path class="st0" d="M-93.6,370.6c-5.3-1.1-10.4-2.6-15-4.4c-0.9-0.4-2,0.1-2.4,1c-0.4,0.9,0.1,2,1,2.4c4.4,1.7,9.1,3.1,14.1,4.3
		v22.4c0,4.4-2.3,10.3-6.3,16.6v-3.5c0-6.9-3.7-10.3-7.3-12.3c1.1-1.8,1.7-3.9,1.7-6.1c0-6.5-5.3-11.7-11.7-11.7
		c-6.5,0-11.7,5.3-11.7,11.7c0,2.2,0.6,4.3,1.7,6.1c-2,1.1-4.1,2.6-5.5,5c-1.4-2.4-3.5-3.9-5.5-5c1.1-1.8,1.7-3.9,1.7-6.1
		c0-6.5-5.3-11.7-11.7-11.7c-6.5,0-11.7,5.3-11.7,11.7c0,2.2,0.6,4.3,1.7,6.1c-3.6,2-7.3,5.4-7.3,12.3v3.5c-4-6.3-6.4-12.2-6.4-16.6
		v-22.4c21-4.8,31.6-13.5,37.4-18.3c0.7-0.6,1.3-1.1,1.9-1.5c0.6,0.4,1.2,1,1.9,1.5c2.1,1.8,18.1,10.8,21.7,13.1
		c0.8,0.6,2,0.3,2.5-0.5c0.6-0.8,0.3-2-0.5-2.5c-3.4-2.3-19.3-11.2-21.4-12.9c-1.2-1-2.2-1.8-3.1-2.5c-0.6-0.5-1.5-0.5-2.1,0
		c-0.9,0.7-1.9,1.5-3.1,2.5c-6,5-16.2,13.3-37.3,17.8c-0.8,0.2-1.5,0.9-1.5,1.8v23.9c0,4.2,1.6,9.3,4.8,15c2.8,5,6.7,10.3,11.3,15.3
		c7.5,8.4,18.6,17.4,26.6,17.4s19.1-9,26.8-17.4c2-2.2,3.9-4.5,5.6-6.8c0-0.1,4.1-5.8,5.6-8.6c3.2-5.7,4.8-10.8,4.8-15v-23.9
		C-92.2,371.6-92.8,370.8-93.6,370.6z M-119.6,383c4.4,0,8.1,3.6,8.1,8.1s-3.6,8.1-8.1,8.1c-4.4,0-8.1-3.6-8.1-8.1
		S-124,383-119.6,383z M-135.1,407.6c3.1,0,5.6,2.5,5.6,5.6s-2.5,5.6-5.6,5.6c-3.1,0-5.6-2.5-5.6-5.6S-138.2,407.6-135.1,407.6z
		 M-150.6,383c4.4,0,8.1,3.6,8.1,8.1s-3.6,8.1-8.1,8.1c-4.4,0-8.1-3.6-8.1-8.1S-155.1,383-150.6,383z M-148.5,426.9v7.1
		c-3.5-2.6-7.2-6-10.7-9.8c-1.8-2-3.5-4-5.1-6.1v-8.7c0-5.4,2.8-7.8,6.1-9.4c2,1.7,4.7,2.8,7.6,2.8c2.9,0,5.5-1,7.6-2.8
		c2,0.9,3.9,2.3,5,4.4c-3.7,1.2-6.3,4.7-6.3,8.7c0,1.6,0.4,3.1,1.1,4.4C-145.9,419.1-148.5,421.7-148.5,426.9z M-125.3,436.6
		c-3.8,2.4-7.2,3.8-9.8,3.8c-2.5,0-6-1.4-9.8-3.8v-9.7c0-3.6,1.8-5.4,4-6.5c1.6,1.2,3.6,2,5.7,2c2.2,0,4.1-0.7,5.7-2
		c2.2,1.1,4,2.8,4,6.5v9.7H-125.3z M-105.9,418.1c-1.6,2-3.3,4.1-5.1,6.1c-3.5,3.9-7.2,7.2-10.7,9.8v-7.1c0-5.1-2.6-7.8-5.3-9.4
		c0.7-1.3,1.1-2.8,1.1-4.4c0-4.1-2.6-7.5-6.3-8.7c1.2-2.2,3.1-3.5,5-4.4c2,1.7,4.7,2.8,7.6,2.8s5.5-1,7.6-2.8c3.3,1.6,6.1,4,6.1,9.4
		C-105.9,409.4-105.9,418.1-105.9,418.1z"/>
	<path class="st0" d="M-134.4,369.3c-1.2,0-2.2-0.8-2.2-1.8s1-1.8,2.2-1.8s2.2,0.8,2.2,1.8s0.8,1.8,1.8,1.8s1.8-0.8,1.8-1.8
		c0-2.4-1.7-4.5-4-5.2c0-1-0.8-1.8-1.8-1.8s-1.8,0.8-1.8,1.8c-2.3,0.7-4,2.8-4,5.2c0,3,2.6,5.5,5.9,5.5c1.2,0,2.2,0.8,2.2,1.8
		s-1,1.8-2.2,1.8c-1.2,0-2.2-0.8-2.2-1.8s-0.8-1.8-1.8-1.8s-1.8,0.8-1.8,1.8c0,2.4,1.7,4.5,4,5.2v0.1c0,1,0.8,1.8,1.8,1.8
		s1.8-0.8,1.8-1.8V380c2.3-0.7,4-2.8,4-5.2C-128.6,371.8-131.2,369.3-134.4,369.3z"/>
</g>
</svg>
