<?xml version="1.0" encoding="utf-8"?>
<!-- Generator: Adobe Illustrator 19.0.0, SVG Export Plug-In . SVG Version: 6.00 Build 0)  -->
<svg version="1.1" baseProfile="basic" id="Layer_1"
	 xmlns="http://www.w3.org/2000/svg" xmlns:xlink="http://www.w3.org/1999/xlink" x="0px" y="0px" viewBox="-182 350 94 94"
	 xml:space="preserve">
<style type="text/css">
	.st0{clip-path:url(#SVGID_2_);}
	.st1{fill:#CE7A58;}
</style>
<g>
	<g>
		<defs>
			<rect id="SVGID_1_" x="-182" y="350" width="94" height="94"/>
		</defs>
		<clipPath id="SVGID_2_">
			<use xlink:href="#SVGID_1_"  style="overflow:visible;"/>
		</clipPath>
		<g class="st0">
			<path class="st1" d="M-126.9,350.9c-0.5-0.9-1-0.9-2-0.9c-1,0-1.9,0-2.4,0.9L-184,398c-0.5,0.4-1,1-1,1.9c0,0.4,0.5,1.4,1,1.9
				c1.5,1.4,2.9,1.4,4.4,0l50.7-45.1l33.8,30.4h9.2C-100.4,374.3-112,363.8-126.9,350.9z"/>
			<path class="st1" d="M-128.9,371.7c0.9,0,1.6,0.7,1.6,1.6v6c0,0.9-0.7,1.6-1.6,1.6c-0.9,0-1.7-0.7-1.7-1.6v-6
				C-130.6,372.5-129.8,371.7-128.9,371.7z"/>
			<path class="st1" d="M-133.6,376.4c0-0.9,0.7-1.6,1.6-1.6h6c0.9,0,1.6,0.7,1.6,1.6s-0.7,1.6-1.6,1.6h-6
				C-132.8,378-133.6,377.3-133.6,376.4z"/>
			<path class="st1" d="M-128.9,368.1c-4.6,0-8.2,3.7-8.2,8.2s3.7,8.2,8.2,8.2c4.5,0,8.2-3.7,8.2-8.2S-124.4,368.1-128.9,368.1z
				 M-140.5,376.4c0-6.4,5.2-11.5,11.5-11.5c6.4,0,11.5,5.2,11.5,11.5c0,6.4-5.2,11.5-11.5,11.5S-140.5,382.8-140.5,376.4z"/>
			<path class="st1" d="M-145.3,437.1H-159c-1.8,0-3.2-1.2-3.2-2.6v-29.4c0-1.6-2-2.4-3.5-2.4c-2,0-2.9,0.8-2.9,2.4v34.7
				c0,1.2,1,2.5,2.9,2.5h20.3c1.8,0,3.2-1.2,3.2-2.6C-142.1,438.3-143.5,437.1-145.3,437.1z"/>
			<path class="st1" d="M-132.5,402c-1.4,0-2.5,1.1-2.5,2.5s1.1,2.5,2.5,2.5s2.5-1.1,2.5-2.5C-130,403.2-131.1,402-132.5,402z
				 M-138.4,404.6c0-3.2,2.6-5.8,5.8-5.8c3.2,0,5.8,2.6,5.8,5.8c0,3.2-2.6,5.8-5.8,5.8C-135.8,410.4-138.4,407.8-138.4,404.6z"/>
			<path class="st1" d="M-134.6,416.7c-1.4,0-2.5,1.1-2.5,2.5v8.8h2.5c0.9,0,1.6,0.7,1.6,1.6v6.7h4.6c0.9,0,1.6,0.7,1.6,1.6
				s-0.7,1.6-1.6,1.6h-6.3c-0.9,0-1.6-0.7-1.6-1.6v-6.7h-2.5c-0.9,0-1.7-0.7-1.7-1.6v-10.5c0-3.2,2.6-5.8,5.8-5.8h2.1
				c0.9,0,1.6,0.7,1.6,1.6s-0.7,1.6-1.6,1.6h-2V416.7z"/>
			<path class="st1" d="M-104.8,404.6c0-3.2,2.6-5.8,5.8-5.8s5.8,2.6,5.8,5.8c0,3.2-2.6,5.8-5.8,5.8S-104.8,407.8-104.8,404.6z
				 M-98.9,402c-1.4,0-2.5,1.1-2.5,2.5s1.1,2.5,2.5,2.5s2.5-1.1,2.5-2.5C-96.4,403.2-97.5,402-98.9,402z"/>
			<path class="st1" d="M-100.6,415.1c0-0.9,0.7-1.6,1.6-1.6h2.1c3.2,0,5.8,2.6,5.8,5.8v10.5c0,0.9-0.7,1.6-1.6,1.6h-2.5v6.7
				c0,0.9-0.7,1.6-1.6,1.6h-6.3c-0.9,0-1.6-0.7-1.6-1.6s0.7-1.6,1.6-1.6h4.6v-6.7c0-0.9,0.7-1.6,1.6-1.6h2.5v-8.8
				c0-1.4-1.1-2.5-2.5-2.5H-99C-99.9,416.7-100.6,416-100.6,415.1z"/>
			<path class="st1" d="M-115.7,397.8c-2.6,0-4.6,2.1-4.6,4.6c0,2.6,2.1,4.6,4.6,4.6c2.6,0,4.6-2.1,4.6-4.6
				S-113.2,397.8-115.7,397.8z M-123.7,402.5c0-4.4,3.6-7.9,7.9-7.9c4.4,0,7.9,3.6,7.9,7.9c0,4.4-3.6,7.9-7.9,7.9
				C-120.1,410.4-123.7,406.9-123.7,402.5z"/>
			<path class="st1" d="M-122,416.7c-1.4,0-2.5,1.1-2.5,2.5v8.8h2.5c0.9,0,1.6,0.7,1.6,1.6v10.9h9.3v-8.8c0-0.9,0.7-1.6,1.6-1.6h2.5
				v-10.9c0-1.4-1.1-2.5-2.5-2.5H-122z M-127.9,419.3c0-3.2,2.6-5.8,5.8-5.8h12.6c3.2,0,5.8,2.6,5.8,5.8v12.6c0,0.9-0.7,1.6-1.6,1.6
				h-2.5v8.8c0,0.9-0.7,1.6-1.6,1.6H-122c-0.9,0-1.6-0.7-1.6-1.6v-10.9h-2.5c-0.9,0-1.6-0.7-1.6-1.6v-10.5H-127.9z"/>
		</g>
	</g>
</g>
</svg>
