<svg width="109" height="94" viewBox="0 0 109 94" fill="none" xmlns="http://www.w3.org/2000/svg">
<g clip-path="url(#clip0_8478_62463)">
<path d="M57.9887 0.920982C57.4691 0 56.9842 0 56.0142 0C55.0443 0 54.0744 0 53.5895 0.920982L0.902528 48.0275C0.417573 48.4709 -0.0673828 49.0167 -0.0673828 49.9377C-0.0673828 50.3811 0.417573 51.3703 0.902528 51.8138C2.35739 53.2464 3.8469 53.2464 5.26713 51.8138L56.0142 6.68565L89.8572 37.1122H99.0367C84.5573 24.2866 72.9184 13.8147 57.9887 0.920982Z" fill="#CE7A58"/>
<path d="M76.059 87.1064H25.9707C24.2093 87.1064 22.8001 85.9474 22.8001 84.4987V55.1477C22.8001 53.5252 20.8274 52.7719 19.3478 52.7719C17.375 52.7719 16.4238 53.5542 16.4238 55.1477V89.8879C16.4238 91.1048 17.4102 92.3507 19.3478 92.3507H76.059C77.8204 92.3507 79.2295 91.1917 79.2295 89.743C79.2295 88.2653 77.8204 87.1064 76.059 87.1064Z" fill="#CE7A58"/>
<path d="M91.0784 80.3333V79.5958C89.3237 79.5336 87.9662 78.1279 87.9662 76.3436C87.9662 75.606 88.5465 75.0081 89.2624 75.0081C89.9783 75.0081 90.5586 75.606 90.5586 76.3436C90.5586 76.7449 90.8908 76.9278 91.1996 76.9278H93.13C93.6571 76.9278 94.1907 76.5838 94.1907 75.9262V75.1142C94.1907 74.5211 93.7248 74.0565 93.13 74.0565H91.9421C89.9317 74.0565 88.2962 72.349 88.2962 70.2503V69.7632C88.2962 68.7539 88.6785 67.8127 89.3726 67.113C89.8492 66.6324 90.4368 66.3029 91.0784 66.1469V65.2422C91.0784 64.5046 91.6587 63.9067 92.3746 63.9067C93.0905 63.9067 93.6708 64.5046 93.6708 65.2422V66.101C95.1822 66.3871 96.3293 67.7227 96.3293 69.3232C96.3293 70.0608 95.749 70.6587 95.0331 70.6587C94.3172 70.6587 93.7369 70.0608 93.7369 69.3232C93.7369 68.9422 93.3954 68.7145 93.0653 68.7145H91.9421C91.3416 68.7145 90.8887 69.1653 90.8887 69.7632V70.2503C90.8887 70.8656 91.3711 71.3855 91.9421 71.3855H93.1299C94.103 71.3855 95.0169 71.767 95.7035 72.4599C96.3996 73.1624 96.783 74.1051 96.783 75.1142V75.9262C96.783 77.8003 95.4539 79.3045 93.6708 79.56V80.3333C93.6708 81.0709 93.0905 81.6688 92.3746 81.6688C91.6587 81.6688 91.0784 81.0709 91.0784 80.3333ZM108.732 74.509C108.263 73.3417 107.166 72.5874 105.939 72.5874H103.198V59.4996C103.198 58.762 102.618 58.1641 101.902 58.1641H83.1715C82.4556 58.1641 81.8752 58.762 81.8752 59.4996V72.5874H78.8107C77.5822 72.5874 76.4851 73.3426 76.0158 74.5113C75.5471 75.6785 75.8051 77.0096 76.6773 77.9068L89.7019 91.18C90.4605 91.9604 91.4567 92.3505 92.4533 92.3505C93.4502 92.3505 94.4476 91.9598 95.207 91.1786L103.834 82.2786C104.34 81.7568 104.34 80.9112 103.833 80.39C103.326 79.8688 102.506 79.8693 102 80.3912L93.374 89.2899C92.8666 89.8119 92.0409 89.8119 91.5293 89.2855L78.5046 76.0122C78.3373 75.8401 78.3615 75.6563 78.4113 75.5324C78.4524 75.4301 78.5589 75.2583 78.8107 75.2583H83.1715C83.8874 75.2583 84.4677 74.6604 84.4677 73.9228V60.8351H100.606V73.9229C100.606 74.6605 101.186 75.2584 101.902 75.2584H105.939C106.19 75.2584 106.297 75.4299 106.338 75.5321C106.388 75.6559 106.412 75.8395 106.245 76.0117L102 80.3912C101.494 80.9131 101.495 81.7587 102.001 82.2799C102.508 82.8011 103.328 82.8006 103.834 82.2786L108.08 77.899C108.945 77.0056 109.202 75.6749 108.732 74.509Z" fill="#CE7A58"/>
<path fill-rule="evenodd" clip-rule="evenodd" d="M41.4387 37.0859C40.2484 37.0859 39.2849 38.0495 39.2849 39.2398C39.2849 40.4301 40.2484 41.3936 41.4387 41.3936C42.629 41.3936 43.5926 40.4301 43.5926 39.2398C43.5926 38.0495 42.629 37.0859 41.4387 37.0859ZM36.4976 39.2398C36.4976 36.5101 38.709 34.2986 41.4387 34.2986C44.1685 34.2986 46.3799 36.5101 46.3799 39.2398C46.3799 41.9695 44.1685 44.181 41.4387 44.181C38.709 44.181 36.4976 41.9695 36.4976 39.2398Z" fill="#CE7A58"/>
<path fill-rule="evenodd" clip-rule="evenodd" d="M39.6658 49.5023C38.4755 49.5023 37.5119 50.4659 37.5119 51.6562V59.1313H39.6658C40.4355 59.1313 41.0595 59.7553 41.0595 60.525V66.2263H44.9871C45.7568 66.2263 46.3807 66.8503 46.3807 67.62C46.3807 68.3897 45.7568 69.0137 44.9871 69.0137H39.6658C38.8961 69.0137 38.2721 68.3897 38.2721 67.62V61.9186H36.1183C35.3486 61.9186 34.7246 61.2947 34.7246 60.525V51.6562C34.7246 48.9264 36.9361 46.715 39.6658 46.715H41.4396C42.2093 46.715 42.8332 47.3389 42.8332 48.1086C42.8332 48.8783 42.2093 49.5023 41.4396 49.5023H39.6658Z" fill="#CE7A58"/>
<path fill-rule="evenodd" clip-rule="evenodd" d="M64.8794 39.2398C64.8794 36.5101 67.0909 34.2986 69.8206 34.2986C72.5503 34.2986 74.7618 36.5101 74.7618 39.2398C74.7618 41.9695 72.5503 44.181 69.8206 44.181C67.0909 44.181 64.8794 41.9695 64.8794 39.2398ZM69.8206 37.0859C68.6303 37.0859 67.6667 38.0495 67.6667 39.2398C67.6667 40.4301 68.6303 41.3936 69.8206 41.3936C71.0109 41.3936 71.9744 40.4301 71.9744 39.2398C71.9744 38.0495 71.0109 37.0859 69.8206 37.0859Z" fill="#CE7A58"/>
<path fill-rule="evenodd" clip-rule="evenodd" d="M68.4269 48.1086C68.4269 47.3389 69.0509 46.715 69.8206 46.715H71.5943C74.324 46.715 76.5355 48.9264 76.5355 51.6562V60.525C76.5355 61.2947 75.9116 61.9186 75.1419 61.9186H72.988V67.62C72.988 68.3897 72.364 69.0137 71.5943 69.0137H66.2731C65.5034 69.0137 64.8794 68.3897 64.8794 67.62C64.8794 66.8503 65.5034 66.2263 66.2731 66.2263H70.2007V60.525C70.2007 59.7553 70.8246 59.1313 71.5943 59.1313H73.7482V51.6562C73.7482 50.4659 72.7846 49.5023 71.5943 49.5023H69.8206C69.0509 49.5023 68.4269 48.8783 68.4269 48.1086Z" fill="#CE7A58"/>
<path fill-rule="evenodd" clip-rule="evenodd" d="M55.629 33.5383C53.4596 33.5383 51.7014 35.2965 51.7014 37.4659C51.7014 39.6353 53.4596 41.3935 55.629 41.3935C57.7984 41.3935 59.5566 39.6353 59.5566 37.4659C59.5566 35.2965 57.7984 33.5383 55.629 33.5383ZM48.9141 37.4659C48.9141 33.7571 51.9202 30.751 55.629 30.751C59.3378 30.751 62.344 33.7571 62.344 37.4659C62.344 41.1747 59.3378 44.1809 55.629 44.1809C51.9202 44.1809 48.9141 41.1747 48.9141 37.4659Z" fill="#CE7A58"/>
<path fill-rule="evenodd" clip-rule="evenodd" d="M50.3084 49.5023C49.1181 49.5023 48.1545 50.4659 48.1545 51.6562V59.1313H50.3084C51.0781 59.1313 51.702 59.7553 51.702 60.525V69.7738H59.5573V62.2987C59.5573 61.529 60.1812 60.905 60.9509 60.905H63.1048V51.6562C63.1048 50.4659 62.1412 49.5023 60.9509 49.5023H50.3084ZM45.3672 51.6562C45.3672 48.9264 47.5787 46.715 50.3084 46.715H60.9509C63.6806 46.715 65.8921 48.9264 65.8921 51.6562V62.2987C65.8921 63.0684 65.2682 63.6924 64.4985 63.6924H62.3446V71.1675C62.3446 71.9372 61.7206 72.5612 60.9509 72.5612H50.3084C49.5387 72.5612 48.9147 71.9372 48.9147 71.1675V61.9186H46.7609C45.9912 61.9186 45.3672 61.2947 45.3672 60.525V51.6562Z" fill="#CE7A58"/>
</g>
<defs>
<clipPath id="clip0_8478_62463">
<rect width="109" height="94" fill="white"/>
</clipPath>
</defs>
</svg>
