<?xml version="1.0" encoding="utf-8"?>
<!-- Generator: Adobe Illustrator 19.0.0, SVG Export Plug-In . SVG Version: 6.00 Build 0)  -->
<svg version="1.1" baseProfile="basic" id="Layer_1"
	 xmlns="http://www.w3.org/2000/svg" xmlns:xlink="http://www.w3.org/1999/xlink" x="0px" y="0px" viewBox="-182 350 94 94"
	 xml:space="preserve">
<style type="text/css">
	.st0{fill:#CE7A58;}
</style>
<g>
	<path class="st0" d="M-104.7,377.7c-0.3-0.3-0.8-0.5-1.3-0.5c-0.5,0-1,0.2-1.3,0.5c-0.3,0.3-0.5,0.8-0.5,1.3s0.2,1,0.5,1.3
		c0.3,0.3,0.8,0.5,1.3,0.5c0.5,0,1-0.2,1.3-0.5c0.3-0.3,0.5-0.8,0.5-1.3S-104.4,378.1-104.7,377.7z"/>
	<path class="st0" d="M-106,373.6c1,0,1.8-0.8,1.8-1.8v-16.2c0-3-2.5-5.5-5.5-5.5h-66.8c-3,0-5.5,2.5-5.5,5.5v83
		c0,3,2.5,5.5,5.5,5.5h66.8c3,0,5.5-2.5,5.5-5.5v-8.2c0-1-0.8-1.8-1.8-1.8c-1,0-1.8,0.8-1.8,1.8v8.2c0,1-0.8,1.8-1.8,1.8h-66.8
		c-1,0-1.8-0.8-1.8-1.8v-83c0-1,0.8-1.8,1.8-1.8h66.8c1,0,1.8,0.8,1.8,1.8v16.2C-107.9,372.8-107,373.6-106,373.6z"/>
	<path class="st0" d="M-89.6,423.8l-9.5-9.5c1.6-2.9,2.6-6.3,2.6-9.8c0-11.1-9.1-20.2-20.2-20.2c-0.1,0-0.2,0-0.3,0v-10.1
		c0-1-0.8-1.8-1.8-1.8h-10.7v-9.9c0-1-0.8-1.8-1.8-1.8H-144c-1,0-1.8,0.8-1.8,1.8v11h-10.7c-1,0-1.8,0.8-1.8,1.8v9.9h-8.9
		c-1,0-1.8,0.8-1.8,1.8v9.9c0,1,0.8,1.8,1.8,1.8h31.3c-0.5,1.8-0.8,3.7-0.8,5.7c0,11.1,9.1,20.2,20.2,20.2c3.6,0,6.9-0.9,9.8-2.6
		l9.4,9.4c1.1,1.1,2.5,1.7,4,1.7c1.3,0,2.7-0.5,3.7-1.5c1.1-1,1.7-2.4,1.8-3.9C-88,426.3-88.5,424.9-89.6,423.8z M-158.4,395.2h-7.1
		v-6.2h7.1L-158.4,395.2L-158.4,395.2z M-145.8,395.2h-8.9v-8.1v-9.9h8.9V395.2z M-142.2,395.2v-19.8v-11h8.9v9.9v6.6v2.5
		c0,1,0.8,1.8,1.8,1.8s1.8-0.8,1.8-1.8v-2.5v-4.8h8.9v8.7c-6,1.2-11.1,5.1-13.9,10.4H-142.2z M-116.7,421c-9.1,0-16.5-7.4-16.5-16.5
		c0-9.1,7.4-16.5,16.5-16.5c9.1,0,16.5,7.4,16.5,16.5C-100.2,413.6-107.6,421-116.7,421z M-92.3,429.1c-0.7,0.7-1.9,0.6-2.6-0.1
		l-8.9-8.9c0.9-0.8,1.8-1.7,2.6-2.6l9,9c0.4,0.4,0.5,0.8,0.5,1.3C-91.7,428.3-91.9,428.7-92.3,429.1z"/>
	<path class="st0" d="M-111.9,395.2c-0.9-0.5-2-0.2-2.5,0.7l-9.9,17.5c-0.5,0.9-0.2,2,0.7,2.5c0.3,0.2,0.6,0.2,0.9,0.2
		c0.6,0,1.3-0.3,1.6-0.9l9.9-17.5C-110.7,396.8-111,395.7-111.9,395.2z"/>
	<path class="st0" d="M-110.3,406.1c-3,0-5.5,2.5-5.5,5.5c0,3,2.5,5.5,5.5,5.5c3,0,5.5-2.5,5.5-5.5
		C-104.8,408.6-107.2,406.1-110.3,406.1z M-110.3,413.4c-1,0-1.8-0.8-1.8-1.8c0-1,0.8-1.8,1.8-1.8c1,0,1.8,0.8,1.8,1.8
		C-108.4,412.6-109.3,413.4-110.3,413.4z"/>
	<path class="st0" d="M-123.1,392c-3,0-5.5,2.5-5.5,5.5s2.5,5.5,5.5,5.5s5.5-2.5,5.5-5.5S-120.1,392-123.1,392z M-123.1,399.3
		c-1,0-1.8-0.8-1.8-1.8c0-1,0.8-1.8,1.8-1.8s1.8,0.8,1.8,1.8C-121.3,398.5-122.1,399.3-123.1,399.3z"/>
	<path class="st0" d="M-119.4,430.4h-50.8c-1,0-1.8,0.8-1.8,1.8c0,1,0.8,1.8,1.8,1.8h50.8c1,0,1.8-0.8,1.8-1.8
		C-117.6,431.2-118.4,430.4-119.4,430.4z"/>
	<path class="st0" d="M-143.1,420.1h-11.4c-1,0-1.8,0.8-1.8,1.8c0,1,0.8,1.8,1.8,1.8h11.4c1,0,1.8-0.8,1.8-1.8
		C-141.3,420.9-142.1,420.1-143.1,420.1z"/>
	<path class="st0" d="M-135.1,420.7c-0.3-0.3-0.8-0.5-1.3-0.5c-0.5,0-1,0.2-1.3,0.5c-0.3,0.3-0.5,0.8-0.5,1.3s0.2,1,0.5,1.3
		c0.3,0.3,0.8,0.5,1.3,0.5c0.5,0,1-0.2,1.3-0.5c0.3-0.3,0.5-0.8,0.5-1.3S-134.7,421-135.1,420.7z"/>
	<path class="st0" d="M-143.1,409.8h-11.4c-1,0-1.8,0.8-1.8,1.8c0,1,0.8,1.8,1.8,1.8h11.4c1,0,1.8-0.8,1.8-1.8
		C-141.3,410.7-142.1,409.8-143.1,409.8z"/>
	<path class="st0" d="M-166.2,414.5c-1.2,0-2.2-0.8-2.2-1.8c0-1,1-1.8,2.2-1.8c1.2,0,2.2,0.8,2.2,1.8c0,1,0.8,1.8,1.8,1.8
		c1,0,1.8-0.8,1.8-1.8c0-2.4-1.7-4.5-4-5.2c0-1-0.8-1.8-1.8-1.8c-1,0-1.8,0.8-1.8,1.8c-2.3,0.7-4,2.8-4,5.2c0,3,2.6,5.5,5.9,5.5
		c1.2,0,2.2,0.8,2.2,1.8c0,1-1,1.8-2.2,1.8c-1.2,0-2.2-0.8-2.2-1.8c0-1-0.8-1.8-1.8-1.8c-1,0-1.8,0.8-1.8,1.8c0,2.4,1.7,4.5,4,5.2
		v0.1c0,1,0.8,1.8,1.8,1.8c1,0,1.8-0.8,1.8-1.8v-0.1c2.3-0.7,4-2.8,4-5.2C-160.3,417-163,414.5-166.2,414.5z"/>
</g>
</svg>
