<?xml version="1.0" encoding="utf-8"?>
<!-- Generator: Adobe Illustrator 19.0.0, SVG Export Plug-In . SVG Version: 6.00 Build 0)  -->
<svg version="1.1" baseProfile="basic" id="Layer_1"
	 xmlns="http://www.w3.org/2000/svg" xmlns:xlink="http://www.w3.org/1999/xlink" x="0px" y="0px" viewBox="-182 350 94 94.1"
	 xml:space="preserve">
<style type="text/css">
	.st0{fill:none;}
	.st1{fill:#CE7A58;}
</style>
<g>
	<rect x="-182" y="350" class="st0" width="94" height="94"/>
	<g>
		<path class="st1" d="M-123.4,376c0.3-0.4,0.5-0.8,0.6-1.2c0.6,0.1,1.3,0.4,1.8,0.7c1.1,0.7,2.4,1.1,3.7,1.2c0.4,0,0.8,0,1.2-0.1
			c1.7-0.3,3.3-1.3,4.3-2.7c0.5-0.9,1.4-1.4,2.4-1.6s2,0.1,2.8,0.7c1.4,1,3.2,1.4,4.9,1.1l-0.5-3.1c-1,0.2-2-0.1-2.8-0.7
			c-3-2-7.1-1.3-9.2,1.6c-0.5,0.9-1.4,1.4-2.4,1.6c-0.5,0.1-0.9,0.1-1.4,0c0.9-0.2,1.8-0.7,2.5-1.3c1.3-1.1,2.2-2.7,2.3-4.5
			c0-1,0.5-1.9,1.3-2.6s1.8-0.9,2.8-0.8c1.7,0.2,3.5-0.4,4.8-1.5l-2-2.4c-0.8,0.6-1.8,0.9-2.8,0.8c-3.6-0.3-6.8,2.4-7.1,6
			c0,1-0.5,1.9-1.3,2.6c-0.8,0.6-1.8,0.9-2.8,0.8s-2,0.1-2.9,0.4c-0.4-0.7-1.1-1.4-1.8-1.8l7-14c0.2-0.5,0.2-1.1-0.1-1.5
			c-0.3-0.5-0.8-0.7-1.3-0.7c-1.1,0-2.2-0.4-2.9-1.2c-2.8-2.5-7-2.5-9.8,0c-0.8,0.8-1.8,1.2-2.9,1.2c-1.1,0-2.2-0.4-2.9-1.2
			c-2.8-2.5-7-2.5-9.8,0c-0.8,0.8-1.8,1.2-2.9,1.2c-0.5,0-1,0.3-1.3,0.7c-0.3,0.5-0.3,1-0.1,1.5l7,14c-1.2,0.6-2,1.7-2.3,3.1
			s0,2.7,0.8,3.8c-14.5,3.8-24.5,16.8-24.5,31.7V436c0,4.3,3.5,7.8,7.8,7.8h56.4c4.3,0,7.8-3.5,7.8-7.8v-28.2
			C-99,392.9-109,379.9-123.4,376z M-145.8,354.2c0.8-0.8,1.8-1.2,2.9-1.2c1.1,0,2.2,0.4,2.9,1.2c2.8,2.5,7,2.5,9.8,0
			c0.8-0.8,1.8-1.2,2.9-1.2s2.2,0.4,2.9,1.2c0.7,0.7,1.6,1.2,2.5,1.5l-6.5,12.9h-13.7l-6.5-12.9
			C-147.4,355.3-146.5,354.8-145.8,354.2z M-142.8,374.9c-0.9,0-1.6-0.7-1.6-1.6s0.7-1.6,1.6-1.6h15.7c0.9,0,1.6,0.7,1.6,1.6
			s-0.7,1.6-1.6,1.6H-142.8z M-102.1,436c0,2.6-2.1,4.7-4.7,4.7h-56.4c-2.6,0-4.7-2.1-4.7-4.7v-28.2c0-16.4,13.3-29.7,29.8-29.8h6.3
			c16.4,0,29.7,13.3,29.8,29.8V436H-102.1z"/>
		<path class="st1" d="M-145.5,419.2l18.8-18.8l2.2,2.2l-18.8,18.8L-145.5,419.2z"/>
		<path class="st1" d="M-128.7,412.5c-2.6,0-4.7,2.1-4.7,4.7s2.1,4.7,4.7,4.7c2.6,0,4.7-2.1,4.7-4.7S-126.1,412.5-128.7,412.5z
			 M-128.7,418.7c-0.9,0-1.6-0.7-1.6-1.6s0.7-1.6,1.6-1.6c0.9,0,1.6,0.7,1.6,1.6C-127.2,418-127.9,418.7-128.7,418.7z"/>
		<path class="st1" d="M-141.3,409.3c2.6,0,4.7-2.1,4.7-4.7s-2.1-4.7-4.7-4.7s-4.7,2.1-4.7,4.7S-143.9,409.3-141.3,409.3z
			 M-141.3,403.1c0.9,0,1.6,0.7,1.6,1.6s-0.7,1.6-1.6,1.6s-1.6-0.7-1.6-1.6C-142.8,403.8-142.1,403.1-141.3,403.1z"/>
		<path class="st1" d="M-135,389c-12.1,0-21.9,9.8-21.9,21.9s9.8,21.9,21.9,21.9c12.1,0,21.9-9.8,21.9-21.9
			C-113.1,398.8-122.9,389-135,389z M-135,429.7c-10.4,0-18.8-8.4-18.8-18.8s8.4-18.8,18.8-18.8s18.8,8.4,18.8,18.8
			S-124.6,429.7-135,429.7z"/>
	</g>
</g>
</svg>
