<?xml version="1.0" encoding="utf-8"?>
<!-- Generator: Adobe Illustrator 19.0.0, SVG Export Plug-In . SVG Version: 6.00 Build 0)  -->
<svg version="1.1" baseProfile="basic" id="Layer_1"
	 xmlns="http://www.w3.org/2000/svg" xmlns:xlink="http://www.w3.org/1999/xlink" x="0px" y="0px" viewBox="-171.6 360.5 73.3 73"
	 xml:space="preserve">
<style type="text/css">
	.st0{fill:#CE7A58;}
</style>
<g>
	<path class="st0" d="M-146.3,408.7c-0.7-0.4-1.6-0.2-2,0.5l-8.8,14.7c-0.4,0.7-0.2,1.6,0.5,2s1.6,0.2,2-0.5l8.8-14.7
		C-145.4,410-145.7,409.1-146.3,408.7z"/>
	<path class="st0" d="M-152.2,412.5c0-2.5-1.9-4.6-4.2-4.6s-4,2-4,4.6c0,2.5,1.9,4.6,4.2,4.6C-154,417.1-152.2,415-152.2,412.5z
		 M-157.5,412.5c0-1,0.5-1.7,1.2-1.7s1.3,0.8,1.3,1.7c0,1-0.5,1.7-1.2,1.7S-157.5,413.4-157.5,412.5z"/>
	<path class="st0" d="M-150.6,422.5c0,2.5,1.9,4.6,4.2,4.6c2.3,0,4.2-2.1,4.2-4.6s-1.9-4.6-4.2-4.6
		C-148.8,417.9-150.6,420-150.6,422.5z M-145.2,422.5c0,0.9-0.6,1.7-1.3,1.7c-0.7,0-1.3-0.8-1.3-1.7c0-0.9,0.6-1.7,1.3-1.7
		C-145.8,420.8-145.2,421.6-145.2,422.5z"/>
	<path class="st0" d="M-98.8,373.2c-0.3-0.3-0.8-0.4-1.2-0.3l-15.6,2.9h-13.7c-0.8,0-1.4,0.6-1.4,1.4v0.7h-0.1c-2,0-3.9-0.9-5.1-2.5
		l-1.1-1.3c-1.4-1.7-3.3-2.9-5.5-3.4l2.7-8.3c0.3-0.9-0.4-1.9-1.4-1.9h-21.7c-1,0-1.7,1-1.4,1.9l4.2,12.2h-3.1
		c-2.6,0-4.7,2.1-4.7,4.7c0,1.1,0.4,2.1,1,2.9c-1.1,0.9-1.8,2.2-1.8,3.7c0,1.9,1.1,3.6,2.8,4.3c-0.4,0.7-0.6,1.5-0.6,2.3
		c0,1.6,0.8,3.1,2.1,3.9c-0.5,0.8-0.8,1.7-0.8,2.7c0,2,1.3,3.9,3.3,4.5l-5.7,5.8c-2.6,2.7-4,6.2-4,9.9c0,7.8,6.4,14.2,14.2,14.2
		h10.7c7.8,0,14.2-6.4,14.2-14.2c0-3.7-1.4-7.2-4-9.9l-5.6-5.8c1.6-0.3,3.2-1,4.4-2.1l1.1-0.9c1.2-1,2.7-1.6,4.3-1.6h1.5v1.1
		c0,0.8,0.6,1.4,1.4,1.4h29.6c0.8,0,1.4-0.6,1.4-1.4v-6.3c0-0.8-0.6-1.4-1.4-1.4s-1.4,0.6-1.4,1.4v4.9h-12.9v-20.5l12.9-2.4v5.4
		c0,0.8,0.6,1.4,1.4,1.4s1.4-0.6,1.4-1.4v-7.1C-98.3,373.8-98.5,373.4-98.8,373.2z M-143.1,363.4l-2.6,8.1l0,0l-1,3.1h-10.2
		l-3.9-11.2H-143.1z M-135.2,419.4c0,6.3-5.1,11.4-11.4,11.4h-10.7c-6.3,0-11.4-5.1-11.4-11.4c0-3,1.1-5.8,3.2-7.9l7.4-7.6h12.2
		l7.4,7.6C-136.3,413.6-135.2,416.5-135.2,419.4z M-132.2,396.3c-2.2,0-4.4,0.8-6.1,2.3l-1.1,0.9c-1.2,1-2.7,1.6-4.3,1.6h-16.6
		c-1,0-1.9-0.9-1.9-1.9s0.8-1.9,1.9-1.9c0.8,0,1.4-0.6,1.4-1.4s-0.6-1.4-1.4-1.4h-1.2c-1,0-1.9-0.8-1.9-1.9c0-1,0.8-1.9,1.9-1.9
		c0.8,0,1.4-0.6,1.4-1.4s-0.6-1.4-1.4-1.4h-2.2c-1,0-1.9-0.8-1.9-1.9c0-1,0.8-1.9,1.9-1.9h0.7c0.8,0,1.4-0.6,1.4-1.4
		s-0.6-1.4-1.4-1.4c-1,0-1.9-0.8-1.9-1.9c0-1,0.8-1.9,1.9-1.9h17.3c0.6,0,1.2-0.4,1.4-1l1-3c1.6,0.3,3.1,1.1,4.2,2.4l1.1,1.3
		c1.8,2.3,4.5,3.6,7.4,3.6h0.1v15.5L-132.2,396.3L-132.2,396.3z M-127.8,397.7v-19.1h11v20.2h-11V397.7z"/>
	<path class="st0" d="M-98.9,386.5c-0.5-0.3-1.2-0.3-1.7,0.1s-0.7,1-0.5,1.6s0.7,1,1.4,1c0.6,0,1.1-0.4,1.3-0.9
		C-98.2,387.5-98.4,386.8-98.9,386.5z"/>
</g>
</svg>
