<?xml version="1.0" encoding="utf-8"?>
<!-- Generator: Adobe Illustrator 19.0.0, SVG Export Plug-In . SVG Version: 6.00 Build 0)  -->
<svg version="1.1" baseProfile="basic" id="Layer_1"
	 xmlns="http://www.w3.org/2000/svg" xmlns:xlink="http://www.w3.org/1999/xlink" x="0px" y="0px" viewBox="-180.5 351.5 91.1 91.1"
	 xml:space="preserve">
<style type="text/css">
	.st0{fill:#CE7A58;}
</style>
<g>
	<path class="st0" d="M-165.8,398.3v3.2h2.9v-3.2c1.7-0.5,2.9-2.1,2.9-4c0-1.6-0.9-3-2.3-3.7l-2.9-1.4c-0.4-0.2-0.7-0.6-0.7-1.1
		c0-0.7,0.6-1.3,1.3-1.3h0.4c0.7,0,1.3,0.6,1.3,1.3v0.2h2.9V388c0-1.9-1.2-3.4-2.9-4v-3.2h-2.9v3.2c-1.7,0.5-2.9,2.1-2.9,4
		c0,1.6,0.9,3,2.3,3.7l2.9,1.4c0.4,0.2,0.7,0.6,0.7,1.1c0,0.7-0.6,1.3-1.3,1.3h-0.4c-0.7,0-1.3-0.6-1.3-1.3v-1.7h-2.9v1.7
		C-168.8,396.1-167.5,397.7-165.8,398.3z"/>
	<path class="st0" d="M-164.4,407.3c8.9,0,16.2-7.2,16.2-16.2c0-0.4,0-0.8-0.1-1.2l5-0.8c0.9,2.1,3,3.5,5.4,3.5
		c3.2,0,5.9-2.6,5.9-5.9c0-0.5-0.1-1-0.2-1.5l10.7-6.1c1.1,1.1,2.6,1.8,4.2,1.8c3.2,0,5.9-2.6,5.9-5.9c0-1.1-0.3-2.1-0.8-3
		l15.5-15.5v8.2h2.9v-13.2h-13.2v2.9h8.2l-15.5,15.5c-0.9-0.5-1.9-0.8-3-0.8c-3.2,0-5.9,2.6-5.9,5.9c0,0.5,0.1,1,0.2,1.5l-10.7,6.1
		c-1.1-1.1-2.6-1.8-4.2-1.8c-3.1,0-5.6,2.4-5.8,5.4l-5,0.8c-1.8-6.9-8.1-12.1-15.6-12.1c-8.9,0-16.2,7.2-16.2,16.2
		C-180.5,400-173.3,407.3-164.4,407.3z M-117.4,372c1.6,0,2.9,1.3,2.9,2.9c0,1.6-1.3,2.9-2.9,2.9c-1.6,0-2.9-1.3-2.9-2.9
		C-120.3,373.3-119,372-117.4,372z M-137.9,383.8c1.6,0,2.9,1.3,2.9,2.9c0,1.6-1.3,2.9-2.9,2.9c-1.6,0-2.9-1.3-2.9-2.9
		C-140.9,385.1-139.6,383.8-137.9,383.8z M-164.4,377.9c7.3,0,13.2,5.9,13.2,13.2s-5.9,13.2-13.2,13.2s-13.2-5.9-13.2-13.2
		S-171.7,377.9-164.4,377.9z"/>
	<path class="st0" d="M-177.6,442.5h14.7v-32.3h-14.7V442.5z M-174.7,413.2h8.8v26.4h-8.8V413.2z"/>
	<path class="st0" d="M-160,442.5h14.7v-29.4H-160V442.5z M-157,416.1h8.8v23.5h-8.8V416.1z"/>
	<path class="st0" d="M-142.3,442.5h14.7v-47h-14.7V442.5z M-139.4,398.5h8.8v41.1h-8.8V398.5z"/>
	<path class="st0" d="M-102.7,419.2v-3.1h-2.9v3.1c-1.7,0.5-2.9,2.1-2.9,4c0,1.6,0.9,3,2.3,3.8l2.9,1.4c0.4,0.2,0.7,0.6,0.7,1.1
		c0,0.7-0.6,1.3-1.3,1.3h-0.4c-0.7,0-1.3-0.6-1.3-1.3v-1.7h-2.9v1.7c0,1.9,1.2,3.4,2.9,4v3.1h2.9v-3.1c1.7-0.5,2.9-2.1,2.9-4
		c0-1.6-0.9-3-2.3-3.8l-2.9-1.4c-0.4-0.2-0.7-0.6-0.7-1.1c0-0.7,0.6-1.3,1.3-1.3h0.4c0.7,0,1.3,0.6,1.3,1.3v0.2h2.9v-0.2
		C-99.8,421.4-101,419.8-102.7,419.2z"/>
	<path class="st0" d="M-91.7,419.4l-5-8l2.6-9.1c0.1-0.5,0.2-1,0.2-1.5c0-2.9-2.4-5.3-5.3-5.3h-4c-2.1,0-3.9,1.2-4.7,2.9h-2.1v-14.7
		h-14.7v58.7h20.6c8.1,0,14.7-6.6,14.7-14.7v-0.6C-89.5,424.5-90.2,421.8-91.7,419.4z M-105.6,400.9c0-1.3,1.1-2.4,2.4-2.4h4
		c1.3,0,2.4,1.1,2.4,2.4c0,0.2,0,0.4-0.1,0.7l-2.5,8.7h-10l-4.2-4.2c-0.5-0.5-0.8-1.2-0.8-1.9c0-1.5,1.2-2.7,2.7-2.7h3.2v2.9h2.9
		V400.9z M-121.8,439.6v-52.9h8.8v11.9c-2.5,0.6-4.4,2.8-4.4,5.5c0,1.5,0.6,2.9,1.6,4l3.8,3.8l-4.7,7.5c-1.5,2.3-2.2,5-2.2,7.8v0.6
		c0,4.8,2.3,9.1,5.9,11.8H-121.8z M-92.4,427.8c0,6.5-5.3,11.8-11.8,11.8c-6.5,0-11.8-5.3-11.8-11.8v-0.6c0-2.2,0.6-4.4,1.8-6.2
		l4.9-7.8h10.1l4.9,7.8c1.2,1.9,1.8,4,1.8,6.2V427.8z"/>
</g>
</svg>
