<?xml version="1.0" encoding="utf-8"?>
<!-- Generator: Adobe Illustrator 19.0.0, SVG Export Plug-In . SVG Version: 6.00 Build 0)  -->
<svg version="1.1" baseProfile="basic" id="Layer_1"
	 xmlns="http://www.w3.org/2000/svg" xmlns:xlink="http://www.w3.org/1999/xlink" x="0px" y="0px" viewBox="-184.4 349.1 98.9 95.8"
	 xml:space="preserve">
<style type="text/css">
	.st0{fill:#CE7A58;}
	.st1{fill:#FAF2EE;}
	.st2{fill:#CD7957;}
</style>
<g>
	<path class="st0" d="M-121,412.4c1.3-1.1,2.5-2.2,3.8-3.3c0.7-0.6,1.5-0.5,1.9,0c0.5,0.5,0.4,1.3-0.2,1.9c-0.1,0.1-0.2,0.2-0.3,0.3
		c-7.4,6.4-14.8,12.8-22.2,19.2c-2,1.8-2,1.8-4,0c-12.5-10.8-25-21.6-37.5-32.4c-1.4-1.2-2.8-2.4-4.2-3.6c-1.1-0.9-1-1.6,0-2.5
		c2.1-1.8,4.1-3.6,6.2-5.4c0.2-0.2,0.4-0.4,0.7-0.7c-1.5-2.1-2.6-4.3-1.9-7c0.5-1.8,1.5-3.3,2.9-4.5c3.3-2.6,7.2-2.3,11.3,0.9
		c1.8-1.5,3.5-3,5.3-4.6c3.7-3.2,7.4-6.4,11.1-9.6c0.4-0.3,0.7-0.5,0.4-1.1c-2-3.6,0.4-9.5,5.8-10.7c5.4-1.2,10.7,3.5,9.9,8.8
		c-0.1,0.6-0.4,1.2-0.6,1.9c-0.1,0.3,0,0.7,0.2,0.9c5.5,4.7,11,9.5,16.5,14.2c0,0,0.1,0.1,0.3,0.1c2-2,4.4-2.9,7.3-2.5
		c1.8,0.2,3.3,1,4.6,2.3c3,2.9,3.1,6.2,0.4,10.9c0.2,0.2,0.5,0.4,0.7,0.6c2.1,1.8,4.2,3.6,6.2,5.4c0.9,0.8,0.9,1.5,0,2.3
		c-4.7,4.1-9.4,8.2-14.1,12.2c-0.7,0.6-1.5,0.6-2,0s-0.4-1.4,0.3-2c4.1-3.6,8.3-7.2,12.4-10.8c0.2-0.2,0.4-0.4,0.7-0.7
		c-2-1.7-4-3.4-6-5.2c-1.1,1.1-2.1,2.1-3.1,3.1c-1.2,1.1-1.6,1.1-2.8,0c-2.1-1.9-4-3.9-5.6-6.4c-1.3-2.1-1.6-4.2-0.8-6.5
		c0.1-0.2,0.1-0.7-0.1-0.8c-0.2-0.1-0.6-0.1-0.9,0c-5.8,3.2-11.5,6.3-17.2,9.5c-0.3,0.1-0.5,0.6-0.5,0.9c0,2.4,0,4.8,0,7.2
		c0,0.3,0.1,0.7,0.3,1c4.7,5.4,9.4,10.7,14.1,16C-121.3,412.1-121.2,412.2-121,412.4z M-155.5,371.2c-2.4,2.1-4.8,4.2-7.2,6.2
		c-0.1,0.1-0.2,0.5-0.1,0.7c1,2.8,0.4,5.2-1.4,7.4c-1.5,1.9-3.2,3.7-4.9,5.4c-1.3,1.3-1.7,1.3-3.1,0c-1-0.9-1.9-1.8-2.9-2.8
		c-2,1.7-4,3.5-6,5.2c0.3,0.3,0.5,0.5,0.8,0.7c4.4,3.8,8.8,7.5,13.1,11.3c0.5,0.5,0.9,0.5,1.4,0.1c4.4-3.3,8.9-6.6,13.3-9.9
		c0.6-0.5,1.3-0.7,2.1-0.7c3.7,0,7.3,0,11,0c0.7,0,0.9-0.2,0.9-0.9c0-2,0-4.1,0-6.1c0-0.5-0.3-1-0.6-1.4c-3.8-3.6-7.6-7.1-11.4-10.7
		C-152.2,374.2-153.8,372.7-155.5,371.2z M-164.5,407.7c8.2,7.1,16.4,14.1,24.5,21.2c5.7-4.9,11.3-9.8,16.9-14.7
		c-0.2-0.2-0.3-0.4-0.4-0.6c-4.6-5.2-9.3-10.5-13.9-15.7c-0.3-0.3-0.8-0.5-1.2-0.5c-3.7,0-7.5,0-11.2,0c-0.5,0-1.1,0.2-1.6,0.5
		c-3.5,2.6-7,5.2-10.5,7.7C-162.7,406.3-163.5,406.9-164.5,407.7z M-134,363c-1.7,1.7-3.3,3.3-4.9,4.9c-0.8,0.8-1.4,0.7-2.2,0
		c-0.3-0.3-0.6-0.5-0.9-0.8c-1.3-1.3-2.6-2.7-4-4.1c-2.5,2.1-5,4.3-7.5,6.5c0.2,0.2,0.3,0.3,0.4,0.4c5.2,4.8,10.3,9.6,15.5,14.5
		c0.5,0.4,0.8,0.4,1.3,0.1c5.3-2.9,10.6-5.8,15.8-8.7c0.2-0.1,0.4-0.3,0.7-0.5C-124.5,371.1-129.3,367-134,363z M-139.9,365.4
		c1-1,1.9-1.9,2.8-2.9c0.8-0.9,1.5-1.8,2.1-2.8c0.4-0.7,0.7-1.6,0.7-2.4c0.1-2.3-1.6-4.3-3.8-5.1c-2.3-0.7-4.9,0-6.3,1.9
		c-1.1,1.5-1.6,3.1-0.8,4.9C-144,361.5-142.1,363.4-139.9,365.4z M-109.5,388.8c1.8-1.2,4.7-4.8,5.4-6.6c0.2-0.6,0.3-1.3,0.3-1.9
		c-0.5-3.4-3.5-5.4-6.8-4.8c-3.2,0.6-5.3,4.2-4,7C-113.4,385-111.4,386.9-109.5,388.8z M-170.7,388.8c1.7-1.2,4.5-4.5,5.3-6.3
		c0.2-0.5,0.4-1.1,0.4-1.6c0.1-3.8-3.8-6.5-7.5-5.2c-2.8,1-4.5,4.1-3.5,6.5C-174.8,384.8-172.7,386.8-170.7,388.8z"/>
	<path class="st0" d="M-148.4,412.3c0.6-4.4,3.7-7.5,7.9-7.8c4-0.3,7.6,2.4,8.6,6.4c0.5,1.8,0.1,3.5-0.8,5.1
		c-1.6,2.9-3.9,5.1-6.4,7.3c-0.5,0.5-1.2,0.5-1.7,0c-2.7-2.3-5.2-4.8-6.7-8C-148,414.3-148.1,413.3-148.4,412.3z M-140,420.5
		c1.9-1.8,3.7-3.7,5-5.8c0.6-1.1,0.8-2.2,0.5-3.5c-0.8-2.9-3.6-4.7-6.5-4.1c-3.4,0.6-5.5,4.3-4.1,7.1
		C-144,416.7-142,418.6-140,420.5z"/>
	<path class="st0" d="M-140,361.5c-2.2,0-4-1.8-4-4s1.9-4.1,4.1-4.1c2.2,0,4.1,1.9,4.1,4.1C-135.9,359.8-137.7,361.5-140,361.5z
		 M-140,358.9c0.8,0,1.4-0.6,1.5-1.4c0-0.8-0.6-1.5-1.5-1.5c-0.8,0-1.4,0.6-1.5,1.4C-141.5,358.3-140.8,358.9-140,358.9z"/>
	<path class="st0" d="M-105.3,380.9c0,2.3-1.8,4.1-4.1,4c-2.2,0-4.1-1.8-4.1-4.1c0-2.2,1.9-4,4.1-4
		C-107.1,376.9-105.3,378.7-105.3,380.9z M-109.4,382.3c0.8,0,1.5-0.6,1.5-1.4s-0.7-1.5-1.5-1.5c-0.8,0-1.4,0.6-1.4,1.4
		C-110.8,381.7-110.2,382.3-109.4,382.3z"/>
	<path class="st0" d="M-174.7,380.9c0-2.3,1.8-4,4.1-4c2.3,0,4.1,1.8,4.1,4.1c0,2.2-1.9,4-4.1,4
		C-172.9,384.9-174.7,383.1-174.7,380.9z M-169.2,380.9c0-0.8-0.6-1.4-1.4-1.5c-0.8,0-1.5,0.7-1.5,1.5s0.7,1.4,1.5,1.4
		C-169.8,382.3-169.2,381.8-169.2,380.9z"/>
	<path class="st0" d="M-140,416.7c-2.3,0-4.1-1.9-4-4.1c0-2.2,1.9-4,4.1-4c2.2,0,4.1,1.9,4,4.1C-135.9,414.9-137.8,416.7-140,416.7z
		 M-140,411.2c-0.8,0-1.4,0.6-1.4,1.4s0.7,1.5,1.5,1.5c0.8,0,1.5-0.7,1.4-1.5C-138.6,411.8-139.2,411.2-140,411.2z"/>
	<ellipse class="st1" cx="-109.5" cy="421.1" rx="23.9" ry="23.8"/>
	<g>
		<path class="st2" d="M-98.2,425.1l-0.1-0.3c-0.2-1-0.6-2-1.3-3.2c-1.2-2.4-3-4.4-5-5.7l0,0l0,0c0.6-0.7,1-1.5,0.9-2.3
			c-0.1-1.2-0.8-2.2-1.9-2.7l1.8-4.1c0.2-0.5,0-1.1-0.5-1.3c-4.4-2.2-10.3-0.1-10.6,0c-0.3,0.1-0.5,0.3-0.6,0.6
			c-0.1,0.3-0.1,0.6,0,0.8l2.1,4.1c-0.3,0.1-0.6,0.3-0.8,0.5c-1.3,1-1.6,2.4-0.9,3.6c0.2,0.3,0.3,0.5,0.5,0.7
			c-0.1,0.1-0.3,0.2-0.4,0.3h0c-1.5,1.1-2.8,2.4-3.8,3.8c-1.2,1.8-2,3.9-2.2,6.2c-0.1,1.1-0.2,2.2-0.1,3.3c0.1,1.6,0.6,3,1.4,4
			c1.4,1.8,3.9,2.4,6.1,2.8c1.6,0.3,3.2,0.4,4.8,0.4c0.9,0,1.9,0,2.8-0.1c1.8-0.2,4.5-0.7,6.3-2.8c1.3-1.5,2-3.4,2-5.5
			C-97.8,427.2-98,426.1-98.2,425.1z M-111.2,410.3l-1.7-3.4c1.6-0.4,4.5-0.9,7-0.1l-1.6,3.5c-0.8-0.1-1.7-0.1-2.7,0h-0.4l0,0
			H-111.2z M-113.3,413.9c-0.3-0.4,0.3-0.9,0.4-1c0.6-0.5,1.4-0.5,2.3-0.6h2.9c0.4,0.1,0.9,0.1,1.3,0.3c0.4,0.1,0.7,0.5,0.7,1
			c0,0.2-0.1,0.5-0.4,0.8c-0.2,0.2-0.4,0.3-0.5,0.4c-0.2-0.1-0.3-0.2-0.5-0.2c-0.8-0.3-1.7-0.7-2.7-0.7l0,0c-1.1,0-2,0.3-2.9,0.7
			C-112.9,414.4-113.1,414.2-113.3,413.9z M-101.3,432.5c-1.1,1.2-2.6,1.9-5,2.1c-2.3,0.2-4.7,0.1-7.1-0.2c-1.8-0.3-3.8-0.8-4.8-2
			c-0.7-0.9-1-2.1-1-2.9c-0.1-1,0-2,0.1-3c0.2-2,0.9-3.8,1.9-5.4c0.8-1.3,2-2.4,3.3-3.3l0.2-0.1c0.5-0.4,1.1-0.7,1.6-1l0,0
			c0.7-0.4,1.5-0.7,2.3-0.7l0,0c0.7,0,1.4,0.3,2,0.5c0.1,0,0.2,0.1,0.3,0.2c0.1,0.1,0.3,0.2,0.5,0.2c0.4,0.2,0.9,0.5,1.3,0.7
			c1.8,1.2,3.3,2.9,4.4,5c0.6,1.1,0.9,2,1.1,2.8l0.1,0.3c0.2,0.9,0.4,1.8,0.4,2.8C-99.8,429.9-100.3,431.3-101.3,432.5z"/>
		<path class="st2" d="M-108.7,424.8c-0.2-0.1-0.5-0.2-0.7-0.2c-0.5-0.2-0.7-0.2-0.8-0.4c-0.2-0.3,0.1-0.8,0.2-0.9
			c0,0,0.1-0.1,0.3-0.2c0.4,0,0.8,0.1,1.3,0.4s1.1,0.1,1.4-0.4c0.3-0.5,0.1-1.1-0.4-1.4c-0.3-0.2-0.6-0.3-1-0.4v-1.2
			c0-0.6-0.4-1-1-1s-1,0.4-1,1v1.1c-0.5,0.2-0.9,0.5-1.2,0.9c-0.6,1-0.7,2.1-0.2,3s1.4,1.2,2,1.4c0.2,0.1,0.3,0.1,0.5,0.2
			c0.7,0.3,0.8,0.6,0.9,0.8c0,0.1,0,0.2-0.1,0.3c-0.2,0.3-0.6,0.5-0.9,0.5c-0.6,0.1-1.1-0.7-1.4-1.2c-0.3-0.5-0.9-0.6-1.4-0.3
			c-0.5,0.3-0.6,0.9-0.3,1.4c0.7,1.2,1.5,1.8,2.2,2v1c0,0.6,0.4,1,1,1s1-0.4,1-1v-1.1c0.6-0.2,1.1-0.6,1.4-1.1
			c0.4-0.6,0.6-1.3,0.4-1.9C-106.9,426-107.5,425.3-108.7,424.8z"/>
	</g>
</g>
</svg>
