<?xml version="1.0" encoding="utf-8"?>
<!-- Generator: Adobe Illustrator 19.0.0, SVG Export Plug-In . SVG Version: 6.00 Build 0)  -->
<svg version="1.1" baseProfile="basic" id="Layer_1"
	 xmlns="http://www.w3.org/2000/svg" xmlns:xlink="http://www.w3.org/1999/xlink" x="0px" y="0px" viewBox="-174.4 350.1 78.7 93.8"
	 xml:space="preserve">
<style type="text/css">
	.st0{fill:#CE7A58;}
</style>
<g>
	<path class="st0" d="M-96.6,380.5l-25.6-7.3v-12.8h16.2v2.9h-2.4c-0.8,0-1.4,0.6-1.4,1.4v5.7c0,0.8,0.6,1.4,1.4,1.4h7.6
		c0.8,0,1.4-0.6,1.4-1.4v-5.7c0-0.8-0.6-1.4-1.4-1.4h-2.4v-2.9h6.2c0.7,0,1.3-0.5,1.4-1.2s-0.3-1.3-1-1.5l-26.6-7.6l0,0l0,0l0,0
		h-0.1c0,0,0,0-0.1,0c0,0,0,0-0.1,0h-0.1l0,0l0,0l0,0h-22.7l0,0l0,0l0,0h-0.1c0,0,0,0-0.1,0c0,0,0,0-0.1,0h-0.1l0,0l0,0l0,0
		l-26.6,7.6c-0.7,0.2-1.1,0.8-1,1.5s0.7,1.2,1.4,1.2h6.2v2.9h-2.4c-0.8,0-1.4,0.6-1.4,1.4v5.7c0,0.8,0.6,1.4,1.4,1.4h7.6
		c0.8,0,1.4-0.6,1.4-1.4v-5.7c0-0.8-0.6-1.4-1.4-1.4h-2.4v-2.9h16.3v12.8l-25.6,7.3c-0.7,0.2-1.1,0.8-1,1.5s0.7,1.2,1.4,1.2h6.2v2.9
		h-2.4c-0.8,0-1.4,0.6-1.4,1.4v5.7c0,0.8,0.6,1.4,1.4,1.4h7.6c0.8,0,1.4-0.6,1.4-1.4v-5.7c0-0.8-0.6-1.4-1.4-1.4h-2.4v-2.9h16.3
		v13.6l-5.6,19.7l0,0l0,0l0,0l0,0l0,0l-5.4,18.9h-2.8c-0.8,0-1.4,0.6-1.4,1.4v4.3h-2.8c-0.8,0-1.4,0.6-1.4,1.4s0.6,1.4,1.4,1.4h4.2
		h53.2h4.2c0.8,0,1.4-0.6,1.4-1.4s-0.6-1.4-1.4-1.4h-3.1v-4.3c0-0.8-0.6-1.4-1.4-1.4h-2.8l-5.4-18.9l0,0l0,0l0,0l-5.6-19.7v-13.6
		h16.2v2.9h-2.4c-0.8,0-1.4,0.6-1.4,1.4v5.7c0,0.8,0.6,1.4,1.4,1.4h7.6c0.8,0,1.4-0.6,1.4-1.4v-5.7c0-0.8-0.6-1.4-1.4-1.4h-2.4v-2.9
		h6.2c0.7,0,1.3-0.5,1.4-1.2C-95.5,381.3-95.9,380.7-96.6,380.5z M-102.2,366.1v2.9h-4.8v-2.9H-102.2z M-122.2,353.2l15.4,4.4h-15.4
		V353.2z M-163,366.1v2.9h-4.8v-2.9H-163z M-163,388.9v2.9h-4.8v-2.9H-163z M-145,352.8h20.1v4.8H-145V352.8z M-125,360.4v11.3
		l-16.9-11.3H-125z M-145,361.6l16.9,11.3H-145V361.6z M-145,375.6h20.1v4.8H-145V375.6z M-147.7,415.6l12.7-8.9l12.7,8.9H-147.7z
		 M-123.7,418.3L-135,424l-11.3-5.6h22.6V418.3z M-142,398.4h14.1l-7,4.9L-142,398.4z M-125,383.2v11.3l-16.9-11.3H-125z
		 M-145,384.4l16.9,11.3H-145V384.4z M-163.2,357.6l15.4-4.4v4.4H-163.2z M-163.2,380.4l15.4-4.4v4.4H-163.2z M-145.6,399.2l8.2,5.7
		l-12.3,8.6L-145.6,399.2z M-151.2,418.9l13.2,6.6l-17.5,8.8L-151.2,418.9z M-112.2,438.3L-112.2,438.3L-112.2,438.3h2.4v2.9l0,0
		h-50.5v-2.9h2.4l0,0l0,0l0,0l0,0h13c0.8,0,1.4-0.6,1.4-1.4s-0.6-1.4-1.4-1.4h-7.2l17-8.5l17,8.5h-20.6c-0.8,0-1.4,0.6-1.4,1.4
		s0.6,1.4,1.4,1.4H-112.2L-112.2,438.3z M-114.4,434.3l-17.5-8.8l13.2-6.6L-114.4,434.3z M-120.3,413.6l-12.3-8.6l8.2-5.7
		L-120.3,413.6z M-122.2,380.4V376l15.4,4.4H-122.2z M-102.2,388.9v2.9h-4.8v-2.9H-102.2z"/>
</g>
</svg>
