<svg width="60" height="60" viewBox="0 0 60 60" fill="none" xmlns="http://www.w3.org/2000/svg">
<rect opacity="0.1" width="60" height="60" rx="30" fill="#CE7A58"/>
<g clip-path="url(#clip0)">
<path d="M42.2891 39.6992H17.8125C17.341 39.8516 17 40.1926 17 40.6133V42.2383C17 42.659 17.341 43 17.7617 43H42.2383C42.659 43 43 42.659 43 42.2383V40.6133C43 40.1926 42.659 39.8516 42.2891 39.6992Z" fill="#CE7A58"/>
<path d="M42.5302 22.1373L30.2919 17.0591C30.105 16.9816 29.895 16.9816 29.7081 17.0591L17.4698 22.1373C17.1854 22.2552 17 22.5329 17 22.8408V24.3642C17 24.7849 17.341 25.1259 17.7617 25.1259H42.2383C42.659 25.1259 43 24.7849 43 24.3642V22.8408C43 22.5329 42.8146 22.2552 42.5302 22.1373ZM34.5703 22.8408H25.4297C25.009 22.8408 24.668 22.4997 24.668 22.0791C24.668 21.6584 25.009 21.3173 25.4297 21.3173H34.5703C34.991 21.3173 35.332 21.6584 35.332 22.0791C35.332 22.4997 34.991 22.8408 34.5703 22.8408Z" fill="#CE7A58"/>
<path d="M18.4473 36.8047V38.3281H24.2871V36.8047C24.2871 36.384 23.9461 36.043 23.5254 36.043H19.209C18.7883 36.043 18.4473 36.384 18.4473 36.8047Z" fill="#CE7A58"/>
<path d="M19.4629 26.6484H23.2715V36.6484H19.4629V26.6484Z" fill="#CE7A58"/>
<path d="M36.7285 26.6484H40.5371V36.6484H36.7285V26.6484Z" fill="#CE7A58"/>
<path d="M35.7129 36.8047V38.3281H41.5527V36.8047C41.5527 36.384 41.2117 36.043 40.791 36.043H36.4746C36.0539 36.043 35.7129 36.384 35.7129 36.8047Z" fill="#CE7A58"/>
<path d="M30 34.7734C29.58 34.7734 29.2383 34.4317 29.2383 34.0117C29.2383 33.591 28.8972 33.25 28.4766 33.25C28.0559 33.25 27.7148 33.591 27.7148 34.0117C27.7148 35.0047 28.3517 35.8514 29.2383 36.1659V36.5508C29.2383 36.9715 29.5793 37.3125 30 37.3125C30.4207 37.3125 30.7617 36.9715 30.7617 36.5508V36.1659C31.6483 35.8514 32.2852 35.0047 32.2852 34.0117C32.2852 32.7517 31.26 31.7266 30 31.7266C29.58 31.7266 29.2383 31.3849 29.2383 30.9648C29.2383 30.5448 29.58 30.2031 30 30.2031C30.42 30.2031 30.7617 30.5448 30.7617 30.9648C30.7617 31.3855 31.1028 31.7266 31.5234 31.7266C31.9441 31.7266 32.2852 31.3855 32.2852 30.9648C32.2852 29.9718 31.6483 29.1251 30.7617 28.8107V28.4258C30.7617 28.0051 30.4207 27.6641 30 27.6641C29.5793 27.6641 29.2383 28.0051 29.2383 28.4258V28.8107C28.3517 29.1251 27.7148 29.9718 27.7148 30.9648C27.7148 32.2249 28.74 33.25 30 33.25C30.42 33.25 30.7617 33.5917 30.7617 34.0117C30.7617 34.4317 30.42 34.7734 30 34.7734Z" fill="#CE7A58"/>
</g>
<defs>
<clipPath id="clip0">
<rect x="17" y="17" width="26" height="26" fill="white"/>
</clipPath>
</defs>
</svg>
