<svg width="36" height="37" viewBox="0 0 36 37" fill="none" xmlns="http://www.w3.org/2000/svg">
<g clip-path="url(#clip0_8557_64613)">
<path d="M31.509 18.7607L30.4054 18.1236L31.4558 16.3043C31.5304 16.1751 31.5506 16.0216 31.512 15.8775C31.4908 15.7984 31.4524 15.7262 31.4011 15.6643L32.1479 14.371C32.3457 14.0285 32.3983 13.6294 32.2959 13.2473C32.1935 12.8651 31.9484 12.5458 31.6059 12.348V12.3481L30.6515 11.797C29.9442 11.3888 29.0369 11.632 28.6286 12.3391L28.0547 13.3331V4.05197C28.0547 2.24245 26.5826 0.770355 24.7731 0.770355H23.2734H12.7266H11.2269C9.41741 0.770355 7.94531 2.24245 7.94531 4.05197V33.3481C7.94531 35.1576 9.41741 36.6297 11.2269 36.6297H24.7731C26.5826 36.6297 28.0547 35.1576 28.0547 33.3481V22.1952L29.843 19.0979L30.9464 19.735C31.0287 19.7825 31.057 19.888 31.0095 19.9703L29.1269 23.2311C28.9715 23.5001 29.0637 23.8441 29.3327 23.9994C29.4213 24.0506 29.518 24.0749 29.6134 24.0749C29.8078 24.0749 29.9969 23.974 30.1011 23.7936L31.9837 20.5328C32.3414 19.9133 32.1284 19.1184 31.509 18.7607ZM27.9932 14.9548L30.2003 16.229L29.4312 17.5611L27.2241 16.2869L27.9932 14.9548ZM29.6028 12.9017C29.7011 12.7317 29.919 12.6734 30.089 12.7713L31.0434 13.3223V13.3224C31.1257 13.3699 31.1846 13.4466 31.2092 13.5384C31.2338 13.6302 31.2212 13.7261 31.1736 13.8084L30.4447 15.071L29.6593 14.6176L28.8739 14.1641L29.6028 12.9017ZM22.4346 1.89536L21.9144 3.16359C21.8274 3.37556 21.6232 3.51254 21.394 3.51254H14.606C14.3768 3.51254 14.1726 3.37556 14.0856 3.16359L13.5654 1.89536H22.4346ZM26.9297 33.3481C26.9297 34.5372 25.9622 35.5047 24.7731 35.5047H11.2269C10.0378 35.5047 9.07031 34.5372 9.07031 33.3481V4.05197C9.07031 2.86284 10.0378 1.89536 11.2269 1.89536H12.3494L13.0448 3.59055C13.3057 4.22659 13.9185 4.63754 14.606 4.63754H21.394C22.0815 4.63754 22.6943 4.22659 22.9552 3.59055L23.6506 1.89536H24.7731C25.9622 1.89536 26.9297 2.86284 26.9297 4.05197V14.547L26.2499 15.7244L25.9417 15.5465C25.6726 15.391 25.3286 15.4832 25.1732 15.7523C25.0179 16.0214 25.1101 16.3654 25.3792 16.5207L25.6874 16.6987L20.7332 25.2797C20.5262 25.6382 20.4343 26.0458 20.4675 26.4583L20.6472 28.6961C20.6542 28.7836 20.6747 28.8679 20.7049 28.9481C20.694 28.9635 20.6828 28.9787 20.6734 28.9955L20.1885 29.8605L19.4263 28.6578C19.2671 28.4065 18.9936 28.2581 18.6973 28.2658C18.4 28.2716 18.1333 28.4286 17.984 28.6857L17.5049 29.5107L16.0643 26.259C15.8764 25.8349 15.4541 25.5719 14.9921 25.5906C14.5286 25.6086 14.1293 25.9029 13.9749 26.3403L11.7743 32.5754C11.6708 32.8683 11.8245 33.1896 12.1174 33.293C12.1794 33.3148 12.2425 33.3252 12.3047 33.3252C12.5365 33.3252 12.7535 33.1808 12.8351 32.9497L15.036 26.7152L16.6998 30.4707C16.8289 30.7622 17.1069 30.9541 17.4253 30.9714C17.7433 30.9888 18.0409 30.8283 18.2008 30.5526L18.7241 29.6514L19.4908 30.8611C19.6515 31.1145 19.9276 31.263 20.2263 31.2527C20.5262 31.2446 20.7928 31.0835 20.9394 30.8218L21.6539 29.5471C21.7631 29.5377 21.8712 29.5099 21.973 29.4616L24.0009 28.4983C24.3747 28.3207 24.6817 28.0374 24.8887 27.6789L26.9297 24.1438V33.3481ZM23.5182 27.4821L21.7459 28.3239L21.5889 26.3682C21.5741 26.1841 21.6151 26.0022 21.7075 25.8422L21.8862 25.5326L24.0933 26.8068L23.9145 27.1164C23.8221 27.2764 23.685 27.4029 23.5182 27.4821ZM24.6557 25.8325L22.4487 24.5583L26.6617 17.2611L28.8687 18.5354L24.6557 25.8325Z" fill="#CE7A58"/>
<path d="M23.4141 32.2H15.0469C14.7362 32.2 14.4844 32.4519 14.4844 32.7625C14.4844 33.0732 14.7362 33.325 15.0469 33.325H23.4141C23.7247 33.325 23.9766 33.0732 23.9766 32.7625C23.9766 32.4519 23.7247 32.2 23.4141 32.2Z" fill="#CE7A58"/>
<path d="M13.2891 10.3329H22.7109C23.0216 10.3329 23.2734 10.081 23.2734 9.77036C23.2734 9.45972 23.0216 9.20786 22.7109 9.20786H13.2891C12.9784 9.20786 12.7266 9.45972 12.7266 9.77036C12.7266 10.081 12.9784 10.3329 13.2891 10.3329Z" fill="#CE7A58"/>
<path d="M12.3047 13.4618H23.6953C24.006 13.4618 24.2578 13.2099 24.2578 12.8993C24.2578 12.5886 24.006 12.3368 23.6953 12.3368H12.3047C11.994 12.3368 11.7422 12.5886 11.7422 12.8993C11.7422 13.2099 11.994 13.4618 12.3047 13.4618Z" fill="#CE7A58"/>
<path d="M21.375 15.4657H14.625C14.3144 15.4657 14.0625 15.7175 14.0625 16.0282C14.0625 16.3388 14.3144 16.5907 14.625 16.5907H21.375C21.6856 16.5907 21.9375 16.3388 21.9375 16.0282C21.9375 15.7175 21.6856 15.4657 21.375 15.4657Z" fill="#CE7A58"/>
</g>
<defs>
<clipPath id="clip0_8557_64613">
<rect width="36" height="36" fill="white" transform="translate(0 0.700043)"/>
</clipPath>
</defs>
</svg>
