<?xml version="1.0" encoding="utf-8"?>
<!-- Generator: Adobe Illustrator 19.0.0, SVG Export Plug-In . SVG Version: 6.00 Build 0)  -->
<svg version="1.1" id="Capa_1" xmlns="http://www.w3.org/2000/svg" xmlns:xlink="http://www.w3.org/1999/xlink" x="0px" y="0px"
	 viewBox="-289 381 32 32" style="enable-background:new -289 381 32 32;" xml:space="preserve">
<style type="text/css">
	.st0{fill:none;stroke:#FFFFFF;stroke-linecap:round;stroke-linejoin:round;stroke-miterlimit:10;}
	.st1{fill:none;stroke:#FFFFFF;stroke-linecap:square;stroke-linejoin:round;stroke-miterlimit:10;}
</style>
<g id="XMLID_33_">
	<path id="XMLID_30_" class="st0" d="M-265.6,412.3v-0.7c0-0.9-0.9-1.6-1.9-1.6h-10.9c-1.1,0-1.9,0.7-1.9,1.6v0.7H-265.6z"/>
	<polygon id="XMLID_27_" class="st0" points="-276,409.5 -274,407.5 -271.8,407.5 -269.8,409.5 	"/>
	<rect id="XMLID_28_" x="-274.1" y="385.5" class="st1" width="2.3" height="21.1"/>
	<line id="XMLID_31_" class="st0" x1="-275.8" y1="385.5" x2="-270" y2="385.5"/>
	<path id="XMLID_29_" class="st0" d="M-273.1,381.8c0,0-3.1,0-0.5,4.2h1.5C-272.1,385.9-269.2,381.8-273.1,381.8z"/>
	<path id="XMLID_32_" class="st0" d="M-284.6,388c0,0,1.8,2,4.2,0.1h14.1c0,0,2.7,1.5,3.9-0.6"/>
	<path id="XMLID_34_" class="st0" d="M-263.8,388l-5.5,11.8c0,0-1.2,3.3,2.8,4h5.6c0,0,3.6-0.2,2.5-3.8L-263.8,388z"/>
	<line id="XMLID_35_" class="st0" x1="-269" y1="399.5" x2="-259.1" y2="399.5"/>
	<path id="XMLID_37_" class="st0" d="M-282.1,388l-5.5,11.8c0,0-1.2,3.3,2.8,4h5.6c0,0,3.6-0.2,2.5-3.8L-282.1,388z"/>
	<line id="XMLID_36_" class="st0" x1="-287.3" y1="399.5" x2="-277.4" y2="399.5"/>
</g>
</svg>
