<svg width="431" height="219" viewBox="0 0 431 219" fill="none" xmlns="http://www.w3.org/2000/svg">
<g opacity="0.2">
<path d="M189.413 94.7975C189.704 94.9844 190.03 95.1103 190.371 95.1674C190.711 95.2245 191.06 95.2118 191.396 95.1298C191.732 95.0479 192.048 94.8986 192.324 94.6909C192.6 94.4833 192.832 94.2216 193.004 93.9218C193.354 93.3093 193.455 92.5849 193.285 91.8999C193.114 91.2149 192.686 90.6221 192.089 90.2452C191.803 90.0578 191.482 89.931 191.145 89.8726C190.808 89.8143 190.463 89.8256 190.131 89.9058C189.798 89.9861 189.486 90.1336 189.212 90.3393C188.939 90.545 188.711 90.8045 188.542 91.1018C188.182 91.7109 188.071 92.4361 188.233 93.1251C188.396 93.8141 188.819 94.4135 189.413 94.7975Z" fill="#CE7A58"/>
<path d="M217.036 85.9032C216.717 86.5198 216.274 87.0641 215.736 87.5021C215.197 87.9401 214.574 88.2623 213.905 88.4487C213.236 88.6351 212.536 88.6816 211.848 88.5854C211.161 88.4892 210.5 88.2523 209.908 87.8895C208.689 87.1475 207.797 85.9692 207.415 84.5937C207.032 83.2182 207.188 81.7487 207.85 80.4837C208.171 79.8746 208.613 79.3376 209.149 78.9055C209.685 78.4735 210.304 78.1557 210.968 77.9715C211.631 77.7872 212.325 77.7406 213.007 77.8343C213.69 77.9281 214.345 78.1603 214.934 78.5166C216.165 79.2433 217.07 80.4152 217.461 81.79C217.852 83.1648 217.7 84.6374 217.036 85.9032ZM215.573 85.0558C216.016 84.1968 216.113 83.2007 215.843 82.2725C215.574 81.3443 214.959 80.5547 214.126 80.066C213.742 79.8395 213.318 79.6917 212.877 79.6311C212.436 79.5705 211.987 79.5983 211.557 79.713C211.127 79.8276 210.724 80.0267 210.371 80.2987C210.019 80.5708 209.724 80.9103 209.505 81.2974C209.064 82.1555 208.964 83.1485 209.224 84.0774C209.485 85.0063 210.086 85.8025 210.909 86.3065C211.695 86.7504 212.624 86.8681 213.497 86.6342C214.369 86.4003 215.114 85.8336 215.573 85.0558Z" fill="#CE7A58"/>
<path d="M303.279 35.2315C300.967 38.0133 298.329 40.5074 295.422 42.6603C284.061 51.1244 272.244 58.9599 260.026 66.1316C244.667 75.4032 229.82 83.1545 229.82 83.1545C229.82 83.1545 223.366 87.1156 220.414 89.3093C215.149 92.7884 211.415 98.1511 209.98 104.296C207.136 112.936 201.949 120.615 194.997 126.479C185.07 133.83 173.5 138.647 161.29 140.514C143.656 142.991 125.84 143.923 108.044 143.298C83.7662 142.883 59.6695 139.033 36.471 131.863L38.6201 127.752C42.8262 129.187 59.673 133.468 63.423 134.227L63.9108 132.769C59.8538 131.785 47.9509 128.506 39.5008 126.016L41.3484 122.504C48.0579 124.685 59.9851 128.366 65.1161 129.441L65.6086 127.877C59.8156 126.477 48.7899 122.963 42.3107 120.835L44.072 117.362C50.1725 119.452 61.5629 123.321 66.7422 124.736L67.2394 123.067C61.7389 121.743 50.8567 117.855 44.8857 115.707L46.4173 112.647C52.1534 114.848 63.3328 118.707 68.3204 120.156L68.7936 118.549C61.5166 116.139 54.3355 113.634 47.2501 111.036L49.6479 106.09C63.8091 111.748 78.3609 116.374 93.1894 119.932C114.776 125.67 137.14 127.923 159.436 126.606C180.526 124.397 187.64 118.436 193.944 111.234C197.702 106.098 199.897 99.9858 200.267 93.6323C200.933 87.7009 199.207 77.0969 208.245 72.0883C210.598 70.8125 213.224 70.1205 215.9 70.0706C218.577 70.0207 221.226 70.6144 223.626 71.8016C252.058 63.8759 278.871 51.0034 302.836 33.7744C303.054 34.236 303.203 34.7269 303.279 35.2315ZM75.6445 128.938C76.4569 125.887 76.4655 124.746 75.2569 124.354C75.2569 124.354 73.5539 123.2 72.1768 127.536C70.7998 131.871 71.3809 133.06 72.4311 133.212C73.4812 133.365 74.3776 133.172 75.6445 128.938ZM81.303 130.035C81.9095 127.335 81.9134 126.3 80.7864 125.975C80.7864 125.975 79.2273 124.912 78.1471 128.753C77.0669 132.595 77.5088 133.587 78.4727 133.778C79.4366 133.968 80.3522 133.819 81.3893 129.997L81.303 130.035ZM86.985 130.606C87.5629 128.074 87.586 127.081 86.5021 126.737C86.5021 126.737 84.9814 125.76 83.9491 129.477C82.9167 133.194 83.3634 134.08 84.4041 134.444C85.4448 134.807 86.082 134.265 87.0712 130.567L86.985 130.606ZM92.6627 131.747C93.1928 129.339 93.1488 128.428 92.1465 128.151C92.1465 128.151 90.7505 127.222 89.8138 130.69C88.8771 134.157 89.3477 134.981 90.2061 135.167C91.0645 135.354 91.8985 135.137 92.7921 131.689L92.6627 131.747ZM209.122 94.1328C208.113 93.7378 207.131 93.2774 206.182 92.7546C206.048 92.4526 207.408 124.052 160.073 131.285C139.234 133.305 118.219 132.532 97.5843 128.986L96.1042 136.107C95.9606 136.481 144.661 138.927 160.13 135.706C172.666 133.791 205.104 126.423 209.252 94.0752L209.122 94.1328ZM218.432 86.8322C219.296 85.1453 219.485 83.193 218.962 81.3716C218.438 79.5501 217.241 77.9961 215.614 77.0251C214.845 76.5753 213.994 76.2843 213.111 76.1692C212.229 76.0541 211.332 76.1172 210.473 76.3549C209.615 76.5926 208.814 76.9999 208.116 77.5529C207.418 78.1059 206.838 78.7932 206.411 79.5742C205.53 81.2541 205.317 83.205 205.816 85.035C206.315 86.865 207.488 88.4384 209.099 89.439C209.89 89.9061 210.768 90.2081 211.679 90.3267C212.59 90.4453 213.515 90.3781 214.4 90.129C215.284 89.88 216.109 89.4544 216.824 88.8779C217.539 88.3013 218.13 87.5859 218.561 86.7746L218.432 86.8322ZM249.81 67.6843C247.265 68.8181 227.685 76.0413 226.051 76.666C226.845 77.4219 227.307 78.4606 227.339 79.556C235.142 76.1011 242.677 72.0704 249.882 67.4973L249.81 67.6843Z" fill="#CE7A58"/>
<path d="M140.292 94.1942C144.061 94.0663 147.81 93.8952 151.559 93.7241L151.806 96.2506C147.97 96.4601 144.135 96.6696 140.304 96.7737L140.38 100.772C144.234 100.606 148.089 100.439 151.968 100.211L152.161 102.502C148.283 102.731 144.366 102.874 140.468 103.059L140.601 107.187C144.561 107.025 148.478 106.883 152.462 106.659L152.56 108.735C148.638 108.983 144.659 109.101 140.656 109.282L140.817 113.242C144.84 113.105 148.862 112.967 152.827 112.7L152.968 114.756C148.941 115 144.918 115.137 140.872 115.338L141 119.571C145.066 119.414 149.175 119.238 153.36 119.234L153.486 121.142C149.354 121.381 145.269 121.495 141.083 121.498L141.148 124.313C141.148 124.313 153.403 124.436 159.18 123.827L156.446 89.8411L148.264 76.1167L144.64 76.3356C147.198 80.9169 149.805 85.4935 152.462 90.0651L150.046 90.2111C147.333 85.6299 144.639 81.0918 142.013 76.4721L138.033 76.5907C140.66 81.2103 143.368 85.897 146.081 90.4782L143.645 90.581C141.062 85.9422 138.478 81.3034 136 76.6692L131.872 76.8022C134.538 81.5081 137.183 86.1709 139.935 90.8384L140.292 94.1942Z" fill="#CE7A58"/>
<path d="M161.965 123.464C163.279 123.432 164.585 123.249 165.858 122.919C165.028 111.658 164.131 100.478 163.153 89.2304C160.349 84.7931 157.613 80.2742 154.895 75.7985L150.825 76.061C153.518 80.599 156.298 85.0987 159.078 89.5983C160.119 100.869 161.116 112.16 161.965 123.464Z" fill="#CE7A58"/>
<path d="M163.367 142.277C155.172 143.551 146.914 144.383 138.63 144.768L141.16 148.242C147.334 147.714 153.452 147.056 159.593 146.336L159.877 148.019C154.033 148.71 148.17 149.357 142.292 149.856L144.688 153.028C149.995 152.525 155.283 151.979 160.455 151.173L160.84 152.966C155.951 153.594 151.003 154.092 145.979 154.418L148.681 157.814C152.928 157.37 157.195 156.968 161.467 156.461L161.823 158.422C157.935 158.861 154.028 159.258 150.121 159.654L152.502 162.678C155.826 162.403 159.124 162.071 162.397 161.681L162.849 163.858C159.877 164.148 156.904 164.438 153.956 164.666L152.296 169.179L154.742 170.261L155.762 167.791L157.905 167.611L156.488 170.93L158.997 172.036L161.088 167.33L163.125 167.146L160.503 172.864L164.024 174.5L167.805 166.975L163.367 142.277Z" fill="#CE7A58"/>
<path d="M171.176 140.658C169.295 141.203 167.384 141.64 165.452 141.967L170.038 166.65C168.641 169.547 167.378 172.281 165.788 175.212L169.381 176.662C171.291 173.175 173.196 169.793 174.991 166.047L171.176 140.658Z" fill="#CE7A58"/>
<path d="M167.785 90.113L167.956 87.7108C167.956 87.7108 195.608 84.8004 197.76 84.4102C197.525 89.1542 197.025 93.8814 196.263 98.5697C195.4 98.954 166.693 101.817 166.539 101.472L166.82 98.9693L171.863 98.6869L171.958 97.0422L166.914 97.3247L167.133 95.2629L172.157 94.9373L172.271 93.3358L167.266 93.7046L167.465 91.5996L172.49 91.274L172.608 89.567C171.41 89.8941 169.693 89.9867 167.785 90.113ZM186.935 90.1635C186.389 91.1769 186.231 92.3548 186.493 93.4759C186.754 94.597 187.416 95.584 188.354 96.2513C188.831 96.5551 189.365 96.7584 189.923 96.8488C190.481 96.9392 191.052 96.9147 191.6 96.7769C192.149 96.6391 192.663 96.3908 193.112 96.0473C193.561 95.7038 193.936 95.2722 194.212 94.779C194.729 93.7666 194.863 92.6018 194.589 91.4985C194.316 90.3952 193.654 89.4274 192.725 88.7728C191.797 88.2293 190.693 88.0715 189.649 88.3332C188.606 88.595 187.707 89.2555 187.146 90.1728L186.935 90.1635ZM181.008 89.857C180.656 92.547 180.205 97.4522 180.205 97.4522C180.953 97.4991 181.704 97.4759 182.449 97.3831L183.156 89.5722L181.008 89.857ZM176.022 90.2688C175.67 92.9589 175.224 98.2237 175.224 98.2237C175.224 98.2237 176.432 98.1507 177.539 97.9675L178.29 90.1374C178.29 90.1374 178.084 90.0226 176.449 90.1822L176.022 90.2688Z" fill="#CE7A58"/>
<path d="M327.396 92.04C327.604 92.174 327.838 92.2643 328.082 92.3052C328.326 92.3462 328.577 92.337 328.818 92.2783C329.058 92.2195 329.285 92.1125 329.483 91.9635C329.681 91.8146 329.847 91.627 329.97 91.412C330.222 90.9728 330.294 90.4534 330.172 89.9622C330.05 89.471 329.743 89.0459 329.315 88.7756C329.11 88.6412 328.879 88.5503 328.637 88.5085C328.396 88.4666 328.148 88.4747 327.91 88.5323C327.672 88.5898 327.447 88.6956 327.252 88.8431C327.056 88.9906 326.892 89.1767 326.771 89.3898C326.512 89.8267 326.433 90.3466 326.549 90.8407C326.666 91.3348 326.969 91.7646 327.396 92.04Z" fill="#CE7A58"/>
<path d="M347.203 85.6622C346.975 86.1044 346.657 86.4947 346.271 86.8088C345.885 87.1228 345.438 87.3539 344.958 87.4875C344.479 87.6212 343.976 87.6546 343.483 87.5856C342.99 87.5166 342.517 87.3467 342.092 87.0866C341.218 86.5545 340.578 85.7095 340.304 84.7232C340.03 83.7368 340.142 82.6831 340.616 81.776C340.846 81.3393 341.164 80.9542 341.548 80.6444C341.932 80.3346 342.376 80.1066 342.852 79.9745C343.328 79.8424 343.825 79.809 344.315 79.8762C344.804 79.9434 345.274 80.1099 345.696 80.3655C346.579 80.8866 347.228 81.7269 347.508 82.7127C347.789 83.6986 347.68 84.7545 347.203 85.6622ZM346.154 85.0546C346.472 84.4386 346.541 83.7243 346.348 83.0587C346.155 82.3932 345.714 81.8269 345.116 81.4765C344.842 81.3141 344.537 81.2081 344.221 81.1647C343.905 81.1212 343.583 81.1411 343.274 81.2233C342.966 81.3055 342.677 81.4483 342.424 81.6434C342.172 81.8385 341.96 82.0819 341.803 82.3595C341.487 82.9748 341.415 83.6869 341.602 84.353C341.788 85.0191 342.22 85.59 342.81 85.9514C343.374 86.2697 344.04 86.3541 344.665 86.1864C345.291 86.0187 345.825 85.6123 346.154 85.0546Z" fill="#CE7A58"/>
<path d="M409.046 49.3268C407.388 51.3215 405.497 53.11 403.412 54.6538C395.265 60.7232 386.792 66.3418 378.03 71.4845C367.017 78.1329 356.371 83.6912 356.371 83.6912C356.371 83.6912 351.742 86.5316 349.626 88.1047C345.85 90.5994 343.173 94.4449 342.144 98.8516C340.104 105.047 336.385 110.553 331.4 114.759C324.281 120.029 315.984 123.484 307.229 124.822C294.584 126.599 281.809 127.267 269.048 126.819C251.639 126.521 234.359 123.76 217.724 118.619L219.265 115.671C222.281 116.7 234.362 119.77 237.051 120.314L237.401 119.269C234.491 118.563 225.956 116.212 219.897 114.426L221.222 111.908C226.033 113.472 234.586 116.112 238.265 116.882L238.618 115.761C234.464 114.757 226.558 112.237 221.912 110.711L223.175 108.221C227.549 109.719 235.717 112.494 239.431 113.508L239.788 112.311C235.843 111.362 228.04 108.574 223.758 107.034L224.856 104.84C228.97 106.418 236.986 109.185 240.563 110.224L240.902 109.072C235.684 107.344 230.534 105.548 225.454 103.684L227.173 100.138C237.328 104.195 247.763 107.512 258.396 110.064C273.875 114.178 289.911 115.794 305.9 114.849C321.022 113.265 326.124 108.991 330.644 103.826C333.339 100.143 334.913 95.7606 335.178 91.2046C335.656 86.9514 334.418 79.3475 340.899 75.7559C342.587 74.8411 344.47 74.3449 346.389 74.3091C348.308 74.2733 350.208 74.699 351.929 75.5504C372.316 69.867 391.544 60.6364 408.729 48.2819C408.885 48.6129 408.992 48.9649 409.046 49.3268ZM245.815 116.521C246.397 114.334 246.403 113.516 245.537 113.235C245.537 113.235 244.315 112.407 243.328 115.516C242.341 118.625 242.757 119.477 243.51 119.587C244.263 119.696 244.906 119.558 245.815 116.521ZM249.872 117.308C250.307 115.372 250.31 114.63 249.502 114.397C249.502 114.397 248.384 113.634 247.609 116.389C246.835 119.144 247.152 119.855 247.843 119.992C248.534 120.129 249.19 120.022 249.934 117.281L249.872 117.308ZM253.947 117.717C254.361 115.902 254.378 115.19 253.6 114.943C253.6 114.943 252.51 114.243 251.77 116.908C251.029 119.573 251.35 120.209 252.096 120.469C252.842 120.73 253.299 120.341 254.008 117.69L253.947 117.717ZM258.018 118.536C258.398 116.809 258.367 116.156 257.648 115.957C257.648 115.957 256.647 115.291 255.975 117.778C255.303 120.264 255.641 120.855 256.256 120.988C256.872 121.122 257.47 120.967 258.111 118.494L258.018 118.536ZM341.529 91.5635C340.805 91.2803 340.101 90.9501 339.42 90.5752C339.324 90.3587 340.299 113.018 306.357 118.205C291.413 119.653 276.344 119.098 261.547 116.556L260.486 121.662C260.383 121.93 295.305 123.684 306.397 121.374C315.386 120.002 338.647 114.718 341.621 91.5222L341.529 91.5635ZM348.204 86.3285C348.824 85.1188 348.959 83.7188 348.584 82.4127C348.209 81.1066 347.35 79.9923 346.183 79.296C345.632 78.9735 345.022 78.7648 344.389 78.6822C343.756 78.5997 343.113 78.645 342.497 78.8154C341.882 78.9858 341.307 79.2779 340.807 79.6745C340.306 80.071 339.891 80.5638 339.584 81.1239C338.952 82.3285 338.8 83.7274 339.158 85.0397C339.515 86.3519 340.357 87.4802 341.512 88.1977C342.079 88.5327 342.708 88.7492 343.362 88.8342C344.015 88.9193 344.679 88.8711 345.313 88.6925C345.947 88.514 346.538 88.2088 347.051 87.7953C347.564 87.3819 347.988 86.8689 348.297 86.2871L348.204 86.3285ZM370.705 72.5979C368.88 73.4109 354.84 78.5905 353.668 79.0385C354.237 79.5805 354.569 80.3253 354.591 81.1108C360.186 78.6334 365.59 75.7431 370.756 72.4638L370.705 72.5979Z" fill="#CE7A58"/>
<path d="M292.172 91.6074C294.874 91.5156 297.563 91.393 300.251 91.2703L300.428 93.082C297.678 93.2322 294.928 93.3825 292.181 93.4571L292.235 96.3243C294.999 96.205 297.763 96.0857 300.544 95.9217L300.683 97.565C297.902 97.729 295.093 97.8311 292.298 97.9642L292.394 100.924C295.233 100.808 298.042 100.706 300.899 100.546L300.969 102.034C298.157 102.212 295.303 102.297 292.433 102.427L292.549 105.266C295.433 105.168 298.317 105.069 301.161 104.877L301.262 106.352C298.374 106.527 295.489 106.625 292.588 106.769L292.68 109.805C295.595 109.692 298.541 109.566 301.543 109.563L301.633 110.931C298.67 111.102 295.741 111.184 292.739 111.187L292.786 113.205C292.786 113.205 301.574 113.293 305.716 112.856L303.756 88.4859L297.889 78.6444L295.29 78.8014C297.124 82.0865 298.994 85.3683 300.899 88.6465L299.166 88.7512C297.221 85.4661 295.289 82.2119 293.406 78.8993L290.552 78.9843C292.436 82.2969 294.378 85.6576 296.323 88.9427L294.577 89.0165C292.724 85.6901 290.871 82.3636 289.095 79.0406L286.134 79.136C288.046 82.5105 289.943 85.854 291.916 89.201L292.172 91.6074Z" fill="#CE7A58"/>
<path d="M307.713 112.597C308.656 112.574 309.592 112.443 310.505 112.207C309.91 104.131 309.267 96.1142 308.565 88.0491C306.555 84.8673 304.592 81.6269 302.643 78.4175L299.725 78.6057C301.656 81.8598 303.65 85.0864 305.643 88.313C306.389 96.3952 307.105 104.491 307.713 112.597Z" fill="#CE7A58"/>
<path d="M308.719 126.085C302.842 126.999 296.921 127.595 290.98 127.872L292.794 130.363C297.222 129.984 301.608 129.513 306.012 128.996L306.216 130.203C302.025 130.698 297.821 131.163 293.606 131.52L295.324 133.795C299.129 133.434 302.921 133.042 306.63 132.465L306.907 133.75C303.4 134.2 299.852 134.558 296.25 134.791L298.187 137.227C301.233 136.908 304.293 136.62 307.356 136.256L307.611 137.662C304.823 137.978 302.022 138.262 299.22 138.546L300.927 140.714C303.311 140.517 305.676 140.279 308.022 140L308.347 141.56C306.216 141.769 304.084 141.977 301.97 142.14L300.78 145.376L302.534 146.152L303.265 144.381L304.801 144.252L303.786 146.632L305.585 147.425L307.084 144.051L308.545 143.919L306.665 148.019L309.189 149.192L311.901 143.796L308.719 126.085Z" fill="#CE7A58"/>
<path d="M314.318 124.926C312.969 125.317 311.599 125.63 310.214 125.865L313.502 143.564C312.5 145.642 311.594 147.602 310.455 149.704L313.031 150.743C314.4 148.243 315.767 145.818 317.054 143.132L314.318 124.926Z" fill="#CE7A58"/>
<path d="M311.887 88.6814L312.009 86.9588C312.009 86.9588 331.838 84.8719 333.381 84.592C333.212 87.9939 332.854 91.3836 332.307 94.7455C331.689 95.0211 311.103 97.0743 310.993 96.8269L311.194 95.032L314.811 94.8295L314.879 93.6502L311.262 93.8527L311.419 92.3743L315.022 92.1408L315.103 90.9924L311.514 91.2568L311.657 89.7474L315.26 89.5139L315.345 88.2899C314.486 88.5244 313.255 88.5908 311.887 88.6814ZM325.618 88.7176C325.227 89.4443 325.114 90.2889 325.302 91.0928C325.489 91.8968 325.964 92.6045 326.636 93.083C326.978 93.3009 327.361 93.4466 327.761 93.5115C328.162 93.5763 328.571 93.5587 328.964 93.4599C329.357 93.3611 329.726 93.183 330.048 92.9367C330.37 92.6904 330.639 92.3809 330.837 92.0273C331.207 91.3013 331.303 90.466 331.107 89.6749C330.912 88.8837 330.437 88.1897 329.771 87.7203C329.105 87.3306 328.313 87.2174 327.565 87.4051C326.817 87.5929 326.172 88.0665 325.77 88.7243L325.618 88.7176ZM321.369 88.4978C321.116 90.4267 320.792 93.9441 320.792 93.9441C321.329 93.9778 321.868 93.9612 322.401 93.8946L322.909 88.2936L321.369 88.4978ZM317.793 88.7931C317.541 90.7221 317.221 94.4973 317.221 94.4973C317.221 94.4973 318.087 94.445 318.881 94.3137L319.42 88.6989C319.42 88.6989 319.272 88.6165 318.099 88.731L317.793 88.7931Z" fill="#CE7A58"/>
<path d="M88.2002 62.6278C88.3601 62.7306 88.5393 62.7998 88.7268 62.8313C88.9143 62.8627 89.1063 62.8556 89.291 62.8106C89.4757 62.7655 89.6494 62.6834 89.8014 62.5691C89.9534 62.4549 90.0805 62.311 90.1752 62.1461C90.3681 61.8091 90.4235 61.4107 90.3298 61.0339C90.2362 60.6571 90.0006 60.331 89.6723 60.1236C89.515 60.0205 89.3382 59.9508 89.1529 59.9187C88.9675 59.8866 88.7776 59.8928 88.5947 59.937C88.4119 59.9811 88.24 60.0622 88.0898 60.1754C87.9395 60.2885 87.814 60.4313 87.721 60.5948C87.5227 60.9299 87.4618 61.3288 87.5511 61.7078C87.6404 62.0868 87.873 62.4165 88.2002 62.6278Z" fill="#CE7A58"/>
<path d="M103.395 57.7362C103.22 58.0754 102.976 58.3748 102.68 58.6157C102.383 58.8566 102.041 59.0339 101.673 59.1364C101.305 59.2389 100.92 59.2646 100.541 59.2116C100.163 59.1587 99.8 59.0284 99.4743 58.8288C98.8034 58.4207 98.313 57.7725 98.1027 57.0158C97.8923 56.2592 97.9779 55.4509 98.342 54.755C98.5186 54.42 98.7618 54.1246 99.0568 53.8869C99.3517 53.6493 99.6921 53.4744 100.057 53.3731C100.422 53.2718 100.804 53.2461 101.179 53.2976C101.554 53.3492 101.915 53.4769 102.239 53.673C102.916 54.0727 103.414 54.7173 103.629 55.4736C103.844 56.2299 103.76 57.0399 103.395 57.7362ZM102.59 57.2701C102.834 56.7975 102.887 56.2496 102.739 55.739C102.591 55.2284 102.253 54.7941 101.794 54.5252C101.583 54.4007 101.35 54.3194 101.107 54.286C100.865 54.2527 100.618 54.268 100.381 54.3311C100.145 54.3941 99.9229 54.5037 99.729 54.6533C99.5352 54.8029 99.3731 54.9897 99.2523 55.2026C99.0098 55.6747 98.9547 56.2209 99.098 56.7319C99.2412 57.2428 99.5723 57.6808 100.025 57.958C100.457 58.2022 100.968 58.267 101.448 58.1383C101.928 58.0097 102.338 57.6979 102.59 57.2701Z" fill="#CE7A58"/>
<path d="M150.836 29.8621C149.564 31.3923 148.113 32.7642 146.514 33.9485C140.264 38.6045 133.764 42.9146 127.043 46.8596C118.595 51.9598 110.428 56.2237 110.428 56.2237C110.428 56.2237 106.877 58.4026 105.254 59.6093C102.357 61.5231 100.303 64.473 99.5139 67.8535C97.9496 72.6057 95.0963 76.8301 91.2721 80.0559C85.8114 84.0991 79.4467 86.7491 72.7301 87.7759C63.0302 89.1388 53.2298 89.6513 43.4406 89.3074C30.0858 89.0792 16.8306 86.9615 4.06954 83.0173L5.25176 80.756C7.56544 81.5452 16.8326 83.9002 18.8954 84.3177L19.1637 83.5158C16.932 82.9744 10.3845 81.1709 5.73619 79.8008L6.75255 77.8694C10.4433 79.0688 17.0042 81.0939 19.8268 81.6848L20.0976 80.8248C16.911 80.0548 10.846 78.1216 7.28186 76.9511L8.25076 75.0408C11.6065 76.1904 17.8722 78.3186 20.7212 79.0968L20.9947 78.1787C17.969 77.4508 11.9829 75.3118 8.69833 74.1305L9.54082 72.4471C12.6962 73.6576 18.8458 75.7806 21.5893 76.5773L21.8497 75.6936C17.8467 74.3678 13.8965 72.9901 9.99896 71.5606L11.3179 68.8403C19.1078 71.9523 27.1125 74.497 35.2694 76.4546C47.1435 79.6107 59.4456 80.8501 71.7107 80.1257C83.3115 78.9103 87.2251 75.6313 90.6925 71.6696C92.7598 68.8443 93.9675 65.4823 94.1707 61.9873C94.5371 58.7246 93.5878 52.8915 98.5595 50.1364C99.8541 49.4345 101.298 49.0539 102.771 49.0265C104.243 48.999 105.7 49.3256 107.02 49.9787C122.66 45.6188 137.41 38.5379 150.593 29.0605C150.712 29.3144 150.794 29.5845 150.836 29.8621ZM25.6182 81.4081C26.0651 79.7304 26.0698 79.1027 25.405 78.887C25.405 78.887 24.4682 78.2522 23.7107 80.637C22.9532 83.0219 23.2729 83.6757 23.8506 83.7596C24.4282 83.8435 24.9213 83.7375 25.6182 81.4081ZM28.7308 82.012C29.0645 80.5269 29.0666 79.9572 28.4467 79.7784C28.4467 79.7784 27.589 79.1936 26.9948 81.3067C26.4006 83.4198 26.6438 83.9655 27.174 84.0705C27.7042 84.1756 28.2078 84.0933 28.7783 81.9909L28.7308 82.012ZM31.8564 82.3258C32.1743 80.933 32.187 80.387 31.5908 80.1976C31.5908 80.1976 30.7543 79.6603 30.1864 81.7048C29.6185 83.7493 29.8642 84.237 30.4367 84.4369C31.0092 84.6369 31.3597 84.3385 31.9039 82.3046L31.8564 82.3258ZM34.9796 82.9534C35.2712 81.6292 35.247 81.1281 34.6957 80.9756C34.6957 80.9756 33.9278 80.4646 33.4125 82.3719C32.8972 84.2792 33.1561 84.7326 33.6283 84.835C34.1005 84.9375 34.5593 84.8184 35.0508 82.9217L34.9796 82.9534ZM99.0421 62.2627C98.4871 62.0454 97.9468 61.7921 97.4248 61.5045C97.3508 61.3384 98.0991 78.7207 72.0611 82.6995C60.5978 83.8106 49.0375 83.3851 37.6869 81.4345L36.8727 85.3518C36.7938 85.5575 63.5829 86.903 72.0922 85.1312C78.988 84.0781 96.8317 80.0247 99.1133 62.2309L99.0421 62.2627ZM104.163 58.2467C104.638 57.3188 104.742 56.2448 104.454 55.2429C104.167 54.241 103.508 53.3861 102.613 52.852C102.19 52.6046 101.722 52.4445 101.236 52.3812C100.751 52.3179 100.257 52.3526 99.7853 52.4833C99.3133 52.6141 98.8723 52.8382 98.4884 53.1423C98.1045 53.4465 97.7855 53.8246 97.5503 54.2542C97.0658 55.1783 96.949 56.2515 97.2234 57.2581C97.4978 58.2647 98.143 59.1302 99.0294 59.6807C99.4645 59.9376 99.9472 60.1037 100.448 60.169C100.949 60.2342 101.459 60.1972 101.945 60.0602C102.431 59.9233 102.885 59.6891 103.279 59.372C103.672 59.0549 103.997 58.6613 104.234 58.215L104.163 58.2467ZM121.424 47.7138C120.024 48.3374 109.253 52.3108 108.354 52.6545C108.791 53.0703 109.045 53.6416 109.062 54.2442C113.355 52.3437 117.5 50.1265 121.463 47.6109L121.424 47.7138Z" fill="#CE7A58"/>
<path d="M61.1798 62.2954C63.2527 62.225 65.3151 62.1309 67.3774 62.0368L67.5132 63.4265C65.4033 63.5418 63.2935 63.657 61.1863 63.7143L61.2278 65.9138C63.3481 65.8223 65.4685 65.7308 67.6021 65.6049L67.7087 66.8655C65.5751 66.9914 63.4205 67.0697 61.2764 67.1718L61.3495 69.4425C63.5279 69.3536 65.6826 69.2752 67.8742 69.152L67.9279 70.2939C65.7706 70.4303 63.5817 70.4955 61.3796 70.595L61.4685 72.7735C63.6812 72.6977 65.8939 72.6219 68.0749 72.4749L68.1523 73.6063C65.937 73.7401 63.7243 73.8159 61.4985 73.926L61.5691 76.2547C63.8055 76.1684 66.0657 76.0714 68.3681 76.0694L68.4376 77.1191C66.1643 77.2503 63.9173 77.3129 61.6148 77.3149L61.6505 78.863C61.6505 78.863 68.3917 78.931 71.5694 78.5959L70.0657 59.9008L65.565 52.3512L63.5713 52.4716C64.9783 54.9917 66.4126 57.5092 67.8741 60.024L66.545 60.1043C65.0526 57.5842 63.5709 55.0879 62.126 52.5467L59.9371 52.612C61.3819 55.1531 62.8717 57.7312 64.364 60.2512L63.0242 60.3078C61.6031 57.7561 60.1819 55.2043 58.8188 52.6551L56.5481 52.7283C58.0141 55.317 59.4696 57.8819 60.983 60.4494L61.1798 62.2954Z" fill="#CE7A58"/>
<path d="M73.1016 78.3969C73.8245 78.3789 74.5429 78.2783 75.2429 78.097C74.7865 71.9022 74.2932 65.7522 73.7551 59.5654C72.2127 57.1245 70.7073 54.6388 69.2124 52.1768L66.9733 52.3211C68.4551 54.8174 69.9843 57.2926 71.5135 59.7678C72.0859 65.9678 72.6347 72.1783 73.1016 78.3969Z" fill="#CE7A58"/>
<path d="M73.8727 88.7442C69.3648 89.4451 64.8223 89.9025 60.2651 90.1143L61.6566 92.0252C65.0533 91.7347 68.4183 91.3731 71.7965 90.9772L71.9528 91.9028C68.7382 92.2827 65.513 92.6389 62.2798 92.9134L63.5974 94.6582C66.5167 94.3814 69.4255 94.0808 72.2709 93.6379L72.4827 94.6241C69.7929 94.9693 67.0714 95.2433 64.3075 95.4224L65.794 97.2911C68.1305 97.0464 70.4776 96.8254 72.8272 96.5465L73.0234 97.625C70.8847 97.8668 68.7354 98.085 66.5861 98.3031L67.8957 99.9662C69.7241 99.8151 71.5385 99.6325 73.3388 99.4181L73.5877 100.615C71.9527 100.775 70.3176 100.935 68.6958 101.06L67.7828 103.543L69.1284 104.137L69.6889 102.779L70.8678 102.68L70.0887 104.506L71.4686 105.114L72.6188 102.526L73.7396 102.424L72.2971 105.569L74.2337 106.47L76.3136 102.33L73.8727 88.7442Z" fill="#CE7A58"/>
<path d="M78.1682 87.8539C77.1333 88.1536 76.0821 88.394 75.0198 88.574L77.5424 102.152C76.7737 103.745 76.0787 105.249 75.2045 106.861L77.1806 107.659C78.2313 105.741 79.2793 103.88 80.2665 101.82L78.1682 87.8539Z" fill="#CE7A58"/>
<path d="M76.3032 60.0515L76.397 58.7301C76.397 58.7301 91.6081 57.1291 92.7921 56.9145C92.6623 59.5241 92.3872 62.1244 91.9681 64.7034C91.4935 64.9148 75.7022 66.4899 75.6177 66.3001L75.7721 64.9232L78.5465 64.7678L78.5985 63.8631L75.8241 64.0185L75.9444 62.8844L78.7082 62.7053L78.7707 61.8243L76.0175 62.0272L76.1272 60.8693L78.8911 60.6901L78.9562 59.7512C78.297 59.9311 77.3529 59.982 76.3032 60.0515ZM86.837 60.0793C86.5366 60.6367 86.4502 61.2847 86.594 61.9014C86.7378 62.5181 87.1019 63.061 87.6179 63.428C87.8802 63.5952 88.1739 63.707 88.4809 63.7567C88.7879 63.8065 89.1018 63.793 89.4034 63.7172C89.7051 63.6414 89.9881 63.5048 90.2351 63.3158C90.4821 63.1269 90.688 62.8895 90.8401 62.6182C91.1243 62.0613 91.1979 61.4205 91.0477 60.8136C90.8975 60.2067 90.5334 59.6743 90.0223 59.3143C89.5117 59.0153 88.9042 58.9285 88.3303 59.0725C87.7565 59.2165 87.262 59.5798 86.953 60.0844L86.837 60.0793ZM83.577 59.9106C83.3831 61.3904 83.1349 64.0887 83.1349 64.0887C83.5467 64.1144 83.9599 64.1017 84.3692 64.0506L84.7584 59.754L83.577 59.9106ZM80.8343 60.1372C80.6405 61.617 80.3951 64.513 80.3951 64.513C80.3951 64.513 81.0597 64.4729 81.6688 64.3721L82.0818 60.0649C82.0818 60.0649 81.9683 60.0017 81.069 60.0896L80.8343 60.1372Z" fill="#CE7A58"/>
</g>
</svg>
