<svg width="74" height="74" viewBox="0 0 74 74" fill="none" xmlns="http://www.w3.org/2000/svg">
<path d="M8.56525 56.7802C8.56525 42.5619 1.2002 32.798 1.2002 25.9468C1.2002 19.0957 5.13864 4.70679 36.6565 4.70679C68.1743 4.70679 72.7993 24.064 72.7993 31.5996C72.8014 66.8873 8.56525 81.9607 8.56525 56.7802Z" fill="#EFEFEF"/>
<path d="M51.1895 11.5427L52.643 10.0892L55.5499 12.9962L54.0964 14.4497L51.1895 11.5427Z" fill="#A4AFC1"/>
<path d="M59.5459 19.9008L60.9994 18.4473L63.9064 21.3543L62.4529 22.8077L59.5459 19.9008Z" fill="#A4AFC1"/>
<path d="M59.1826 12.9973L62.0896 10.0903L63.5431 11.5438L60.6361 14.4508L59.1826 12.9973Z" fill="#A4AFC1"/>
<path d="M51.5527 21.3529L54.4597 18.4459L55.9132 19.8994L53.0062 22.8064L51.5527 21.3529Z" fill="#A4AFC1"/>
<path d="M56.0141 57.5556H17.9863V34.4306C17.9863 33.2959 18.9072 32.375 20.0419 32.375H53.9586C55.0932 32.375 56.0141 33.2959 56.0141 34.4306V57.5556Z" fill="#F3F3F1"/>
<path d="M13.875 22.6114H39.5695V20.0419C39.5695 18.34 38.1881 16.9586 36.4861 16.9586H16.9583C15.2563 16.9586 13.875 18.34 13.875 20.0419V22.6114Z" fill="#CE7A58"/>
<path d="M16.9583 37.5139H36.4861C38.1881 37.5139 39.5695 36.1325 39.5695 34.4305V22.6111H13.875V34.4305C13.875 36.1325 15.2563 37.5139 16.9583 37.5139Z" fill="#F3F3F1"/>
<path d="M21.5833 16.9586H16.9583C15.2563 16.9586 13.875 18.34 13.875 20.0419V22.6114H18.5V20.0419C18.5 18.34 19.8813 16.9586 21.5833 16.9586Z" fill="#CE7A58"/>
<path d="M17.9863 37.5139H22.6113V57.5556H17.9863V37.5139Z" fill="#D5DBE1"/>
<path d="M18.5 34.4305V22.6111H13.875V34.4305C13.875 36.1325 15.2563 37.5139 16.9583 37.5139H21.5833C19.8813 37.5139 18.5 36.1325 18.5 34.4305Z" fill="#D5DBE1"/>
<path d="M57.556 58.0697H54.4727V34.4308C54.4727 34.1513 54.2383 33.917 53.9588 33.917H45.2227V30.8336H53.9588C55.9424 30.8336 57.556 32.4472 57.556 34.4308V58.0697Z" fill="black"/>
<path d="M16.4443 43.1664H19.5277V58.0692H16.4443V43.1664Z" fill="black"/>
<path d="M36.4858 39.0553H16.958C14.4071 39.0553 12.333 36.9812 12.333 34.4303V20.0414C12.333 17.4904 14.4071 15.4164 16.958 15.4164H36.4858C39.0367 15.4164 41.1108 17.4904 41.1108 20.0414V34.4303C41.1108 36.9812 39.0367 39.0553 36.4858 39.0553ZM16.958 18.4997C16.107 18.4997 15.4163 19.1904 15.4163 20.0414V34.4303C15.4163 35.2813 16.107 35.9719 16.958 35.9719H36.4858C37.3368 35.9719 38.0274 35.2813 38.0274 34.4303V20.0414C38.0274 19.1904 37.3368 18.4997 36.4858 18.4997H16.958Z" fill="black"/>
<path d="M13.875 21.5525H39.5695V24.6358H13.875V21.5525Z" fill="black"/>
<path d="M42.0664 46.314L44.2467 44.1337L51.9545 51.8416L49.7743 54.0219L42.0664 46.314Z" fill="black"/>
<path d="M44.1947 51.3886H41.1113V44.708C41.1113 43.857 41.802 43.1664 42.653 43.1664H49.3336V46.2497H44.1947V51.3886Z" fill="black"/>
<path d="M12.333 56.5278H61.6664V59.6112H12.333V56.5278Z" fill="black"/>
</svg>
